font.ufo
<glyph name="exclam" format="2">
	<unicode hex="0021"/>
	<advance width="299"/>
	<outline>
		<contour>
			<point x="119" y="207" type="line"/>
			<point x="165" y="207" type="line"/>
			<point x="276" y="507"/>
			<point x="300" y="575"/>
			<point x="300" y="620" type="curve" smooth="yes"/>
			<point x="300" y="657"/>
			<point x="279" y="680"/>
			<point x="238" y="680" type="curve" smooth="yes"/>
			<point x="198" y="680"/>
			<point x="169" y="659"/>
			<point x="155" y="603" type="curve" smooth="yes"/>
			<point x="147" y="568"/>
			<point x="138" y="488"/>
			<point x="130" y="354" type="curve" smooth="yes"/>
		</contour>
		<contour>
			<point x="42" y="52" type="curve" smooth="yes"/>
			<point x="42" y="16"/>
			<point x="69" y="-13"/>
			<point x="109" y="-13" type="curve" smooth="yes"/>
			<point x="155" y="-13"/>
			<point x="192" y="23"/>
			<point x="192" y="69" type="curve" smooth="yes"/>
			<point x="192" y="106"/>
			<point x="165" y="136"/>
			<point x="124" y="136" type="curve" smooth="yes"/>
			<point x="79" y="136"/>
			<point x="42" y="99"/>
		</contour>
	</outline>
</glyph>
<glyph name="numbersign" format="2">
	<unicode hex="0023"/>
	<advance width="582"/>
	<outline>
		<contour>
			<point x="77" y="0" type="line"/>
			<point x="139" y="0" type="line"/>
			<point x="313" y="646" type="line"/>
			<point x="250" y="646" type="line"/>
		</contour>
		<contour>
			<point x="43" y="261" type="line"/>
			<point x="24" y="170" type="line"/>
			<point x="504" y="170" type="line"/>
			<point x="523" y="261" type="line"/>
		</contour>
		<contour>
			<point x="561" y="388" type="line"/>
			<point x="581" y="479" type="line"/>
			<point x="101" y="479" type="line"/>
			<point x="81" y="388" type="line"/>
		</contour>
		<contour>
			<point x="295" y="0" type="line"/>
			<point x="358" y="0" type="line"/>
			<point x="531" y="646" type="line"/>
			<point x="469" y="646" type="line"/>
		</contour>
	</outline>
</glyph>
<glyph name="dollar" format="2">
	<unicode hex="0024"/>
	<advance width="539"/>
	<outline>
		<contour>
			<point x="173" y="-115" type="line"/>
			<point x="223" y="-115" type="line"/>
			<point x="307" y="318" type="line"/>
			<point x="258" y="318" type="line"/>
		</contour>
		<contour>
			<point x="224" y="-13" type="curve" smooth="yes"/>
			<point x="372" y="-13"/>
			<point x="469" y="65"/>
			<point x="469" y="181" type="curve" smooth="yes"/>
			<point x="469" y="269"/>
			<point x="421" y="312"/>
			<point x="327" y="368" type="curve" smooth="yes"/>
			<point x="300" y="385" type="line" smooth="yes"/>
			<point x="247" y="417"/>
			<point x="214" y="441"/>
			<point x="214" y="499" type="curve" smooth="yes"/>
			<point x="214" y="565"/>
			<point x="262" y="603"/>
			<point x="343" y="603" type="curve" smooth="yes"/>
			<point x="387" y="603"/>
			<point x="423" y="597"/>
			<point x="463" y="574" type="curve"/>
			<point x="408" y="620" type="line"/>
			<point x="415" y="539" type="line" smooth="yes"/>
			<point x="419" y="490"/>
			<point x="442" y="476"/>
			<point x="469" y="476" type="curve" smooth="yes"/>
			<point x="497" y="476"/>
			<point x="516" y="492"/>
			<point x="521" y="527" type="curve"/>
			<point x="511" y="604"/>
			<point x="448" y="653"/>
			<point x="340" y="653" type="curve" smooth="yes"/>
			<point x="199" y="653"/>
			<point x="109" y="574"/>
			<point x="109" y="465" type="curve" smooth="yes"/>
			<point x="109" y="380"/>
			<point x="155" y="333"/>
			<point x="236" y="283" type="curve" smooth="yes"/>
			<point x="264" y="266" type="line" smooth="yes"/>
			<point x="324" y="228"/>
			<point x="360" y="203"/>
			<point x="360" y="147" type="curve" smooth="yes"/>
			<point x="360" y="80"/>
			<point x="312" y="35"/>
			<point x="224" y="35" type="curve" smooth="yes"/>
			<point x="171" y="35"/>
			<point x="136" y="45"/>
			<point x="97" y="68" type="curve"/>
			<point x="153" y="22" type="line"/>
			<point x="144" y="109" type="line" smooth="yes"/>
			<point x="140" y="160"/>
			<point x="120" y="175"/>
			<point x="90" y="175" type="curve" smooth="yes"/>
			<point x="65" y="175"/>
			<point x="46" y="159"/>
			<point x="39" y="130" type="curve"/>
			<point x="47" y="37"/>
			<point x="110" y="-13"/>
		</contour>
		<contour>
			<point x="262" y="322" type="line"/>
			<point x="311" y="322" type="line"/>
			<point x="394" y="748" type="line"/>
			<point x="344" y="748" type="line"/>
		</contour>
	</outline>
</glyph>
<glyph name="ampersand" format="2">
	<unicode hex="0026"/>
	<advance width="730"/>
	<outline>
		<contour>
			<point x="317" y="-15" type="curve" smooth="yes"/>
			<point x="476" y="-15"/>
			<point x="573" y="67"/>
			<point x="573" y="178" type="curve" smooth="yes"/>
			<point x="573" y="238"/>
			<point x="538" y="289"/>
			<point x="465" y="297" type="curve"/>
			<point x="471" y="284" type="line"/>
			<point x="604" y="297"/>
			<point x="692" y="356"/>
			<point x="746" y="474" type="curve"/>
			<point x="663" y="512" type="line"/>
			<point x="620" y="395"/>
			<point x="554" y="329"/>
			<point x="428" y="319" type="curve"/>
			<point x="419" y="264" type="line"/>
			<point x="486" y="256"/>
			<point x="513" y="227"/>
			<point x="513" y="182" type="curve" smooth="yes"/>
			<point x="513" y="116"/>
			<point x="450" y="74"/>
			<point x="345" y="74" type="curve" smooth="yes"/>
			<point x="240" y="74"/>
			<point x="162" y="129"/>
			<point x="162" y="233" type="curve" smooth="yes"/>
			<point x="162" y="311"/>
			<point x="204" y="384"/>
			<point x="308" y="408" type="curve"/>
			<point x="289" y="431"/>
			<point x="277" y="463"/>
			<point x="277" y="502" type="curve" smooth="yes"/>
			<point x="277" y="586"/>
			<point x="329" y="639"/>
			<point x="419" y="639" type="curve" smooth="yes"/>
			<point x="444" y="639"/>
			<point x="464" y="636"/>
			<point x="483" y="630" type="curve"/>
			<point x="422" y="662" type="line"/>
			<point x="446" y="597" type="line" smooth="yes"/>
			<point x="460" y="560"/>
			<point x="481" y="546"/>
			<point x="507" y="546" type="curve" smooth="yes"/>
			<point x="536" y="546"/>
			<point x="552" y="563"/>
			<point x="556" y="588" type="curve"/>
			<point x="542" y="643"/>
			<point x="489" y="680"/>
			<point x="400" y="680" type="curve" smooth="yes"/>
			<point x="271" y="680"/>
			<point x="190" y="598"/>
			<point x="190" y="501" type="curve" smooth="yes"/>
			<point x="190" y="413"/>
			<point x="260" y="340"/>
			<point x="350" y="340" type="curve" smooth="yes"/>
			<point x="386" y="340"/>
			<point x="405" y="358"/>
			<point x="405" y="383" type="curve" smooth="yes"/>
			<point x="405" y="416"/>
			<point x="373" y="433"/>
			<point x="307" y="433" type="curve" smooth="yes"/>
			<point x="148" y="433"/>
			<point x="50" y="322"/>
			<point x="50" y="201" type="curve" smooth="yes"/>
			<point x="50" y="68"/>
			<point x="150" y="-15"/>
		</contour>
	</outline>
</glyph>
<glyph name="parenleft" format="2">
	<unicode hex="0028"/>
	<advance width="383"/>
	<outline>
		<contour>
			<point x="224" y="-192" type="curve"/>
			<point x="267" y="-163" type="line"/>
			<point x="203" y="-52"/>
			<point x="169" y="48"/>
			<point x="169" y="178" type="curve" smooth="yes"/>
			<point x="169" y="370"/>
			<point x="250" y="542"/>
			<point x="426" y="680" type="curve"/>
			<point x="396" y="720" type="line"/>
			<point x="184" y="589"/>
			<point x="67" y="400"/>
			<point x="67" y="189" type="curve" smooth="yes"/>
			<point x="67" y="31"/>
			<point x="132" y="-88"/>
		</contour>
	</outline>
</glyph>
<glyph name="asterisk" format="2">
	<unicode hex="002A"/>
	<advance width="475"/>
	<outline>
		<contour>
			<point x="223" y="699" type="curve" smooth="yes"/>
			<point x="223" y="675"/>
			<point x="241" y="632"/>
			<point x="289" y="530" type="curve"/>
			<point x="305" y="532" type="line"/>
			<point x="314" y="648"/>
			<point x="314" y="686"/>
			<point x="311" y="704" type="curve" smooth="yes"/>
			<point x="307" y="730"/>
			<point x="291" y="744"/>
			<point x="266" y="744" type="curve" smooth="yes"/>
			<point x="237" y="744"/>
			<point x="223" y="722"/>
		</contour>
		<contour>
			<point x="84" y="555" type="curve" smooth="yes"/>
			<point x="84" y="509"/>
			<point x="137" y="502"/>
			<point x="293" y="524" type="curve"/>
			<point x="296" y="540" type="line"/>
			<point x="186" y="584"/>
			<point x="154" y="597"/>
			<point x="128" y="597" type="curve" smooth="yes"/>
			<point x="101" y="597"/>
			<point x="84" y="578"/>
		</contour>
		<contour>
			<point x="176" y="374" type="curve" smooth="yes"/>
			<point x="176" y="349"/>
			<point x="195" y="335"/>
			<point x="216" y="335" type="curve" smooth="yes"/>
			<point x="255" y="335"/>
			<point x="273" y="383"/>
			<point x="303" y="527" type="curve"/>
			<point x="289" y="534" type="line"/>
			<point x="202" y="433"/>
			<point x="176" y="403"/>
		</contour>
		<contour>
			<point x="291" y="525" type="line"/>
			<point x="367" y="401"/>
			<point x="391" y="366"/>
			<point x="428" y="369" type="curve" smooth="yes"/>
			<point x="450" y="371"/>
			<point x="467" y="392"/>
			<point x="465" y="413" type="curve" smooth="yes"/>
			<point x="461" y="446"/>
			<point x="424" y="468"/>
			<point x="302" y="536" type="curve"/>
		</contour>
		<contour>
			<point x="450" y="653" type="curve" smooth="yes"/>
			<point x="419" y="653"/>
			<point x="385" y="622"/>
			<point x="294" y="537" type="curve"/>
			<point x="301" y="523" type="line"/>
			<point x="448" y="559"/>
			<point x="491" y="575"/>
			<point x="491" y="612" type="curve" smooth="yes"/>
			<point x="491" y="639"/>
			<point x="473" y="653"/>
		</contour>
	</outline>
</glyph>
<glyph name="plus" format="2">
	<unicode hex="002B"/>
	<advance width="545"/>
	<outline>
		<contour>
			<point x="241" y="84" type="line"/>
			<point x="317" y="84" type="line"/>
			<point x="317" y="563" type="line"/>
			<point x="241" y="563" type="line"/>
		</contour>
		<contour>
			<point x="509" y="289" type="line"/>
			<point x="509" y="361" type="line"/>
			<point x="49" y="361" type="line"/>
			<point x="49" y="289" type="line"/>
		</contour>
	</outline>
</glyph>
<glyph name="comma" format="2">
	<unicode hex="002C"/>
	<advance width="305"/>
	<outline>
		<contour>
			<point x="193" y="68" type="curve" smooth="yes"/>
			<point x="193" y="88"/>
			<point x="190" y="103"/>
			<point x="186" y="118" type="curve"/>
			<point x="170" y="133"/>
			<point x="152" y="140"/>
			<point x="126" y="140" type="curve" smooth="yes"/>
			<point x="78" y="140"/>
			<point x="45" y="106"/>
			<point x="45" y="60" type="curve" smooth="yes"/>
			<point x="45" y="24"/>
			<point x="65" y="1"/>
			<point x="98" y="-18" type="curve" smooth="yes"/>
			<point x="135" y="-38" type="line"/>
			<point x="125" y="2" type="line"/>
			<point x="96" y="-61"/>
			<point x="58" y="-97"/>
			<point x="-20" y="-126" type="curve"/>
			<point x="0" y="-170" type="line"/>
			<point x="110" y="-134"/>
			<point x="193" y="-52"/>
		</contour>
	</outline>
</glyph>
<glyph name="period" format="2">
	<unicode hex="002E"/>
	<advance width="308"/>
	<outline>
		<contour>
			<point x="112" y="-12" type="curve" smooth="yes"/>
			<point x="160" y="-12"/>
			<point x="198" y="25"/>
			<point x="198" y="73" type="curve" smooth="yes"/>
			<point x="198" y="111"/>
			<point x="170" y="142"/>
			<point x="127" y="142" type="curve" smooth="yes"/>
			<point x="79" y="142"/>
			<point x="41" y="104"/>
			<point x="41" y="56" type="curve" smooth="yes"/>
			<point x="41" y="18"/>
			<point x="70" y="-12"/>
		</contour>
	</outline>
</glyph>
<glyph name="one" format="2">
	<unicode hex="0031"/>
	<advance width="547"/>
	<outline>
		<contour>
			<point x="42" y="0" type="line"/>
			<point x="430" y="0" type="line"/>
			<point x="440" y="49" type="line"/>
			<point x="274" y="60" type="line"/>
			<point x="213" y="60" type="line"/>
			<point x="51" y="49" type="line"/>
		</contour>
		<contour>
			<point x="173" y="0" type="line"/>
			<point x="290" y="0" type="line"/>
			<point x="304" y="70"/>
			<point x="317" y="141"/>
			<point x="332" y="211" type="curve" smooth="yes"/>
			<point x="390" y="498" type="line"/>
			<point x="422" y="641" type="line"/>
			<point x="402" y="647" type="line"/>
			<point x="170" y="590" type="line"/>
			<point x="159" y="542" type="line"/>
			<point x="323" y="555" type="line"/>
			<point x="293" y="588" type="line"/>
		</contour>
	</outline>
</glyph>
<glyph name="less" format="2">
	<unicode hex="003C"/>
	<advance width="545"/>
	<outline>
		<contour>
			<point x="67" y="296" type="line"/>
			<point x="452" y="85" type="line"/>
			<point x="489" y="154" type="line"/>
			<point x="118" y="344" type="line"/>
			<point x="118" y="307" type="line"/>
			<point x="489" y="498" type="line"/>
			<point x="452" y="567" type="line"/>
			<point x="67" y="356" type="line"/>
		</contour>
	</outline>
</glyph>
<glyph name="question" format="2">
	<unicode hex="003F"/>
	<advance width="451"/>
	<outline>
		<contour>
			<point x="113" y="192" type="curve"/>
			<point x="157" y="188" type="line"/>
			<point x="166" y="246"/>
			<point x="180" y="269"/>
			<point x="214" y="294" type="curve" smooth="yes"/>
			<point x="232" y="308"/>
			<point x="259" y="324"/>
			<point x="327" y="362" type="curve" smooth="yes"/>
			<point x="425" y="417"/>
			<point x="470" y="469"/>
			<point x="470" y="549" type="curve" smooth="yes"/>
			<point x="470" y="637"/>
			<point x="392" y="680"/>
			<point x="294" y="680" type="curve" smooth="yes"/>
			<point x="190" y="680"/>
			<point x="133" y="629"/>
			<point x="115" y="570" type="curve"/>
			<point x="116" y="542"/>
			<point x="136" y="521"/>
			<point x="166" y="521" type="curve" smooth="yes"/>
			<point x="197" y="521"/>
			<point x="218" y="534"/>
			<point x="232" y="569" type="curve" smooth="yes"/>
			<point x="267" y="656" type="line"/>
			<point x="205" y="627" type="line"/>
			<point x="224" y="632"/>
			<point x="248" y="637"/>
			<point x="283" y="637" type="curve" smooth="yes"/>
			<point x="349" y="637"/>
			<point x="380" y="609"/>
			<point x="380" y="564" type="curve" smooth="yes"/>
			<point x="380" y="522"/>
			<point x="355" y="488"/>
			<point x="274" y="444" type="curve" smooth="yes"/>
			<point x="212" y="408"/>
			<point x="190" y="392"/>
			<point x="170" y="370" type="curve" smooth="yes"/>
			<point x="125" y="333"/>
			<point x="113" y="288"/>
		</contour>
		<contour>
			<point x="48" y="51" type="curve" smooth="yes"/>
			<point x="48" y="15"/>
			<point x="74" y="-13"/>
			<point x="115" y="-13" type="curve" smooth="yes"/>
			<point x="158" y="-13"/>
			<point x="194" y="23"/>
			<point x="194" y="67" type="curve" smooth="yes"/>
			<point x="194" y="103"/>
			<point x="168" y="132"/>
			<point x="127" y="132" type="curve" smooth="yes"/>
			<point x="84" y="132"/>
			<point x="48" y="96"/>
		</contour>
	</outline>
</glyph>
<glyph name="at" format="2">
	<unicode hex="0040"/>
	<advance width="884"/>
	<outline>
		<contour>
			<point x="329" y="40" type="curve" smooth="yes"/>
			<point x="390" y="40"/>
			<point x="452" y="94"/>
			<point x="500" y="163" type="curve"/>
			<point x="526" y="163" type="line"/>
			<point x="513" y="206" type="line"/>
			<point x="459" y="145"/>
			<point x="426" y="120"/>
			<point x="390" y="120" type="curve" smooth="yes"/>
			<point x="357" y="120"/>
			<point x="336" y="145"/>
			<point x="336" y="200" type="curve" smooth="yes"/>
			<point x="336" y="324"/>
			<point x="419" y="429"/>
			<point x="493" y="429" type="curve" smooth="yes"/>
			<point x="526" y="429"/>
			<point x="552" y="416"/>
			<point x="574" y="400" type="curve"/>
			<point x="605" y="435" type="line"/>
			<point x="584" y="468"/>
			<point x="559" y="493"/>
			<point x="516" y="493" type="curve" smooth="yes"/>
			<point x="395" y="493"/>
			<point x="233" y="324"/>
			<point x="233" y="159" type="curve" smooth="yes"/>
			<point x="233" y="76"/>
			<point x="277" y="40"/>
		</contour>
		<contour>
			<point x="578" y="40" type="curve" smooth="yes"/>
			<point x="692" y="40"/>
			<point x="841" y="157"/>
			<point x="841" y="358" type="curve" smooth="yes"/>
			<point x="841" y="525"/>
			<point x="739" y="657"/>
			<point x="530" y="657" type="curve" smooth="yes"/>
			<point x="252" y="657"/>
			<point x="47" y="434"/>
			<point x="47" y="160" type="curve" smooth="yes"/>
			<point x="47" y="-27"/>
			<point x="175" y="-155"/>
			<point x="378" y="-155" type="curve" smooth="yes"/>
			<point x="450" y="-155"/>
			<point x="519" y="-139"/>
			<point x="574" y="-113" type="curve"/>
			<point x="562" y="-72" type="line"/>
			<point x="516" y="-88"/>
			<point x="462" y="-99"/>
			<point x="401" y="-99" type="curve" smooth="yes"/>
			<point x="224" y="-99"/>
			<point x="119" y="0"/>
			<point x="119" y="175" type="curve" smooth="yes"/>
			<point x="119" y="409"/>
			<point x="293" y="609"/>
			<point x="524" y="609" type="curve" smooth="yes"/>
			<point x="684" y="609"/>
			<point x="777" y="510"/>
			<point x="777" y="357" type="curve" smooth="yes"/>
			<point x="777" y="193"/>
			<point x="675" y="107"/>
			<point x="618" y="107" type="curve" smooth="yes"/>
			<point x="583" y="107"/>
			<point x="574" y="126"/>
			<point x="586" y="177" type="curve" smooth="yes"/>
			<point x="656" y="491" type="line"/>
			<point x="632" y="497" type="line"/>
			<point x="544" y="443" type="line"/>
			<point x="485" y="174" type="line" smooth="yes"/>
			<point x="467" y="92"/>
			<point x="498" y="40"/>
		</contour>
	</outline>
</glyph>
<glyph name="C" format="2">
	<unicode hex="0043"/>
	<advance width="611"/>
	<outline>
		<contour>
			<point x="338" y="-17" type="curve" smooth="yes"/>
			<point x="424" y="-17"/>
			<point x="484" y="6"/>
			<point x="530" y="28" type="curve"/>
			<point x="556" y="181" type="line"/>
			<point x="487" y="181" type="line"/>
			<point x="434" y="28" type="line"/>
			<point x="498" y="75" type="line"/>
			<point x="457" y="55"/>
			<point x="415" y="41"/>
			<point x="369" y="41" type="curve" smooth="yes"/>
			<point x="248" y="41"/>
			<point x="170" y="125"/>
			<point x="170" y="274" type="curve" smooth="yes"/>
			<point x="170" y="462"/>
			<point x="280" y="622"/>
			<point x="436" y="622" type="curve" smooth="yes"/>
			<point x="488" y="622"/>
			<point x="533" y="606"/>
			<point x="568" y="578" type="curve"/>
			<point x="520" y="626" type="line"/>
			<point x="524" y="482" type="line"/>
			<point x="592" y="482" type="line"/>
			<point x="615" y="631" type="line"/>
			<point x="565" y="661"/>
			<point x="505" y="680"/>
			<point x="432" y="680" type="curve" smooth="yes"/>
			<point x="207" y="680"/>
			<point x="43" y="500"/>
			<point x="43" y="272" type="curve" smooth="yes"/>
			<point x="43" y="91"/>
			<point x="157" y="-17"/>
		</contour>
	</outline>
	<anchor name="aboveUC" x="430" y="684"/>
	<anchor name="baseLC" x="341" y="0"/>
	<anchor name="belowLC" x="334" y="-20"/>
</glyph>
<glyph name="E" format="2">
	<unicode hex="0045"/>
	<advance width="608"/>
	<outline>
		<contour>
			<point x="-5" y="0" type="line"/>
			<point x="135" y="0" type="line"/>
			<point x="143" y="63" type="line"/>
			<point x="131" y="63" type="line"/>
			<point x="6" y="53" type="line"/>
		</contour>
		<contour>
			<point x="78" y="0" type="line"/>
			<point x="203" y="0" type="line"/>
			<point x="220" y="102"/>
			<point x="238" y="205"/>
			<point x="257" y="308" type="curve" smooth="yes"/>
			<point x="323" y="664" type="line"/>
			<point x="198" y="664" type="line"/>
			<point x="181" y="561"/>
			<point x="163" y="459"/>
			<point x="144" y="357" type="curve" smooth="yes"/>
		</contour>
		<contour>
			<point x="102" y="610" type="line"/>
			<point x="228" y="600" type="line"/>
			<point x="242" y="600" type="line"/>
			<point x="250" y="664" type="line"/>
			<point x="112" y="664" type="line"/>
		</contour>
		<contour>
			<point x="149" y="0" type="line"/>
			<point x="512" y="0" type="line"/>
			<point x="552" y="178" type="line"/>
			<point x="485" y="178" type="line"/>
			<point x="418" y="7" type="line"/>
			<point x="491" y="57" type="line"/>
			<point x="156" y="57" type="line"/>
		</contour>
		<contour>
			<point x="202" y="312" type="line"/>
			<point x="416" y="312" type="line"/>
			<point x="423" y="367" type="line"/>
			<point x="209" y="367" type="line"/>
		</contour>
		<contour>
			<point x="258" y="606" type="line"/>
			<point x="548" y="606" type="line"/>
			<point x="503" y="653" type="line"/>
			<point x="505" y="488" type="line"/>
			<point x="571" y="488" type="line"/>
			<point x="597" y="664" type="line"/>
			<point x="265" y="664" type="line"/>
		</contour>
		<contour>
			<point x="383" y="227" type="line"/>
			<point x="436" y="227" type="line"/>
			<point x="478" y="453" type="line"/>
			<point x="425" y="453" type="line"/>
			<point x="388" y="352" type="line"/>
			<point x="384" y="331" type="line"/>
		</contour>
	</outline>
	<anchor name="aboveUC" x="383" y="684"/>
	<anchor name="belowLC" x="283" y="-20"/>
	<anchor name="ogonek" x="413" y="0"/>
</glyph>
<glyph name="G" format="2">
	<unicode hex="0047"/>
	<advance width="669"/>
	<outline>
		<contour>
			<point x="43" y="269" type="curve" smooth="yes"/>
			<point x="43" y="93"/>
			<point x="157" y="-16"/>
			<point x="348" y="-16" type="curve" smooth="yes"/>
			<point x="431" y="-16"/>
			<point x="490" y="3"/>
			<point x="543" y="27" type="curve"/>
			<point x="598" y="325" type="line"/>
			<point x="477" y="325" type="line"/>
			<point x="465" y="247"/>
			<point x="452" y="168"/>
			<point x="438" y="90" type="curve" smooth="yes"/>
			<point x="427" y="21" type="line"/>
			<point x="494" y="63" type="line"/>
			<point x="454" y="48"/>
			<point x="420" y="40"/>
			<point x="376" y="40" type="curve" smooth="yes"/>
			<point x="254" y="40"/>
			<point x="171" y="124"/>
			<point x="171" y="276" type="curve" smooth="yes"/>
			<point x="171" y="460"/>
			<point x="277" y="622"/>
			<point x="444" y="622" type="curve" smooth="yes"/>
			<point x="501" y="622"/>
			<point x="550" y="609"/>
			<point x="586" y="582" type="curve"/>
			<point x="533" y="628" type="line"/>
			<point x="540" y="479" type="line"/>
			<point x="607" y="479" type="line"/>
			<point x="629" y="630" type="line"/>
			<point x="577" y="663"/>
			<point x="515" y="680"/>
			<point x="436" y="680" type="curve" smooth="yes"/>
			<point x="209" y="680"/>
			<point x="43" y="504"/>
		</contour>
		<contour>
			<point x="372" y="272" type="line"/>
			<point x="494" y="261" type="line"/>
			<point x="542" y="261" type="line"/>
			<point x="656" y="272" type="line"/>
			<point x="666" y="325" type="line"/>
			<point x="381" y="325" type="line"/>
		</contour>
	</outline>
	<anchor name="aboveUC" x="432" y="684"/>
	<anchor name="belowLC" x="344" y="-20"/>
</glyph>
<glyph name="H" format="2">
	<unicode hex="0048"/>
	<advance width="771"/>
	<outline>
		<contour>
			<point x="-4" y="0" type="line"/>
			<point x="289" y="0" type="line"/>
			<point x="299" y="53" type="line"/>
			<point x="171" y="63" type="line"/>
			<point x="138" y="63" type="line"/>
			<point x="6" y="53" type="line"/>
		</contour>
		<contour>
			<point x="78" y="0" type="line"/>
			<point x="203" y="0" type="line"/>
			<point x="220" y="102"/>
			<point x="238" y="205"/>
			<point x="257" y="308" type="curve" smooth="yes"/>
			<point x="323" y="664" type="line"/>
			<point x="198" y="664" type="line"/>
			<point x="181" y="561"/>
			<point x="163" y="459"/>
			<point x="144" y="357" type="curve" smooth="yes"/>
		</contour>
		<contour>
			<point x="102" y="610" type="line"/>
			<point x="233" y="600" type="line"/>
			<point x="266" y="600" type="line"/>
			<point x="394" y="610" type="line"/>
			<point x="405" y="664" type="line"/>
			<point x="112" y="664" type="line"/>
		</contour>
		<contour>
			<point x="199" y="312" type="line"/>
			<point x="599" y="312" type="line"/>
			<point x="599" y="367" type="line"/>
			<point x="199" y="367" type="line"/>
		</contour>
		<contour>
			<point x="393" y="0" type="line"/>
			<point x="685" y="0" type="line"/>
			<point x="695" y="53" type="line"/>
			<point x="567" y="63" type="line"/>
			<point x="534" y="63" type="line"/>
			<point x="403" y="53" type="line"/>
		</contour>
		<contour>
			<point x="474" y="0" type="line"/>
			<point x="598" y="0" type="line"/>
			<point x="615" y="102"/>
			<point x="634" y="205"/>
			<point x="653" y="308" type="curve" smooth="yes"/>
			<point x="719" y="664" type="line"/>
			<point x="594" y="664" type="line"/>
			<point x="577" y="561"/>
			<point x="559" y="459"/>
			<point x="540" y="357" type="curve" smooth="yes"/>
		</contour>
		<contour>
			<point x="499" y="610" type="line"/>
			<point x="628" y="600" type="line"/>
			<point x="662" y="600" type="line"/>
			<point x="791" y="610" type="line"/>
			<point x="801" y="664" type="line"/>
			<point x="509" y="664" type="line"/>
		</contour>
	</outline>
	<anchor name="aboveUC" x="454" y="684"/>
	<anchor name="belowLC" x="338" y="-20"/>
	<note>
		skew 10 scale 120
	</note>
</glyph>
<glyph name="J" format="2">
	<unicode hex="004A"/>
	<advance width="418"/>
	<outline>
		<contour>
			<point x="-47" y="9" type="curve"/>
			<point x="-37" y="-30"/>
			<point x="2" y="-49"/>
			<point x="54" y="-49" type="curve" smooth="yes"/>
			<point x="141" y="-49"/>
			<point x="215" y="11"/>
			<point x="258" y="93" type="curve" smooth="yes"/>
			<point x="288" y="146"/>
			<point x="305" y="217"/>
			<point x="326" y="335" type="curve" smooth="yes"/>
			<point x="383" y="664" type="line"/>
			<point x="258" y="664" type="line"/>
			<point x="241" y="557"/>
			<point x="226" y="462"/>
			<point x="211" y="373" type="curve" smooth="yes"/>
			<point x="194" y="270"/>
			<point x="186" y="207"/>
			<point x="175" y="143" type="curve" smooth="yes"/>
			<point x="163" y="75"/>
			<point x="140" y="28"/>
			<point x="110" y="-4" type="curve"/>
			<point x="117" y="-7" type="line"/>
			<point x="119" y="-7" type="line"/>
			<point x="132" y="-6" type="line"/>
			<point x="83" y="47"/>
			<point x="59" y="64"/>
			<point x="25" y="64" type="curve" smooth="yes"/>
			<point x="-14" y="64"/>
			<point x="-40" y="41"/>
		</contour>
		<contour>
			<point x="152" y="610" type="line"/>
			<point x="287" y="600" type="line"/>
			<point x="324" y="600" type="line"/>
			<point x="456" y="610" type="line"/>
			<point x="466" y="664" type="line"/>
			<point x="162" y="664" type="line"/>
		</contour>
	</outline>
	<anchor name="aboveUC" x="312" y="684"/>
	<anchor name="belowLC" x="124" y="-69"/>
</glyph>
<glyph name="M" format="2">
	<unicode hex="004D"/>
	<advance width="925"/>
	<outline>
		<contour>
			<point x="-19" y="0" type="line"/>
			<point x="222" y="0" type="line"/>
			<point x="232" y="53" type="line"/>
			<point x="123" y="63" type="line"/>
			<point x="95" y="63" type="line"/>
			<point x="-8" y="53" type="line"/>
		</contour>
		<contour>
			<point x="69" y="0" type="line"/>
			<point x="127" y="0" type="line"/>
			<point x="199" y="313" type="line"/>
			<point x="273" y="652" type="line"/>
			<point x="222" y="652" type="line"/>
		</contour>
		<contour>
			<point x="352" y="0" type="line"/>
			<point x="410" y="0" type="line"/>
			<point x="690" y="496" type="line"/>
			<point x="736" y="589" type="line"/>
			<point x="773" y="589" type="line"/>
			<point x="773" y="664" type="line"/>
			<point x="720" y="664" type="line"/>
			<point x="474" y="225" type="line"/>
			<point x="429" y="130" type="line"/>
			<point x="445" y="130" type="line"/>
			<point x="353" y="664" type="line"/>
			<point x="138" y="664" type="line"/>
			<point x="128" y="610" type="line"/>
			<point x="231" y="603" type="line"/>
			<point x="235" y="575" type="line"/>
			<point x="247" y="565" type="line"/>
		</contour>
		<contour>
			<point x="554" y="0" type="line"/>
			<point x="843" y="0" type="line"/>
			<point x="851" y="54" type="line"/>
			<point x="723" y="64" type="line"/>
			<point x="692" y="64" type="line"/>
			<point x="563" y="54" type="line"/>
		</contour>
		<contour>
			<point x="635" y="0" type="line"/>
			<point x="758" y="0" type="line"/>
			<point x="771" y="104"/>
			<point x="785" y="209"/>
			<point x="799" y="313" type="curve" smooth="yes"/>
			<point x="849" y="664" type="line"/>
			<point x="753" y="664" type="line"/>
			<point x="724" y="614" type="line"/>
		</contour>
		<contour>
			<point x="780" y="600" type="line"/>
			<point x="804" y="600" type="line"/>
			<point x="926" y="610" type="line"/>
			<point x="934" y="664" type="line"/>
			<point x="784" y="664" type="line"/>
		</contour>
	</outline>
	<anchor name="aboveUC" x="529" y="684"/>
	<anchor name="belowLC" x="378" y="-20"/>
</glyph>
<glyph name="N" format="2">
	<unicode hex="004E"/>
	<advance width="727"/>
	<outline>
		<contour>
			<point x="-10" y="0" type="line"/>
			<point x="237" y="0" type="line"/>
			<point x="246" y="53" type="line"/>
			<point x="127" y="63" type="line"/>
			<point x="103" y="63" type="line"/>
			<point x="0" y="53" type="line"/>
		</contour>
		<contour>
			<point x="71" y="0" type="line"/>
			<point x="133" y="0" type="line"/>
			<point x="191" y="318" type="line"/>
			<point x="246" y="653" type="line"/>
			<point x="194" y="653" type="line"/>
		</contour>
		<contour>
			<point x="517" y="610" type="line"/>
			<point x="642" y="600" type="line"/>
			<point x="665" y="600" type="line"/>
			<point x="765" y="610" type="line"/>
			<point x="775" y="664" type="line"/>
			<point x="527" y="664" type="line"/>
		</contour>
		<contour>
			<point x="584" y="137" type="line"/>
			<point x="556" y="137" type="line"/>
			<point x="305" y="664" type="line"/>
			<point x="106" y="664" type="line"/>
			<point x="96" y="610" type="line"/>
			<point x="193" y="604" type="line"/>
			<point x="205" y="568" type="line"/>
			<point x="217" y="562" type="line"/>
			<point x="491" y="-4" type="line"/>
			<point x="571" y="-4" type="line"/>
			<point x="695" y="664" type="line"/>
			<point x="633" y="664" type="line"/>
			<point x="577" y="352" type="line"/>
			<point x="537" y="86" type="line"/>
		</contour>
	</outline>
	<anchor name="aboveUC" x="420" y="684"/>
	<anchor name="belowLC" x="339" y="-20"/>
</glyph>
<glyph name="O" format="2">
	<unicode hex="004F"/>
	<advance width="736"/>
	<outline>
		<contour>
			<point x="323" y="-16" type="curve" smooth="yes"/>
			<point x="540" y="-16"/>
			<point x="696" y="197"/>
			<point x="696" y="417" type="curve" smooth="yes"/>
			<point x="696" y="592"/>
			<point x="590" y="680"/>
			<point x="437" y="680" type="curve" smooth="yes"/>
			<point x="219" y="680"/>
			<point x="64" y="467"/>
			<point x="64" y="248" type="curve" smooth="yes"/>
			<point x="64" y="73"/>
			<point x="169" y="-16"/>
		</contour>
		<contour>
			<point x="330" y="50" type="curve" smooth="yes"/>
			<point x="245" y="50"/>
			<point x="199" y="102"/>
			<point x="199" y="229" type="curve" smooth="yes"/>
			<point x="199" y="418"/>
			<point x="296" y="614"/>
			<point x="430" y="614" type="curve" smooth="yes"/>
			<point x="514" y="614"/>
			<point x="560" y="563"/>
			<point x="560" y="436" type="curve" smooth="yes"/>
			<point x="560" y="247"/>
			<point x="464" y="50"/>
		</contour>
	</outline>
	<anchor name="aboveUC" x="438" y="684"/>
	<anchor name="belowLC" x="321" y="-20"/>
	<anchor name="ogonek" x="419" y="0"/>
	<anchor name="hornLC" x="576" y="573"/>
</glyph>
<glyph name="P" format="2">
	<unicode hex="0050"/>
	<advance width="589"/>
	<outline>
		<contour>
			<point x="-5" y="0" type="line"/>
			<point x="300" y="0" type="line"/>
			<point x="310" y="53" type="line"/>
			<point x="175" y="63" type="line"/>
			<point x="137" y="63" type="line"/>
			<point x="6" y="53" type="line"/>
		</contour>
		<contour>
			<point x="78" y="0" type="line"/>
			<point x="203" y="0" type="line"/>
			<point x="220" y="102"/>
			<point x="238" y="205"/>
			<point x="257" y="308" type="curve" smooth="yes"/>
			<point x="323" y="664" type="line"/>
			<point x="198" y="664" type="line"/>
			<point x="181" y="561"/>
			<point x="163" y="459"/>
			<point x="144" y="357" type="curve" smooth="yes"/>
		</contour>
		<contour>
			<point x="102" y="610" type="line"/>
			<point x="231" y="600" type="line"/>
			<point x="250" y="600" type="line"/>
			<point x="258" y="664" type="line"/>
			<point x="112" y="664" type="line"/>
		</contour>
		<contour>
			<point x="188" y="255" type="line"/>
			<point x="301" y="255" type="line" smooth="yes"/>
			<point x="498" y="255"/>
			<point x="600" y="358"/>
			<point x="600" y="484" type="curve" smooth="yes"/>
			<point x="600" y="593"/>
			<point x="521" y="664"/>
			<point x="357" y="664" type="curve" smooth="yes"/>
			<point x="269" y="664" type="line"/>
			<point x="262" y="607" type="line"/>
			<point x="346" y="607" type="line" smooth="yes"/>
			<point x="430" y="607"/>
			<point x="476" y="565"/>
			<point x="476" y="483" type="curve" smooth="yes"/>
			<point x="476" y="379"/>
			<point x="414" y="308"/>
			<point x="301" y="308" type="curve" smooth="yes"/>
			<point x="194" y="308" type="line"/>
		</contour>
	</outline>
	<anchor name="aboveUC" x="359" y="684"/>
	<anchor name="belowLC" x="143" y="-20"/>
</glyph>
<glyph name="Q" format="2">
	<unicode hex="0051"/>
	<advance width="688"/>
	<outline>
		<contour>
			<point x="464" y="-237" type="curve" smooth="yes"/>
			<point x="539" y="-237"/>
			<point x="592" y="-210"/>
			<point x="635" y="-177" type="curve"/>
			<point x="617" y="-137" type="line"/>
			<point x="583" y="-153"/>
			<point x="549" y="-162"/>
			<point x="499" y="-162" type="curve" smooth="yes"/>
			<point x="393" y="-162"/>
			<point x="333" y="-102"/>
			<point x="342" y="24" type="curve"/>
			<point x="232" y="24" type="line"/>
			<point x="218" y="-145"/>
			<point x="310" y="-237"/>
		</contour>
		<component base="O"/>
	</outline>
	<anchor name="aboveUC" x="408" y="684"/>
</glyph>
<glyph name="R" format="2">
	<unicode hex="0052"/>
	<advance width="665"/>
	<outline>
		<contour>
			<point x="-5" y="0" type="line"/>
			<point x="294" y="0" type="line"/>
			<point x="304" y="53" type="line"/>
			<point x="170" y="63" type="line"/>
			<point x="137" y="63" type="line"/>
			<point x="6" y="53" type="line"/>
		</contour>
		<contour>
			<point x="78" y="0" type="line"/>
			<point x="203" y="0" type="line"/>
			<point x="220" y="102"/>
			<point x="238" y="205"/>
			<point x="257" y="308" type="curve" smooth="yes"/>
			<point x="323" y="664" type="line"/>
			<point x="198" y="664" type="line"/>
			<point x="181" y="561"/>
			<point x="163" y="459"/>
			<point x="144" y="357" type="curve" smooth="yes"/>
		</contour>
		<contour>
			<point x="102" y="610" type="line"/>
			<point x="231" y="600" type="line"/>
			<point x="256" y="600" type="line"/>
			<point x="261" y="664" type="line"/>
			<point x="112" y="664" type="line"/>
		</contour>
		<contour>
			<point x="545" y="-11" type="curve" smooth="yes"/>
			<point x="582" y="-11"/>
			<point x="605" y="-7"/>
			<point x="632" y="0" type="curve"/>
			<point x="641" y="51" type="line"/>
			<point x="477" y="69" type="line"/>
			<point x="561" y="29" type="line"/>
			<point x="511" y="189" type="line" smooth="yes"/>
			<point x="484" y="281"/>
			<point x="459" y="318"/>
			<point x="350" y="330" type="curve"/>
			<point x="354" y="324" type="line"/>
			<point x="528" y="331"/>
			<point x="610" y="409"/>
			<point x="610" y="508" type="curve" smooth="yes"/>
			<point x="610" y="606"/>
			<point x="532" y="664"/>
			<point x="396" y="664" type="curve" smooth="yes"/>
			<point x="265" y="664" type="line"/>
			<point x="261" y="607" type="line"/>
			<point x="374" y="607" type="line" smooth="yes"/>
			<point x="448" y="607"/>
			<point x="487" y="572"/>
			<point x="487" y="506" type="curve" smooth="yes"/>
			<point x="487" y="424"/>
			<point x="439" y="359"/>
			<point x="321" y="358" type="curve" smooth="yes"/>
			<point x="208" y="358" type="line"/>
			<point x="202" y="305" type="line"/>
			<point x="289" y="305" type="line" smooth="yes"/>
			<point x="345" y="305"/>
			<point x="363" y="283"/>
			<point x="382" y="214" type="curve" smooth="yes"/>
			<point x="418" y="85" type="line" smooth="yes"/>
			<point x="435" y="13"/>
			<point x="472" y="-11"/>
		</contour>
	</outline>
	<anchor name="aboveUC" x="365" y="684"/>
	<anchor name="belowLC" x="333" y="-20"/>
</glyph>
<glyph name="T" format="2">
	<unicode hex="0054"/>
	<advance width="600"/>
	<outline>
		<contour>
			<point x="62" y="479" type="line"/>
			<point x="128" y="479" type="line"/>
			<point x="196" y="656" type="line"/>
			<point x="124" y="606" type="line"/>
			<point x="599" y="606" type="line"/>
			<point x="553" y="653" type="line"/>
			<point x="553" y="479" type="line"/>
			<point x="619" y="479" type="line"/>
			<point x="649" y="664" type="line"/>
			<point x="100" y="664" type="line"/>
		</contour>
		<contour>
			<point x="98" y="0" type="line"/>
			<point x="414" y="0" type="line"/>
			<point x="424" y="53" type="line"/>
			<point x="286" y="63" type="line"/>
			<point x="248" y="63" type="line"/>
			<point x="108" y="53" type="line"/>
		</contour>
		<contour>
			<point x="192" y="0" type="line"/>
			<point x="317" y="0" type="line"/>
			<point x="334" y="102"/>
			<point x="352" y="205"/>
			<point x="371" y="308" type="curve" smooth="yes"/>
			<point x="437" y="664" type="line"/>
			<point x="312" y="664" type="line"/>
			<point x="295" y="561"/>
			<point x="277" y="459"/>
			<point x="258" y="357" type="curve" smooth="yes"/>
		</contour>
	</outline>
	<anchor name="aboveUC" x="372" y="684"/>
	<anchor name="baseLC" x="257" y="0"/>
	<anchor name="belowLC" x="260" y="-20"/>
</glyph>
<glyph name="U" format="2">
	<unicode hex="0055"/>
	<advance width="714"/>
	<outline>
		<contour>
			<point x="216" y="600" type="line"/>
			<point x="249" y="600" type="line"/>
			<point x="381" y="610" type="line"/>
			<point x="391" y="664" type="line"/>
			<point x="96" y="664" type="line"/>
			<point x="86" y="610" type="line"/>
		</contour>
		<contour>
			<point x="322" y="-17" type="curve" smooth="yes"/>
			<point x="477" y="-17"/>
			<point x="575" y="73"/>
			<point x="611" y="269" type="curve" smooth="yes"/>
			<point x="684" y="664" type="line"/>
			<point x="621" y="664" type="line"/>
			<point x="549" y="278" type="line" smooth="yes"/>
			<point x="520" y="119"/>
			<point x="463" y="59"/>
			<point x="354" y="59" type="curve" smooth="yes"/>
			<point x="271" y="59"/>
			<point x="227" y="109"/>
			<point x="227" y="184" type="curve" smooth="yes"/>
			<point x="227" y="224"/>
			<point x="232" y="253"/>
			<point x="239" y="288" type="curve" smooth="yes"/>
			<point x="308" y="664" type="line"/>
			<point x="180" y="664" type="line"/>
			<point x="164" y="562"/>
			<point x="145" y="461"/>
			<point x="127" y="360" type="curve" smooth="yes"/>
			<point x="114" y="287" type="line" smooth="yes"/>
			<point x="107" y="249"/>
			<point x="102" y="214"/>
			<point x="102" y="182" type="curve" smooth="yes"/>
			<point x="102" y="55"/>
			<point x="182" y="-17"/>
		</contour>
		<contour>
			<point x="626" y="602" type="line"/>
			<point x="654" y="602" type="line"/>
			<point x="756" y="610" type="line"/>
			<point x="766" y="664" type="line"/>
			<point x="525" y="664" type="line"/>
			<point x="515" y="610" type="line"/>
		</contour>
	</outline>
	<anchor name="aboveUC" x="455" y="684"/>
	<anchor name="belowLC" x="322" y="-20"/>
	<anchor name="ogonek" x="416" y="0"/>
	<anchor name="hornLC" x="637" y="580"/>
</glyph>
<glyph name="V" format="2">
	<unicode hex="0056"/>
	<advance width="647"/>
	<outline>
		<contour>
			<point x="61" y="610" type="line"/>
			<point x="182" y="600" type="line"/>
			<point x="225" y="600" type="line"/>
			<point x="351" y="611" type="line"/>
			<point x="361" y="664" type="line"/>
			<point x="71" y="664" type="line"/>
		</contour>
		<contour>
			<point x="228" y="-4" type="line"/>
			<point x="310" y="-4" type="line"/>
			<point x="667" y="664" type="line"/>
			<point x="602" y="664" type="line"/>
			<point x="356" y="192" type="line"/>
			<point x="314" y="98" type="line"/>
			<point x="329" y="98" type="line"/>
			<point x="254" y="664" type="line"/>
			<point x="124" y="664" type="line"/>
		</contour>
		<contour>
			<point x="490" y="611" type="line"/>
			<point x="593" y="600" type="line"/>
			<point x="615" y="600" type="line"/>
			<point x="713" y="610" type="line"/>
			<point x="723" y="664" type="line"/>
			<point x="500" y="664" type="line"/>
		</contour>
	</outline>
	<anchor name="aboveUC" x="431" y="684"/>
	<anchor name="belowLC" x="278" y="-20"/>
</glyph>
<glyph name="W" format="2">
	<unicode hex="0057"/>
	<advance width="918"/>
	<outline>
		<contour>
			<point x="179" y="600" type="line"/>
			<point x="219" y="600" type="line"/>
			<point x="336" y="610" type="line"/>
			<point x="347" y="664" type="line"/>
			<point x="72" y="664" type="line"/>
			<point x="61" y="610" type="line"/>
		</contour>
		<contour>
			<point x="185" y="-4" type="line"/>
			<point x="269" y="-4" type="line"/>
			<point x="482" y="453" type="line"/>
			<point x="512" y="541" type="line"/>
			<point x="495" y="541" type="line"/>
			<point x="555" y="-4" type="line"/>
			<point x="639" y="-4" type="line"/>
			<point x="938" y="664" type="line"/>
			<point x="875" y="664" type="line"/>
			<point x="674" y="201" type="line"/>
			<point x="644" y="108" type="line"/>
			<point x="653" y="108" type="line"/>
			<point x="598" y="664" type="line"/>
			<point x="518" y="664" type="line"/>
			<point x="306" y="203" type="line"/>
			<point x="273" y="108" type="line"/>
			<point x="284" y="108" type="line"/>
			<point x="252" y="664" type="line"/>
			<point x="124" y="664" type="line"/>
		</contour>
		<contour>
			<point x="527" y="600" type="line"/>
			<point x="567" y="600" type="line"/>
			<point x="685" y="610" type="line"/>
			<point x="696" y="664" type="line"/>
			<point x="420" y="664" type="line"/>
			<point x="409" y="610" type="line"/>
		</contour>
		<contour>
			<point x="864" y="600" type="line"/>
			<point x="889" y="600" type="line"/>
			<point x="985" y="610" type="line"/>
			<point x="995" y="664" type="line"/>
			<point x="781" y="664" type="line"/>
			<point x="770" y="610" type="line"/>
		</contour>
	</outline>
	<anchor name="aboveUC" x="550" y="684"/>
	<anchor name="belowLC" x="412" y="-20"/>
</glyph>
<glyph name="X" format="2">
	<unicode hex="0058"/>
	<advance width="665"/>
	<outline>
		<contour>
			<point x="-17" y="0" type="line"/>
			<point x="213" y="0" type="line"/>
			<point x="223" y="53" type="line"/>
			<point x="123" y="63" type="line"/>
			<point x="98" y="63" type="line"/>
			<point x="-8" y="53" type="line"/>
		</contour>
		<contour>
			<point x="22" y="0" type="line"/>
			<point x="94" y="0" type="line"/>
			<point x="290" y="248" type="line"/>
			<point x="325" y="295" type="line"/>
			<point x="363" y="295" type="line"/>
			<point x="314" y="352" type="line"/>
		</contour>
		<contour>
			<point x="92" y="610" type="line"/>
			<point x="217" y="600" type="line"/>
			<point x="252" y="600" type="line"/>
			<point x="378" y="610" type="line"/>
			<point x="389" y="664" type="line"/>
			<point x="102" y="664" type="line"/>
		</contour>
		<contour>
			<point x="313" y="0" type="line"/>
			<point x="604" y="0" type="line"/>
			<point x="614" y="53" type="line"/>
			<point x="490" y="63" type="line"/>
			<point x="456" y="63" type="line"/>
			<point x="323" y="53" type="line"/>
		</contour>
		<contour>
			<point x="381" y="323" type="line"/>
			<point x="663" y="664" type="line"/>
			<point x="591" y="664" type="line"/>
			<point x="404" y="428" type="line"/>
			<point x="371" y="382" type="line"/>
			<point x="335" y="382" type="line"/>
		</contour>
		<contour>
			<point x="463" y="610" type="line"/>
			<point x="561" y="600" type="line"/>
			<point x="587" y="600" type="line"/>
			<point x="693" y="610" type="line"/>
			<point x="703" y="664" type="line"/>
			<point x="473" y="664" type="line"/>
		</contour>
		<contour>
			<point x="426" y="0" type="line"/>
			<point x="556" y="0" type="line"/>
			<point x="272" y="664" type="line"/>
			<point x="143" y="664" type="line"/>
		</contour>
	</outline>
	<anchor name="aboveUC" x="431" y="684"/>
	<anchor name="belowLC" x="269" y="-20"/>
</glyph>
<glyph name="Y" format="2">
	<unicode hex="0059"/>
	<advance width="599"/>
	<outline>
		<contour>
			<point x="60" y="610" type="line"/>
			<point x="188" y="600" type="line"/>
			<point x="228" y="600" type="line"/>
			<point x="349" y="610" type="line"/>
			<point x="359" y="664" type="line"/>
			<point x="71" y="664" type="line"/>
		</contour>
		<contour>
			<point x="104" y="0" type="line"/>
			<point x="419" y="0" type="line"/>
			<point x="430" y="53" type="line"/>
			<point x="291" y="63" type="line"/>
			<point x="253" y="63" type="line"/>
			<point x="114" y="53" type="line"/>
		</contour>
		<contour>
			<point x="256" y="240" type="line"/>
			<point x="349" y="240" type="line"/>
			<point x="629" y="664" type="line"/>
			<point x="564" y="664" type="line"/>
			<point x="376" y="370" type="line"/>
			<point x="345" y="312" type="line"/>
			<point x="353" y="312" type="line"/>
			<point x="249" y="664" type="line"/>
			<point x="114" y="664" type="line"/>
		</contour>
		<contour>
			<point x="197" y="0" type="line"/>
			<point x="322" y="0" type="line"/>
			<point x="339" y="103"/>
			<point x="358" y="207"/>
			<point x="377" y="310" type="curve"/>
			<point x="255" y="310" type="line"/>
		</contour>
		<contour>
			<point x="446" y="610" type="line"/>
			<point x="544" y="600" type="line"/>
			<point x="572" y="600" type="line"/>
			<point x="666" y="610" type="line"/>
			<point x="676" y="664" type="line"/>
			<point x="456" y="664" type="line"/>
		</contour>
	</outline>
	<anchor name="aboveUC" x="405" y="684"/>
	<anchor name="belowLC" x="256" y="-20"/>
</glyph>
<glyph name="Z" format="2">
	<unicode hex="005A"/>
	<advance width="563"/>
	<outline>
		<contour>
			<point x="-9" y="0" type="line"/>
			<point x="134" y="0" type="line"/>
			<point x="134" y="44" type="line"/>
			<point x="582" y="616" type="line"/>
			<point x="592" y="664" type="line"/>
			<point x="448" y="664" type="line"/>
			<point x="448" y="619" type="line"/>
			<point x="1" y="47" type="line"/>
		</contour>
		<contour>
			<point x="72" y="479" type="line"/>
			<point x="141" y="479" type="line"/>
			<point x="210" y="656" type="line"/>
			<point x="134" y="607" type="line"/>
			<point x="525" y="607" type="line"/>
			<point x="532" y="664" type="line"/>
			<point x="110" y="664" type="line"/>
		</contour>
		<contour>
			<point x="54" y="0" type="line"/>
			<point x="489" y="0" type="line"/>
			<point x="527" y="184" type="line"/>
			<point x="458" y="184" type="line"/>
			<point x="388" y="7" type="line"/>
			<point x="464" y="56" type="line"/>
			<point x="61" y="56" type="line"/>
		</contour>
	</outline>
	<anchor name="aboveUC" x="354" y="684"/>
	<anchor name="belowLC" x="251" y="-20"/>
</glyph>
<glyph name="bracketleft" format="2">
	<unicode hex="005B"/>
	<advance width="338"/>
	<outline>
		<contour>
			<point x="20" y="-159" type="line"/>
			<point x="117" y="-159" type="line"/>
			<point x="135" y="-54"/>
			<point x="156" y="53"/>
			<point x="176" y="158" type="curve" smooth="yes"/>
			<point x="282" y="715" type="line"/>
			<point x="185" y="715" type="line"/>
			<point x="167" y="610"/>
			<point x="146" y="503"/>
			<point x="126" y="398" type="curve" smooth="yes"/>
		</contour>
		<contour>
			<point x="70" y="-159" type="line"/>
			<point x="224" y="-159" type="line"/>
			<point x="234" y="-104" type="line"/>
			<point x="98" y="-94" type="line"/>
			<point x="83" y="-94" type="line"/>
		</contour>
		<contour>
			<point x="226" y="650" type="line"/>
			<point x="241" y="650" type="line"/>
			<point x="381" y="660" type="line"/>
			<point x="392" y="715" type="line"/>
			<point x="239" y="715" type="line"/>
		</contour>
	</outline>
</glyph>
<glyph name="asciicircum" format="2">
	<unicode hex="005E"/>
	<advance width="545"/>
	<outline>
		<contour>
			<point x="69" y="231" type="line"/>
			<point x="132" y="191" type="line"/>
			<point x="298" y="459" type="line"/>
			<point x="245" y="459" type="line"/>
			<point x="411" y="191" type="line"/>
			<point x="476" y="231" type="line"/>
			<point x="309" y="497" type="line"/>
			<point x="235" y="497" type="line"/>
		</contour>
	</outline>
</glyph>
<glyph name="a" format="2">
	<unicode hex="0061"/>
	<advance width="570"/>
	<outline>
		<contour>
			<point x="140" y="-14" type="curve" smooth="yes"/>
			<point x="211" y="-14"/>
			<point x="284" y="49"/>
			<point x="342" y="134" type="curve"/>
			<point x="358" y="134" type="line"/>
			<point x="353" y="178" type="line"/>
			<point x="285" y="101"/>
			<point x="244" y="75"/>
			<point x="207" y="75" type="curve" smooth="yes"/>
			<point x="171" y="75"/>
			<point x="150" y="103"/>
			<point x="150" y="166" type="curve" smooth="yes"/>
			<point x="150" y="242"/>
			<point x="181" y="328"/>
			<point x="226" y="377" type="curve" smooth="yes"/>
			<point x="258" y="413"/>
			<point x="294" y="434"/>
			<point x="329" y="434" type="curve" smooth="yes"/>
			<point x="361" y="434"/>
			<point x="391" y="419"/>
			<point x="418" y="394" type="curve"/>
			<point x="465" y="438" type="line"/>
			<point x="435" y="479"/>
			<point x="407" y="504"/>
			<point x="361" y="504" type="curve" smooth="yes"/>
			<point x="217" y="504"/>
			<point x="32" y="302"/>
			<point x="32" y="119" type="curve" smooth="yes"/>
			<point x="32" y="23"/>
			<point x="81" y="-14"/>
		</contour>
		<contour>
			<point x="394" y="-14" type="curve" smooth="yes"/>
			<point x="466" y="-14"/>
			<point x="526" y="48"/>
			<point x="565" y="115" type="curve"/>
			<point x="533" y="137" type="line"/>
			<point x="499" y="90"/>
			<point x="475" y="67"/>
			<point x="452" y="67" type="curve" smooth="yes"/>
			<point x="438" y="67"/>
			<point x="429" y="76"/>
			<point x="429" y="92" type="curve" smooth="yes"/>
			<point x="429" y="105"/>
			<point x="433" y="124"/>
			<point x="439" y="150" type="curve" smooth="yes"/>
			<point x="520" y="506" type="line"/>
			<point x="488" y="513" type="line"/>
			<point x="406" y="452" type="line"/>
			<point x="391" y="449" type="line"/>
			<point x="319" y="125" type="line"/>
			<point x="325" y="123" type="line" smooth="yes"/>
			<point x="321" y="104"/>
			<point x="318" y="86"/>
			<point x="318" y="65" type="curve" smooth="yes"/>
			<point x="318" y="12"/>
			<point x="348" y="-14"/>
		</contour>
	</outline>
	<anchor name="aboveLC" x="360" y="510"/>
	<anchor name="belowLC" x="243" y="-20"/>
	<anchor name="ogonek" x="421" y="0"/>
</glyph>
<glyph name="b" format="2">
	<unicode hex="0062"/>
	<advance width="540"/>
	<outline>
		<contour>
			<point x="176" y="-14" type="curve" smooth="yes"/>
			<point x="343" y="-14"/>
			<point x="522" y="179"/>
			<point x="522" y="366" type="curve" smooth="yes"/>
			<point x="522" y="463"/>
			<point x="478" y="504"/>
			<point x="415" y="504" type="curve" smooth="yes"/>
			<point x="344" y="504"/>
			<point x="260" y="443"/>
			<point x="205" y="342" type="curve"/>
			<point x="187" y="342" type="line"/>
			<point x="197" y="300" type="line"/>
			<point x="258" y="380"/>
			<point x="307" y="416"/>
			<point x="350" y="416" type="curve" smooth="yes"/>
			<point x="386" y="416"/>
			<point x="405" y="387"/>
			<point x="405" y="328" type="curve" smooth="yes"/>
			<point x="405" y="251"/>
			<point x="375" y="169"/>
			<point x="337" y="122" type="curve" smooth="yes"/>
			<point x="304" y="81"/>
			<point x="271" y="55"/>
			<point x="229" y="55" type="curve" smooth="yes"/>
			<point x="194" y="55"/>
			<point x="176" y="76"/>
			<point x="176" y="111" type="curve" smooth="yes"/>
			<point x="176" y="144"/>
			<point x="183" y="173"/>
			<point x="195" y="231" type="curve" smooth="yes"/>
			<point x="220" y="348" type="line"/>
			<point x="215" y="356" type="line"/>
			<point x="296" y="721" type="line"/>
			<point x="272" y="731" type="line"/>
			<point x="83" y="683" type="line"/>
			<point x="76" y="642" type="line"/>
			<point x="204" y="628" type="line"/>
			<point x="168" y="655" type="line"/>
			<point x="86" y="255" type="line" smooth="yes"/>
			<point x="74" y="195"/>
			<point x="62" y="141"/>
			<point x="62" y="95" type="curve" smooth="yes"/>
			<point x="62" y="24"/>
			<point x="105" y="-14"/>
		</contour>
	</outline>
	<anchor name="aboveLC" x="240" y="733"/>
	<anchor name="belowLC" x="216" y="-20"/>
</glyph>
<glyph name="d" format="2">
	<unicode hex="0064"/>
	<advance width="572"/>
	<outline>
		<contour>
			<point x="138" y="-14" type="curve" smooth="yes"/>
			<point x="210" y="-14"/>
			<point x="286" y="48"/>
			<point x="342" y="134" type="curve"/>
			<point x="363" y="134" type="line"/>
			<point x="353" y="178" type="line"/>
			<point x="287" y="101"/>
			<point x="246" y="75"/>
			<point x="209" y="75" type="curve" smooth="yes"/>
			<point x="172" y="75"/>
			<point x="150" y="102"/>
			<point x="150" y="168" type="curve" smooth="yes"/>
			<point x="150" y="240"/>
			<point x="179" y="327"/>
			<point x="223" y="376" type="curve" smooth="yes"/>
			<point x="251" y="410"/>
			<point x="289" y="434"/>
			<point x="328" y="434" type="curve" smooth="yes"/>
			<point x="361" y="434"/>
			<point x="386" y="423"/>
			<point x="412" y="393" type="curve"/>
			<point x="462" y="448" type="line"/>
			<point x="429" y="487"/>
			<point x="402" y="504"/>
			<point x="359" y="504" type="curve" smooth="yes"/>
			<point x="212" y="504"/>
			<point x="33" y="302"/>
			<point x="33" y="122" type="curve" smooth="yes"/>
			<point x="33" y="23"/>
			<point x="79" y="-14"/>
		</contour>
		<contour>
			<point x="396" y="-14" type="curve" smooth="yes"/>
			<point x="468" y="-14"/>
			<point x="530" y="45"/>
			<point x="569" y="115" type="curve"/>
			<point x="536" y="137" type="line"/>
			<point x="504" y="89"/>
			<point x="477" y="67"/>
			<point x="455" y="67" type="curve" smooth="yes"/>
			<point x="442" y="67"/>
			<point x="433" y="76"/>
			<point x="433" y="92" type="curve" smooth="yes"/>
			<point x="433" y="104"/>
			<point x="437" y="122"/>
			<point x="442" y="150" type="curve" smooth="yes"/>
			<point x="561" y="721" type="line"/>
			<point x="537" y="731" type="line"/>
			<point x="346" y="683" type="line"/>
			<point x="339" y="642" type="line"/>
			<point x="468" y="628" type="line"/>
			<point x="439" y="660" type="line"/>
			<point x="398" y="460" type="line"/>
			<point x="388" y="441" type="line"/>
			<point x="322" y="126" type="line"/>
			<point x="327" y="121" type="line" smooth="yes"/>
			<point x="322" y="95"/>
			<point x="320" y="78"/>
			<point x="320" y="62" type="curve" smooth="yes"/>
			<point x="320" y="14"/>
			<point x="349" y="-14"/>
		</contour>
	</outline>
	<anchor name="aboveLC" x="497" y="733"/>
	<anchor name="belowLC" x="269" y="-20"/>
</glyph>
<glyph name="e" format="2">
	<unicode hex="0065"/>
	<advance width="462"/>
	<outline>
		<contour>
			<point x="211" y="-14" type="curve" smooth="yes"/>
			<point x="308" y="-14"/>
			<point x="379" y="55"/>
			<point x="421" y="126" type="curve"/>
			<point x="389" y="150" type="line"/>
			<point x="356" y="110"/>
			<point x="315" y="73"/>
			<point x="254" y="73" type="curve" smooth="yes"/>
			<point x="191" y="73"/>
			<point x="149" y="113"/>
			<point x="149" y="204" type="curve" smooth="yes"/>
			<point x="149" y="333"/>
			<point x="242" y="452"/>
			<point x="308" y="452" type="curve" smooth="yes"/>
			<point x="336" y="452"/>
			<point x="354" y="433"/>
			<point x="354" y="400" type="curve" smooth="yes"/>
			<point x="354" y="339"/>
			<point x="292" y="260"/>
			<point x="103" y="214" type="curve"/>
			<point x="105" y="175" type="line"/>
			<point x="356" y="232"/>
			<point x="450" y="318"/>
			<point x="450" y="402" type="curve" smooth="yes"/>
			<point x="450" y="465"/>
			<point x="405" y="504"/>
			<point x="325" y="504" type="curve" smooth="yes"/>
			<point x="168" y="504"/>
			<point x="38" y="349"/>
			<point x="38" y="177" type="curve" smooth="yes"/>
			<point x="38" y="53"/>
			<point x="108" y="-14"/>
		</contour>
	</outline>
	<anchor name="aboveLC" x="326" y="510"/>
	<anchor name="belowLC" x="201" y="-20"/>
	<anchor name="ogonek" x="253" y="0"/>
</glyph>
<glyph name="f" format="2">
	<unicode hex="0066"/>
	<advance width="339"/>
	<outline>
		<contour>
			<point x="-52" y="-241" type="curve" smooth="yes"/>
			<point x="-2" y="-241"/>
			<point x="46" y="-216"/>
			<point x="85" y="-175" type="curve" smooth="yes"/>
			<point x="131" y="-127"/>
			<point x="159" y="-59"/>
			<point x="179" y="49" type="curve" smooth="yes"/>
			<point x="204" y="192"/>
			<point x="226" y="349"/>
			<point x="250" y="497" type="curve" smooth="yes"/>
			<point x="274" y="649"/>
			<point x="309" y="685"/>
			<point x="358" y="714" type="curve"/>
			<point x="353" y="718" type="line"/>
			<point x="345" y="718" type="line"/>
			<point x="333" y="714" type="line"/>
			<point x="363" y="669" type="line" smooth="yes"/>
			<point x="387" y="633"/>
			<point x="408" y="616"/>
			<point x="439" y="616" type="curve" smooth="yes"/>
			<point x="465" y="616"/>
			<point x="487" y="637"/>
			<point x="492" y="666" type="curve"/>
			<point x="483" y="704"/>
			<point x="432" y="740"/>
			<point x="363" y="740" type="curve" smooth="yes"/>
			<point x="266" y="740"/>
			<point x="163" y="674"/>
			<point x="133" y="469" type="curve" smooth="yes"/>
			<point x="112" y="324"/>
			<point x="91" y="182"/>
			<point x="69" y="40" type="curve" smooth="yes"/>
			<point x="54" y="-50"/>
			<point x="41" y="-104"/>
			<point x="21" y="-144" type="curve" smooth="yes"/>
			<point x="7" y="-172"/>
			<point x="-7" y="-189"/>
			<point x="-23" y="-206" type="curve"/>
			<point x="-18" y="-206" type="line"/>
			<point x="-21" y="-206" type="line"/>
			<point x="-9" y="-206" type="line"/>
			<point x="-35" y="-174" type="line" smooth="yes"/>
			<point x="-61" y="-141"/>
			<point x="-82" y="-123"/>
			<point x="-114" y="-123" type="curve" smooth="yes"/>
			<point x="-144" y="-123"/>
			<point x="-164" y="-143"/>
			<point x="-168" y="-170" type="curve"/>
			<point x="-156" y="-212"/>
			<point x="-114" y="-241"/>
		</contour>
		<contour>
			<point x="36" y="433" type="line"/>
			<point x="166" y="435" type="line"/>
			<point x="363" y="428" type="line"/>
			<point x="375" y="490" type="line"/>
			<point x="172" y="490" type="line"/>
			<point x="172" y="495" type="line"/>
			<point x="46" y="480" type="line"/>
		</contour>
	</outline>
	<anchor name="aboveLC" x="357" y="733"/>
	<anchor name="belowLC" x="-37" y="-250"/>
</glyph>
<glyph name="g" format="2">
	<unicode hex="0067"/>
	<advance width="535"/>
	<outline>
		<contour>
			<point x="151" y="-236" type="curve" smooth="yes"/>
			<point x="316" y="-236"/>
			<point x="454" y="-156"/>
			<point x="454" y="-44" type="curve" smooth="yes"/>
			<point x="454" y="19"/>
			<point x="410" y="60"/>
			<point x="306" y="72" type="curve" smooth="yes"/>
			<point x="191" y="85" type="line" smooth="yes"/>
			<point x="152" y="90"/>
			<point x="140" y="109"/>
			<point x="140" y="127" type="curve" smooth="yes"/>
			<point x="140" y="145"/>
			<point x="145" y="160"/>
			<point x="178" y="192" type="curve"/>
			<point x="152" y="209" type="line"/>
			<point x="151" y="190" type="line"/>
			<point x="83" y="161"/>
			<point x="42" y="128"/>
			<point x="42" y="80" type="curve" smooth="yes"/>
			<point x="42" y="45"/>
			<point x="65" y="17"/>
			<point x="116" y="7" type="curve"/>
			<point x="115" y="-5" type="line"/>
			<point x="125" y="-7"/>
			<point x="135" y="-8"/>
			<point x="144" y="-9" type="curve" smooth="yes"/>
			<point x="253" y="-21" type="line" smooth="yes"/>
			<point x="330" y="-29"/>
			<point x="354" y="-54"/>
			<point x="354" y="-88" type="curve" smooth="yes"/>
			<point x="354" y="-145"/>
			<point x="289" y="-181"/>
			<point x="195" y="-181" type="curve" smooth="yes"/>
			<point x="114" y="-181"/>
			<point x="65" y="-149"/>
			<point x="65" y="-99" type="curve" smooth="yes"/>
			<point x="65" y="-57"/>
			<point x="93" y="-29"/>
			<point x="149" y="3" type="curve"/>
			<point x="133" y="14" type="line"/>
			<point x="34" y="-12"/>
			<point x="-36" y="-63"/>
			<point x="-36" y="-127" type="curve" smooth="yes"/>
			<point x="-36" y="-195"/>
			<point x="37" y="-236"/>
		</contour>
		<contour>
			<point x="231" y="161" type="curve" smooth="yes"/>
			<point x="349" y="161"/>
			<point x="409" y="235"/>
			<point x="436" y="337" type="curve" smooth="yes"/>
			<point x="446" y="373"/>
			<point x="453" y="399"/>
			<point x="462" y="431" type="curve"/>
			<point x="440" y="395" type="line"/>
			<point x="524" y="410"/>
			<point x="561" y="432"/>
			<point x="561" y="484" type="curve" smooth="yes"/>
			<point x="561" y="496"/>
			<point x="557" y="506"/>
			<point x="553" y="513" type="curve"/>
			<point x="545" y="517"/>
			<point x="533" y="520"/>
			<point x="518" y="520" type="curve" smooth="yes"/>
			<point x="468" y="520"/>
			<point x="432" y="486"/>
			<point x="417" y="385" type="curve"/>
			<point x="415" y="385" type="line"/>
			<point x="411" y="453"/>
			<point x="361" y="504"/>
			<point x="277" y="504" type="curve" smooth="yes"/>
			<point x="162" y="504"/>
			<point x="73" y="412"/>
			<point x="73" y="303" type="curve" smooth="yes"/>
			<point x="73" y="220"/>
			<point x="132" y="161"/>
		</contour>
		<contour>
			<point x="250" y="202" type="curve" smooth="yes"/>
			<point x="203" y="202"/>
			<point x="182" y="249"/>
			<point x="182" y="314" type="curve" smooth="yes"/>
			<point x="182" y="402"/>
			<point x="211" y="463"/>
			<point x="268" y="463" type="curve" smooth="yes"/>
			<point x="306" y="463"/>
			<point x="334" y="423"/>
			<point x="334" y="356" type="curve" smooth="yes"/>
			<point x="334" y="249"/>
			<point x="298" y="202"/>
		</contour>
	</outline>
	<anchor name="aboveLC" x="287" y="510"/>
	<anchor name="belowLC" x="168" y="-250"/>
</glyph>
<glyph name="h" format="2">
	<unicode hex="0068"/>
	<advance width="590"/>
	<outline>
		<contour>
			<point x="57" y="-9" type="line"/>
			<point x="154" y="0" type="line"/>
			<point x="167" y="74"/>
			<point x="181" y="143"/>
			<point x="197" y="221" type="curve" smooth="yes"/>
			<point x="225" y="353" type="line"/>
			<point x="222" y="364" type="line"/>
			<point x="299" y="721" type="line"/>
			<point x="276" y="731" type="line"/>
			<point x="87" y="683" type="line"/>
			<point x="80" y="642" type="line"/>
			<point x="209" y="628" type="line"/>
			<point x="171" y="661" type="line"/>
			<point x="159" y="591"/>
			<point x="146" y="524"/>
			<point x="131" y="454" type="curve" smooth="yes"/>
			<point x="37" y="1" type="line"/>
		</contour>
		<contour>
			<point x="404" y="-14" type="curve" smooth="yes"/>
			<point x="483" y="-14"/>
			<point x="544" y="49"/>
			<point x="583" y="114" type="curve"/>
			<point x="551" y="135" type="line"/>
			<point x="517" y="89"/>
			<point x="491" y="67"/>
			<point x="470" y="67" type="curve" smooth="yes"/>
			<point x="457" y="67"/>
			<point x="449" y="76"/>
			<point x="449" y="90" type="curve" smooth="yes"/>
			<point x="449" y="103"/>
			<point x="455" y="123"/>
			<point x="461" y="148" type="curve" smooth="yes"/>
			<point x="504" y="325" type="line" smooth="yes"/>
			<point x="512" y="357"/>
			<point x="520" y="390"/>
			<point x="520" y="420" type="curve" smooth="yes"/>
			<point x="520" y="474"/>
			<point x="489" y="504"/>
			<point x="437" y="504" type="curve" smooth="yes"/>
			<point x="364" y="504"/>
			<point x="288" y="448"/>
			<point x="222" y="370" type="curve"/>
			<point x="205" y="370" type="line"/>
			<point x="207" y="322" type="line"/>
			<point x="276" y="386"/>
			<point x="323" y="415"/>
			<point x="361" y="415" type="curve" smooth="yes"/>
			<point x="384" y="415"/>
			<point x="397" y="403"/>
			<point x="397" y="376" type="curve" smooth="yes"/>
			<point x="397" y="356"/>
			<point x="390" y="327"/>
			<point x="382" y="295" type="curve" smooth="yes"/>
			<point x="345" y="141" type="line" smooth="yes"/>
			<point x="337" y="107"/>
			<point x="329" y="79"/>
			<point x="329" y="50" type="curve" smooth="yes"/>
			<point x="329" y="12"/>
			<point x="354" y="-14"/>
		</contour>
	</outline>
	<anchor name="aboveLC" x="250" y="733"/>
	<anchor name="belowLC" x="242" y="-20"/>
</glyph>
<glyph name="i" format="2">
	<unicode hex="0069"/>
	<advance width="321"/>
	<outline>
		<contour>
			<point x="60" y="57" type="curve" smooth="yes"/>
			<point x="60" y="12"/>
			<point x="89" y="-14"/>
			<point x="137" y="-14" type="curve" smooth="yes"/>
			<point x="215" y="-14"/>
			<point x="271" y="45"/>
			<point x="314" y="115" type="curve"/>
			<point x="281" y="137" type="line"/>
			<point x="245" y="87"/>
			<point x="223" y="67"/>
			<point x="201" y="67" type="curve" smooth="yes"/>
			<point x="188" y="67"/>
			<point x="179" y="76"/>
			<point x="179" y="92" type="curve" smooth="yes"/>
			<point x="179" y="105"/>
			<point x="184" y="126"/>
			<point x="189" y="153" type="curve" smooth="yes"/>
			<point x="262" y="492" type="line"/>
			<point x="236" y="503" type="line"/>
			<point x="46" y="448" type="line"/>
			<point x="39" y="407" type="line"/>
			<point x="156" y="399" type="line"/>
			<point x="133" y="427" type="line"/>
			<point x="73" y="149" type="line" smooth="yes"/>
			<point x="66" y="113"/>
			<point x="60" y="82"/>
		</contour>
		<contour>
			<point x="234" y="608" type="curve" smooth="yes"/>
			<point x="275" y="608"/>
			<point x="308" y="643"/>
			<point x="308" y="684" type="curve" smooth="yes"/>
			<point x="308" y="721"/>
			<point x="282" y="747"/>
			<point x="244" y="747" type="curve" smooth="yes"/>
			<point x="203" y="747"/>
			<point x="169" y="712"/>
			<point x="169" y="671" type="curve" smooth="yes"/>
			<point x="169" y="633"/>
			<point x="197" y="608"/>
		</contour>
	</outline>
	<anchor name="aboveLC" x="244" y="747"/>
	<anchor name="belowLC" x="132" y="-20"/>
	<anchor name="ogonek" x="177" y="0"/>
</glyph>
<glyph name="j" format="2">
	<unicode hex="006A"/>
	<advance width="287"/>
	<outline>
		<contour>
			<point x="-75" y="-240" type="line"/>
			<point x="-15" y="-231"/>
			<point x="34" y="-207"/>
			<point x="70" y="-170" type="curve" smooth="yes"/>
			<point x="118" y="-124"/>
			<point x="152" y="-60"/>
			<point x="174" y="45" type="curve" smooth="yes"/>
			<point x="261" y="491" type="line"/>
			<point x="234" y="503" type="line"/>
			<point x="46" y="448" type="line"/>
			<point x="39" y="407" type="line"/>
			<point x="167" y="398" type="line"/>
			<point x="133" y="427" type="line"/>
			<point x="62" y="45" type="line" smooth="yes"/>
			<point x="42" y="-64"/>
			<point x="20" y="-112"/>
			<point x="-6" y="-147" type="curve" smooth="yes"/>
			<point x="-26" y="-174"/>
			<point x="-51" y="-191"/>
			<point x="-86" y="-204" type="curve"/>
		</contour>
		<contour>
			<point x="233" y="608" type="curve" smooth="yes"/>
			<point x="274" y="608"/>
			<point x="307" y="643"/>
			<point x="307" y="684" type="curve" smooth="yes"/>
			<point x="307" y="721"/>
			<point x="281" y="747"/>
			<point x="243" y="747" type="curve" smooth="yes"/>
			<point x="202" y="747"/>
			<point x="169" y="712"/>
			<point x="169" y="671" type="curve" smooth="yes"/>
			<point x="169" y="633"/>
			<point x="197" y="608"/>
		</contour>
	</outline>
	<anchor name="aboveLC" x="246" y="747"/>
	<anchor name="belowLC" x="0" y="-250"/>
</glyph>
<glyph name="k" format="2">
	<unicode hex="006B"/>
	<advance width="521"/>
	<outline>
		<contour>
			<point x="37" y="1" type="line"/>
			<point x="58" y="-9" type="line"/>
			<point x="154" y="0" type="line"/>
			<point x="167" y="71"/>
			<point x="179" y="136"/>
			<point x="195" y="211" type="curve" smooth="yes"/>
			<point x="299" y="721" type="line"/>
			<point x="275" y="731" type="line"/>
			<point x="86" y="683" type="line"/>
			<point x="79" y="642" type="line"/>
			<point x="209" y="628" type="line"/>
			<point x="171" y="661" type="line"/>
			<point x="159" y="590"/>
			<point x="146" y="523"/>
			<point x="131" y="452" type="curve" smooth="yes"/>
		</contour>
		<contour>
			<point x="504" y="0" type="curve"/>
			<point x="510" y="36" type="line"/>
			<point x="473" y="40" type="line" smooth="yes"/>
			<point x="444" y="43"/>
			<point x="427" y="54"/>
			<point x="406" y="100" type="curve" smooth="yes"/>
			<point x="377" y="165" type="line" smooth="yes"/>
			<point x="350" y="223"/>
			<point x="311" y="250"/>
			<point x="243" y="258" type="curve" smooth="yes"/>
			<point x="205" y="263" type="line"/>
			<point x="202" y="260" type="line"/>
			<point x="440" y="366" type="line" smooth="yes"/>
			<point x="496" y="387"/>
			<point x="521" y="407"/>
			<point x="521" y="441" type="curve" smooth="yes"/>
			<point x="521" y="471"/>
			<point x="498" y="493"/>
			<point x="469" y="498" type="curve"/>
			<point x="241" y="313" type="line"/>
			<point x="198" y="273" type="line"/>
			<point x="179" y="273" type="line"/>
			<point x="179" y="246" type="line"/>
			<point x="196" y="241" type="line" smooth="yes"/>
			<point x="229" y="230"/>
			<point x="242" y="214"/>
			<point x="263" y="162" type="curve" smooth="yes"/>
			<point x="293" y="81" type="line" smooth="yes"/>
			<point x="321" y="5"/>
			<point x="360" y="-14"/>
			<point x="419" y="-14" type="curve" smooth="yes"/>
			<point x="449" y="-14"/>
			<point x="479" y="-8"/>
		</contour>
	</outline>
	<anchor name="aboveLC" x="246" y="733"/>
	<anchor name="belowLC" x="236" y="-20"/>
</glyph>
<glyph name="l" format="2">
	<unicode hex="006C"/>
	<advance width="309"/>
	<outline>
		<contour>
			<point x="130" y="-14" type="curve" smooth="yes"/>
			<point x="208" y="-14"/>
			<point x="263" y="44"/>
			<point x="305" y="115" type="curve"/>
			<point x="273" y="137" type="line"/>
			<point x="238" y="88"/>
			<point x="214" y="67"/>
			<point x="194" y="67" type="curve" smooth="yes"/>
			<point x="180" y="67"/>
			<point x="171" y="76"/>
			<point x="171" y="92" type="curve" smooth="yes"/>
			<point x="171" y="104"/>
			<point x="174" y="123"/>
			<point x="180" y="149" type="curve" smooth="yes"/>
			<point x="298" y="721" type="line"/>
			<point x="273" y="729" type="line"/>
			<point x="84" y="683" type="line"/>
			<point x="77" y="642" type="line"/>
			<point x="206" y="628" type="line"/>
			<point x="168" y="661" type="line"/>
			<point x="156" y="591"/>
			<point x="142" y="524"/>
			<point x="128" y="454" type="curve" smooth="yes"/>
			<point x="66" y="154" type="line" smooth="yes"/>
			<point x="57" y="111"/>
			<point x="52" y="84"/>
			<point x="52" y="59" type="curve" smooth="yes"/>
			<point x="52" y="12"/>
			<point x="81" y="-14"/>
		</contour>
	</outline>
	<anchor name="aboveLC" x="243" y="733"/>
	<anchor name="belowLC" x="122" y="-20"/>
</glyph>
<glyph name="n" format="2">
	<unicode hex="006E"/>
	<advance width="604"/>
	<outline>
		<contour>
			<point x="70" y="-9" type="line"/>
			<point x="167" y="0" type="line"/>
			<point x="181" y="74"/>
			<point x="195" y="147"/>
			<point x="210" y="221" type="curve" smooth="yes"/>
			<point x="239" y="353" type="line"/>
			<point x="237" y="360" type="line"/>
			<point x="259" y="491" type="line"/>
			<point x="235" y="503" type="line"/>
			<point x="53" y="448" type="line"/>
			<point x="45" y="407" type="line"/>
			<point x="172" y="398" type="line"/>
			<point x="139" y="426" type="line"/>
			<point x="49" y="1" type="line"/>
		</contour>
		<contour>
			<point x="418" y="-14" type="curve" smooth="yes"/>
			<point x="497" y="-14"/>
			<point x="558" y="49"/>
			<point x="597" y="114" type="curve"/>
			<point x="565" y="135" type="line"/>
			<point x="531" y="89"/>
			<point x="505" y="67"/>
			<point x="484" y="67" type="curve" smooth="yes"/>
			<point x="470" y="67"/>
			<point x="463" y="76"/>
			<point x="463" y="90" type="curve" smooth="yes"/>
			<point x="463" y="103"/>
			<point x="469" y="123"/>
			<point x="475" y="148" type="curve" smooth="yes"/>
			<point x="518" y="325" type="line" smooth="yes"/>
			<point x="526" y="357"/>
			<point x="533" y="390"/>
			<point x="533" y="420" type="curve" smooth="yes"/>
			<point x="533" y="474"/>
			<point x="503" y="504"/>
			<point x="451" y="504" type="curve" smooth="yes"/>
			<point x="377" y="504"/>
			<point x="301" y="449"/>
			<point x="235" y="370" type="curve"/>
			<point x="221" y="370" type="line"/>
			<point x="223" y="323" type="line"/>
			<point x="289" y="386"/>
			<point x="337" y="415"/>
			<point x="375" y="415" type="curve" smooth="yes"/>
			<point x="398" y="415"/>
			<point x="411" y="403"/>
			<point x="411" y="376" type="curve" smooth="yes"/>
			<point x="411" y="356"/>
			<point x="405" y="327"/>
			<point x="397" y="295" type="curve" smooth="yes"/>
			<point x="359" y="141" type="line" smooth="yes"/>
			<point x="351" y="107"/>
			<point x="343" y="79"/>
			<point x="343" y="50" type="curve" smooth="yes"/>
			<point x="343" y="12"/>
			<point x="368" y="-14"/>
		</contour>
	</outline>
	<anchor name="aboveLC" x="345" y="510"/>
	<anchor name="belowLC" x="260" y="-20"/>
</glyph>
<glyph name="o" format="2">
	<unicode hex="006F"/>
	<advance width="538"/>
	<outline>
		<contour>
			<point x="226" y="-14" type="curve" smooth="yes"/>
			<point x="386" y="-14"/>
			<point x="508" y="142"/>
			<point x="508" y="315" type="curve" smooth="yes"/>
			<point x="508" y="439"/>
			<point x="431" y="504"/>
			<point x="322" y="504" type="curve" smooth="yes"/>
			<point x="161" y="504"/>
			<point x="38" y="350"/>
			<point x="38" y="175" type="curve" smooth="yes"/>
			<point x="38" y="51"/>
			<point x="118" y="-14"/>
		</contour>
		<contour>
			<point x="238" y="37" type="curve" smooth="yes"/>
			<point x="190" y="37"/>
			<point x="157" y="73"/>
			<point x="157" y="167" type="curve" smooth="yes"/>
			<point x="157" y="310"/>
			<point x="222" y="453"/>
			<point x="310" y="453" type="curve" smooth="yes"/>
			<point x="357" y="453"/>
			<point x="389" y="417"/>
			<point x="389" y="324" type="curve" smooth="yes"/>
			<point x="389" y="184"/>
			<point x="327" y="37"/>
		</contour>
	</outline>
	<anchor name="aboveLC" x="322" y="510"/>
	<anchor name="belowLC" x="228" y="-20"/>
	<anchor name="hornLC" x="429" y="394"/>
	<anchor name="ogonek" x="286" y="0"/>
</glyph>
<glyph name="p" format="2">
	<unicode hex="0070"/>
	<advance width="556"/>
	<outline>
		<contour>
			<point x="-69" y="-230" type="line"/>
			<point x="206" y="-230" type="line"/>
			<point x="215" y="-186" type="line"/>
			<point x="90" y="-173" type="line"/>
			<point x="53" y="-173" type="line"/>
			<point x="-60" y="-186" type="line"/>
		</contour>
		<contour>
			<point x="3" y="-230" type="line"/>
			<point x="118" y="-230" type="line"/>
			<point x="131" y="-155"/>
			<point x="146" y="-78"/>
			<point x="167" y="27" type="curve"/>
			<point x="174" y="39" type="line"/>
			<point x="241" y="356" type="line"/>
			<point x="236" y="360" type="line"/>
			<point x="259" y="491" type="line"/>
			<point x="234" y="503" type="line"/>
			<point x="53" y="448" type="line"/>
			<point x="46" y="407" type="line"/>
			<point x="172" y="398" type="line"/>
			<point x="139" y="422" type="line"/>
		</contour>
		<contour>
			<point x="214" y="-14" type="curve" smooth="yes"/>
			<point x="364" y="-14"/>
			<point x="538" y="180"/>
			<point x="538" y="367" type="curve" smooth="yes"/>
			<point x="538" y="465"/>
			<point x="492" y="504"/>
			<point x="433" y="504" type="curve" smooth="yes"/>
			<point x="360" y="504"/>
			<point x="275" y="443"/>
			<point x="222" y="349" type="curve"/>
			<point x="208" y="349" type="line"/>
			<point x="215" y="314" type="line"/>
			<point x="274" y="384"/>
			<point x="324" y="416"/>
			<point x="362" y="416" type="curve" smooth="yes"/>
			<point x="401" y="416"/>
			<point x="421" y="388"/>
			<point x="421" y="324" type="curve" smooth="yes"/>
			<point x="421" y="254"/>
			<point x="395" y="177"/>
			<point x="359" y="128" type="curve" smooth="yes"/>
			<point x="327" y="83"/>
			<point x="290" y="56"/>
			<point x="246" y="56" type="curve" smooth="yes"/>
			<point x="210" y="56"/>
			<point x="176" y="74"/>
			<point x="146" y="109" type="curve"/>
			<point x="112" y="28" type="line"/>
			<point x="141" y="-1"/>
			<point x="171" y="-14"/>
		</contour>
	</outline>
	<anchor name="aboveLC" x="325" y="510"/>
	<anchor name="belowLC" x="65" y="-250"/>
</glyph>
<glyph name="r" format="2">
	<unicode hex="0072"/>
	<advance width="449"/>
	<outline>
		<contour>
			<point x="208" y="228" type="line"/>
			<point x="255" y="325"/>
			<point x="294" y="389"/>
			<point x="346" y="437" type="curve"/>
			<point x="365" y="441" type="line"/>
			<point x="313" y="446" type="line"/>
			<point x="328" y="429" type="line" smooth="yes"/>
			<point x="353" y="403"/>
			<point x="374" y="387"/>
			<point x="404" y="387" type="curve" smooth="yes"/>
			<point x="443" y="387"/>
			<point x="465" y="417"/>
			<point x="467" y="456" type="curve"/>
			<point x="456" y="486"/>
			<point x="430" y="503"/>
			<point x="391" y="503" type="curve" smooth="yes"/>
			<point x="321" y="503"/>
			<point x="262" y="415"/>
			<point x="218" y="305" type="curve"/>
			<point x="198" y="305" type="line"/>
		</contour>
		<contour>
			<point x="49" y="1" type="line"/>
			<point x="70" y="-9" type="line"/>
			<point x="167" y="0" type="line"/>
			<point x="181" y="74"/>
			<point x="195" y="147"/>
			<point x="211" y="223" type="curve" smooth="yes"/>
			<point x="230" y="314" type="line"/>
			<point x="223" y="322" type="line"/>
			<point x="253" y="491" type="line"/>
			<point x="231" y="503" type="line"/>
			<point x="53" y="448" type="line"/>
			<point x="45" y="407" type="line"/>
			<point x="172" y="398" type="line"/>
			<point x="139" y="426" type="line"/>
		</contour>
	</outline>
	<anchor name="aboveLC" x="292" y="510"/>
	<anchor name="belowLC" x="112" y="-20"/>
</glyph>
<glyph name="s" format="2">
	<unicode hex="0073"/>
	<advance width="405"/>
	<outline>
		<contour>
			<point x="163" y="-14" type="curve" smooth="yes"/>
			<point x="283" y="-14"/>
			<point x="359" y="50"/>
			<point x="359" y="136" type="curve" smooth="yes"/>
			<point x="359" y="199"/>
			<point x="329" y="234"/>
			<point x="268" y="279" type="curve" smooth="yes"/>
			<point x="212" y="321"/>
			<point x="189" y="344"/>
			<point x="189" y="387" type="curve" smooth="yes"/>
			<point x="189" y="427"/>
			<point x="214" y="461"/>
			<point x="267" y="463" type="curve" smooth="yes"/>
			<point x="286" y="463"/>
			<point x="303" y="462"/>
			<point x="320" y="461" type="curve"/>
			<point x="273" y="482" type="line"/>
			<point x="291" y="425" type="line" smooth="yes"/>
			<point x="304" y="385"/>
			<point x="327" y="367"/>
			<point x="354" y="367" type="curve" smooth="yes"/>
			<point x="380" y="367"/>
			<point x="398" y="382"/>
			<point x="402" y="410" type="curve"/>
			<point x="389" y="468"/>
			<point x="343" y="504"/>
			<point x="262" y="504" type="curve" smooth="yes"/>
			<point x="152" y="504"/>
			<point x="83" y="437"/>
			<point x="83" y="354" type="curve" smooth="yes"/>
			<point x="83" y="286"/>
			<point x="121" y="248"/>
			<point x="178" y="205" type="curve" smooth="yes"/>
			<point x="232" y="165"/>
			<point x="249" y="140"/>
			<point x="249" y="104" type="curve" smooth="yes"/>
			<point x="249" y="60"/>
			<point x="217" y="31"/>
			<point x="163" y="28" type="curve" smooth="yes"/>
			<point x="138" y="28"/>
			<point x="118" y="29"/>
			<point x="92" y="32" type="curve"/>
			<point x="146" y="8" type="line"/>
			<point x="130" y="74" type="line" smooth="yes"/>
			<point x="122" y="112"/>
			<point x="101" y="133"/>
			<point x="66" y="133" type="curve" smooth="yes"/>
			<point x="39" y="133"/>
			<point x="22" y="117"/>
			<point x="15" y="91" type="curve"/>
			<point x="27" y="23"/>
			<point x="74" y="-14"/>
		</contour>
	</outline>
	<anchor name="aboveLC" x="269" y="510"/>
	<anchor name="baseLC" x="164" y="0"/>
	<anchor name="belowLC" x="161" y="-20"/>
</glyph>
<glyph name="t" format="2">
	<unicode hex="0074"/>
	<advance width="361"/>
	<outline>
		<contour>
			<point x="48" y="432" type="line"/>
			<point x="183" y="433" type="line"/>
			<point x="187" y="434" type="line"/>
			<point x="370" y="428" type="line"/>
			<point x="383" y="490" type="line"/>
			<point x="192" y="490" type="line"/>
			<point x="192" y="496" type="line"/>
			<point x="57" y="480" type="line"/>
		</contour>
		<contour>
			<point x="140" y="-14" type="curve" smooth="yes"/>
			<point x="219" y="-14"/>
			<point x="280" y="45"/>
			<point x="326" y="118" type="curve"/>
			<point x="293" y="140" type="line"/>
			<point x="254" y="89"/>
			<point x="232" y="68"/>
			<point x="208" y="68" type="curve" smooth="yes"/>
			<point x="194" y="68"/>
			<point x="184" y="77"/>
			<point x="184" y="93" type="curve" smooth="yes"/>
			<point x="184" y="105"/>
			<point x="187" y="123"/>
			<point x="193" y="149" type="curve" smooth="yes"/>
			<point x="293" y="626" type="line"/>
			<point x="219" y="626" type="line"/>
			<point x="144" y="458" type="line"/>
			<point x="77" y="147" type="line" smooth="yes"/>
			<point x="69" y="111"/>
			<point x="64" y="83"/>
			<point x="64" y="55" type="curve" smooth="yes"/>
			<point x="64" y="10"/>
			<point x="92" y="-14"/>
		</contour>
	</outline>
	<anchor name="aboveLC" x="247" y="606"/>
	<anchor name="belowLC" x="138" y="-20"/>
	<anchor name="baseLC" x="142" y="0"/>
</glyph>
<glyph name="u" format="2">
	<unicode hex="0075"/>
	<advance width="607"/>
	<outline>
		<contour>
			<point x="154" y="-14" type="curve" smooth="yes"/>
			<point x="232" y="-14"/>
			<point x="300" y="40"/>
			<point x="375" y="129" type="curve"/>
			<point x="394" y="129" type="line"/>
			<point x="386" y="171" type="line"/>
			<point x="312" y="104"/>
			<point x="272" y="75"/>
			<point x="229" y="75" type="curve" smooth="yes"/>
			<point x="204" y="75"/>
			<point x="189" y="89"/>
			<point x="189" y="117" type="curve" smooth="yes"/>
			<point x="189" y="139"/>
			<point x="195" y="166"/>
			<point x="203" y="199" type="curve" smooth="yes"/>
			<point x="271" y="491" type="line"/>
			<point x="243" y="503" type="line"/>
			<point x="54" y="449" type="line"/>
			<point x="47" y="408" type="line"/>
			<point x="163" y="401" type="line"/>
			<point x="141" y="430" type="line"/>
			<point x="84" y="180" type="line" smooth="yes"/>
			<point x="76" y="145"/>
			<point x="67" y="104"/>
			<point x="67" y="71" type="curve" smooth="yes"/>
			<point x="67" y="16"/>
			<point x="102" y="-14"/>
		</contour>
		<contour>
			<point x="427" y="-14" type="curve" smooth="yes"/>
			<point x="505" y="-14"/>
			<point x="560" y="47"/>
			<point x="602" y="113" type="curve"/>
			<point x="568" y="135" type="line"/>
			<point x="532" y="87"/>
			<point x="510" y="67"/>
			<point x="488" y="67" type="curve" smooth="yes"/>
			<point x="474" y="67"/>
			<point x="466" y="76"/>
			<point x="466" y="91" type="curve" smooth="yes"/>
			<point x="466" y="104"/>
			<point x="470" y="126"/>
			<point x="476" y="152" type="curve" smooth="yes"/>
			<point x="549" y="491" type="line"/>
			<point x="526" y="503" type="line"/>
			<point x="428" y="478" type="line"/>
			<point x="417" y="419"/>
			<point x="406" y="362"/>
			<point x="394" y="304" type="curve" smooth="yes"/>
			<point x="356" y="127" type="line"/>
			<point x="361" y="127" type="line"/>
			<point x="354" y="98"/>
			<point x="351" y="80"/>
			<point x="351" y="64" type="curve" smooth="yes"/>
			<point x="351" y="12"/>
			<point x="380" y="-14"/>
		</contour>
	</outline>
	<anchor name="aboveLC" x="347" y="510"/>
	<anchor name="belowLC" x="278" y="-20"/>
	<anchor name="hornLC" x="510" y="394"/>
	<anchor name="ogonek" x="436" y="0"/>
</glyph>
<glyph name="x" format="2">
	<unicode hex="0078"/>
	<advance width="587"/>
	<outline>
		<contour>
			<point x="393" y="-15" type="curve" smooth="yes"/>
			<point x="453" y="-15"/>
			<point x="507" y="37"/>
			<point x="555" y="113" type="curve"/>
			<point x="522" y="135" type="line"/>
			<point x="489" y="91"/>
			<point x="463" y="68"/>
			<point x="440" y="68" type="curve" smooth="yes"/>
			<point x="416" y="68"/>
			<point x="402" y="80"/>
			<point x="389" y="125" type="curve" smooth="yes"/>
			<point x="338" y="294" type="line"/>
			<point x="333" y="296" type="line"/>
			<point x="300" y="412" type="line" smooth="yes"/>
			<point x="281" y="476"/>
			<point x="258" y="504"/>
			<point x="207" y="504" type="curve" smooth="yes"/>
			<point x="156" y="504"/>
			<point x="111" y="464"/>
			<point x="65" y="386" type="curve"/>
			<point x="91" y="361" type="line"/>
			<point x="122" y="406"/>
			<point x="145" y="418"/>
			<point x="161" y="418" type="curve" smooth="yes"/>
			<point x="182" y="418"/>
			<point x="192" y="405"/>
			<point x="203" y="366" type="curve" smooth="yes"/>
			<point x="258" y="185" type="line"/>
			<point x="263" y="184" type="line"/>
			<point x="294" y="78" type="line" smooth="yes"/>
			<point x="314" y="11"/>
			<point x="341" y="-15"/>
		</contour>
		<contour>
			<point x="-7" y="61" type="curve"/>
			<point x="-2" y="12"/>
			<point x="36" y="-14"/>
			<point x="83" y="-14" type="curve" smooth="yes"/>
			<point x="123" y="-14"/>
			<point x="146" y="3"/>
			<point x="172" y="36" type="curve" smooth="yes"/>
			<point x="211" y="84"/>
			<point x="252" y="150"/>
			<point x="303" y="246" type="curve"/>
			<point x="288" y="274" type="line"/>
			<point x="241" y="203"/>
			<point x="193" y="133"/>
			<point x="141" y="70" type="curve" smooth="yes"/>
			<point x="131" y="57"/>
			<point x="120" y="47"/>
			<point x="108" y="36" type="curve"/>
			<point x="97" y="27" type="line"/>
			<point x="131" y="21" type="line"/>
			<point x="115" y="56" type="line" smooth="yes"/>
			<point x="99" y="96"/>
			<point x="83" y="113"/>
			<point x="51" y="113" type="curve" smooth="yes"/>
			<point x="23" y="113"/>
			<point x="1" y="93"/>
		</contour>
		<contour>
			<point x="316" y="221" type="line"/>
			<point x="361" y="293"/>
			<point x="410" y="359"/>
			<point x="459" y="420" type="curve" smooth="yes"/>
			<point x="469" y="433"/>
			<point x="481" y="445"/>
			<point x="492" y="454" type="curve"/>
			<point x="505" y="458" type="line"/>
			<point x="461" y="465" type="line"/>
			<point x="481" y="430" type="line" smooth="yes"/>
			<point x="497" y="396"/>
			<point x="514" y="380"/>
			<point x="543" y="380" type="curve" smooth="yes"/>
			<point x="574" y="380"/>
			<point x="596" y="406"/>
			<point x="599" y="441" type="curve"/>
			<point x="590" y="480"/>
			<point x="562" y="504"/>
			<point x="519" y="504" type="curve" smooth="yes"/>
			<point x="479" y="504"/>
			<point x="454" y="487"/>
			<point x="425" y="451" type="curve" smooth="yes"/>
			<point x="396" y="414"/>
			<point x="351" y="347"/>
			<point x="299" y="249" type="curve"/>
		</contour>
	</outline>
	<anchor name="aboveLC" x="359" y="510"/>
	<anchor name="belowLC" x="232" y="-20"/>
</glyph>
<glyph name="y" format="2">
	<unicode hex="0079"/>
	<advance width="530"/>
	<outline>
		<contour>
			<point x="-3" y="-234" type="curve" smooth="yes"/>
			<point x="67" y="-234"/>
			<point x="122" y="-191"/>
			<point x="175" y="-134" type="curve" smooth="yes"/>
			<point x="220" y="-85"/>
			<point x="254" y="-39"/>
			<point x="286" y="7" type="curve" smooth="yes"/>
			<point x="339" y="82"/>
			<point x="380" y="153"/>
			<point x="417" y="214" type="curve" smooth="yes"/>
			<point x="452" y="273"/>
			<point x="477" y="319"/>
			<point x="501" y="366" type="curve" smooth="yes"/>
			<point x="522" y="406"/>
			<point x="533" y="431"/>
			<point x="533" y="460" type="curve" smooth="yes"/>
			<point x="533" y="488"/>
			<point x="512" y="506"/>
			<point x="483" y="506" type="curve" smooth="yes"/>
			<point x="443" y="506"/>
			<point x="425" y="480"/>
			<point x="398" y="379" type="curve" smooth="yes"/>
			<point x="367" y="263"/>
			<point x="333" y="170"/>
			<point x="271" y="36" type="curve" smooth="yes"/>
			<point x="240" y="-4"/>
			<point x="203" y="-46"/>
			<point x="166" y="-85" type="curve" smooth="yes"/>
			<point x="128" y="-126"/>
			<point x="80" y="-166"/>
			<point x="48" y="-186" type="curve"/>
			<point x="56" y="-189" type="line"/>
			<point x="63" y="-189" type="line"/>
			<point x="80" y="-185" type="line"/>
			<point x="59" y="-164" type="line" smooth="yes"/>
			<point x="33" y="-132"/>
			<point x="10" y="-113"/>
			<point x="-26" y="-113" type="curve" smooth="yes"/>
			<point x="-63" y="-113"/>
			<point x="-86" y="-135"/>
			<point x="-92" y="-166" type="curve"/>
			<point x="-88" y="-207"/>
			<point x="-58" y="-234"/>
		</contour>
		<contour>
			<point x="186" y="-78" type="curve"/>
			<point x="294" y="36" type="line"/>
			<point x="271" y="36" type="line"/>
			<point x="264" y="145"/>
			<point x="255" y="270"/>
			<point x="244" y="383" type="curve" smooth="yes"/>
			<point x="234" y="475"/>
			<point x="211" y="504"/>
			<point x="160" y="504" type="curve" smooth="yes"/>
			<point x="108" y="504"/>
			<point x="64" y="468"/>
			<point x="16" y="386" type="curve"/>
			<point x="45" y="362" type="line"/>
			<point x="71" y="401"/>
			<point x="86" y="415"/>
			<point x="101" y="415" type="curve" smooth="yes"/>
			<point x="117" y="415"/>
			<point x="125" y="404"/>
			<point x="136" y="316" type="curve" smooth="yes"/>
			<point x="154" y="191"/>
			<point x="174" y="69"/>
		</contour>
	</outline>
	<anchor name="aboveLC" x="323" y="510"/>
	<anchor name="belowLC" x="50" y="-248"/>
</glyph>
<glyph name="z" format="2">
	<unicode hex="007A"/>
	<advance width="502"/>
	<outline>
		<contour>
			<point x="296" y="-26" type="curve" smooth="yes"/>
			<point x="384" y="-26"/>
			<point x="472" y="64"/>
			<point x="472" y="155" type="curve" smooth="yes"/>
			<point x="472" y="189"/>
			<point x="459" y="215"/>
			<point x="430" y="225" type="curve"/>
			<point x="396" y="222"/>
			<point x="368" y="198"/>
			<point x="368" y="161" type="curve" smooth="yes"/>
			<point x="368" y="132"/>
			<point x="386" y="113"/>
			<point x="424" y="87" type="curve"/>
			<point x="436" y="74" type="line"/>
			<point x="438" y="100" type="line"/>
			<point x="414" y="86"/>
			<point x="385" y="75"/>
			<point x="345" y="75" type="curve" smooth="yes"/>
			<point x="283" y="75"/>
			<point x="214" y="96"/>
			<point x="131" y="153" type="curve"/>
			<point x="96" y="113" type="line"/>
			<point x="160" y="15"/>
			<point x="224" y="-26"/>
		</contour>
		<contour>
			<point x="80" y="0" type="line"/>
			<point x="118" y="98" type="line"/>
			<point x="211" y="184"/>
			<point x="315" y="259"/>
			<point x="411" y="349" type="curve" smooth="yes"/>
			<point x="470" y="402"/>
			<point x="505" y="449"/>
			<point x="519" y="489" type="curve"/>
			<point x="502" y="502" type="line"/>
			<point x="436" y="490" type="line"/>
			<point x="395" y="394" type="line"/>
			<point x="297" y="299"/>
			<point x="188" y="218"/>
			<point x="88" y="126" type="curve" smooth="yes"/>
			<point x="37" y="80"/>
			<point x="14" y="42"/>
			<point x="-6" y="1" type="curve"/>
			<point x="10" y="-10" type="line"/>
		</contour>
		<contour>
			<point x="56" y="276" type="line"/>
			<point x="103" y="271" type="line"/>
			<point x="161" y="453" type="line"/>
			<point x="103" y="399" type="line"/>
			<point x="201" y="380"/>
			<point x="280" y="362"/>
			<point x="369" y="338" type="curve"/>
			<point x="431" y="403" type="line"/>
			<point x="342" y="447"/>
			<point x="254" y="477"/>
			<point x="161" y="505" type="curve"/>
			<point x="75" y="439" type="line"/>
		</contour>
	</outline>
	<anchor name="aboveLC" x="321" y="510"/>
	<anchor name="belowLC" x="174" y="-20"/>
</glyph>
<glyph name="braceleft" format="2">
	<unicode hex="007B"/>
	<advance width="363"/>
	<outline>
		<contour>
			<point x="46" y="253" type="line"/>
			<point x="115" y="244"/>
			<point x="137" y="220"/>
			<point x="137" y="184" type="curve" smooth="yes"/>
			<point x="137" y="115"/>
			<point x="64" y="32"/>
			<point x="64" y="-57" type="curve" smooth="yes"/>
			<point x="64" y="-125"/>
			<point x="119" y="-159"/>
			<point x="217" y="-159" type="curve" smooth="yes"/>
			<point x="255" y="-159" type="line"/>
			<point x="264" y="-109" type="line"/>
			<point x="233" y="-106" type="line" smooth="yes"/>
			<point x="189" y="-101"/>
			<point x="166" y="-82"/>
			<point x="166" y="-46" type="curve" smooth="yes"/>
			<point x="166" y="16"/>
			<point x="216" y="118"/>
			<point x="216" y="183" type="curve" smooth="yes"/>
			<point x="216" y="242"/>
			<point x="176" y="277"/>
			<point x="88" y="281" type="curve"/>
			<point x="86" y="275" type="line"/>
			<point x="198" y="282"/>
			<point x="262" y="337"/>
			<point x="262" y="426" type="curve" smooth="yes"/>
			<point x="262" y="461"/>
			<point x="259" y="509"/>
			<point x="259" y="544" type="curve" smooth="yes"/>
			<point x="259" y="620"/>
			<point x="285" y="656"/>
			<point x="370" y="663" type="curve" smooth="yes"/>
			<point x="396" y="665" type="line"/>
			<point x="405" y="715" type="line"/>
			<point x="371" y="715" type="line" smooth="yes"/>
			<point x="231" y="715"/>
			<point x="159" y="661"/>
			<point x="159" y="556" type="curve" smooth="yes"/>
			<point x="159" y="502"/>
			<point x="178" y="455"/>
			<point x="178" y="414" type="curve" smooth="yes"/>
			<point x="178" y="353"/>
			<point x="148" y="315"/>
			<point x="53" y="303" type="curve"/>
		</contour>
	</outline>
</glyph>
<glyph name="bar" format="2">
	<unicode hex="007C"/>
	<advance width="259"/>
	<outline>
		<contour>
			<point x="88" y="-242" type="line"/>
			<point x="168" y="-242" type="line"/>
			<point x="168" y="748" type="line"/>
			<point x="88" y="748" type="line"/>
		</contour>
	</outline>
</glyph>
<glyph name="asciitilde" format="2">
	<unicode hex="007E"/>
	<advance width="545"/>
	<outline>
		<contour>
			<point x="293" y="376" type="curve" smooth="yes"/>
			<point x="253" y="408"/>
			<point x="220" y="426"/>
			<point x="178" y="426" type="curve" smooth="yes"/>
			<point x="108" y="426"/>
			<point x="62" y="382"/>
			<point x="55" y="279" type="curve"/>
			<point x="117" y="269" type="line"/>
			<point x="124" y="330"/>
			<point x="145" y="351"/>
			<point x="174" y="351" type="curve" smooth="yes"/>
			<point x="200" y="351"/>
			<point x="220" y="339"/>
			<point x="253" y="313" type="curve" smooth="yes"/>
			<point x="293" y="281"/>
			<point x="326" y="263"/>
			<point x="367" y="263" type="curve" smooth="yes"/>
			<point x="437" y="263"/>
			<point x="484" y="307"/>
			<point x="491" y="411" type="curve"/>
			<point x="429" y="420" type="line"/>
			<point x="421" y="360"/>
			<point x="401" y="339"/>
			<point x="372" y="339" type="curve" smooth="yes"/>
			<point x="346" y="339"/>
			<point x="326" y="350"/>
		</contour>
	</outline>
</glyph>
<glyph name="cent" format="2">
	<unicode hex="00A2"/>
	<advance width="539"/>
	<outline>
		<contour>
			<point x="64" y="244" type="curve" smooth="yes"/>
			<point x="64" y="120"/>
			<point x="134" y="52"/>
			<point x="234" y="52" type="curve" smooth="yes"/>
			<point x="329" y="52"/>
			<point x="402" y="118"/>
			<point x="441" y="188" type="curve"/>
			<point x="411" y="212" type="line"/>
			<point x="375" y="169"/>
			<point x="334" y="138"/>
			<point x="282" y="138" type="curve" smooth="yes"/>
			<point x="218" y="138"/>
			<point x="173" y="178"/>
			<point x="173" y="264" type="curve" smooth="yes"/>
			<point x="173" y="378"/>
			<point x="235" y="511"/>
			<point x="339" y="511" type="curve" smooth="yes"/>
			<point x="383" y="511"/>
			<point x="407" y="503"/>
			<point x="433" y="491" type="curve"/>
			<point x="384" y="525" type="line"/>
			<point x="394" y="443" type="line" smooth="yes"/>
			<point x="399" y="394"/>
			<point x="415" y="376"/>
			<point x="448" y="376" type="curve" smooth="yes"/>
			<point x="472" y="376"/>
			<point x="493" y="393"/>
			<point x="497" y="424" type="curve" smooth="yes"/>
			<point x="493" y="504"/>
			<point x="429" y="559"/>
			<point x="334" y="559" type="curve" smooth="yes"/>
			<point x="189" y="559"/>
			<point x="64" y="413"/>
		</contour>
		<contour>
			<point x="249" y="-45" type="line"/>
			<point x="385" y="657" type="line"/>
			<point x="337" y="657" type="line"/>
			<point x="201" y="-45" type="line"/>
		</contour>
	</outline>
</glyph>
<glyph name="currency" format="2">
	<unicode hex="00A4"/>
	<advance width="528"/>
	<outline>
		<contour>
			<point x="401" y="425" type="line"/>
			<point x="453" y="453" type="line" smooth="yes"/>
			<point x="495" y="478"/>
			<point x="518" y="496"/>
			<point x="518" y="520" type="curve" smooth="yes"/>
			<point x="518" y="542"/>
			<point x="499" y="561"/>
			<point x="478" y="561" type="curve" smooth="yes"/>
			<point x="453" y="561"/>
			<point x="435" y="538"/>
			<point x="411" y="496" type="curve" smooth="yes"/>
			<point x="382" y="445" type="line"/>
		</contour>
		<contour>
			<point x="180" y="326" type="curve" smooth="yes"/>
			<point x="180" y="391"/>
			<point x="228" y="435"/>
			<point x="284" y="435" type="curve" smooth="yes"/>
			<point x="340" y="435"/>
			<point x="387" y="391"/>
			<point x="387" y="326" type="curve" smooth="yes"/>
			<point x="387" y="262"/>
			<point x="340" y="218"/>
			<point x="284" y="218" type="curve" smooth="yes"/>
			<point x="228" y="218"/>
			<point x="180" y="262"/>
		</contour>
		<contour>
			<point x="112" y="326" type="curve" smooth="yes"/>
			<point x="112" y="225"/>
			<point x="191" y="157"/>
			<point x="284" y="157" type="curve" smooth="yes"/>
			<point x="376" y="157"/>
			<point x="454" y="226"/>
			<point x="454" y="326" type="curve" smooth="yes"/>
			<point x="454" y="428"/>
			<point x="376" y="496"/>
			<point x="284" y="496" type="curve" smooth="yes"/>
			<point x="191" y="496"/>
			<point x="112" y="428"/>
		</contour>
		<contour>
			<point x="185" y="444" type="line"/>
			<point x="157" y="496" type="line" smooth="yes"/>
			<point x="132" y="538"/>
			<point x="114" y="561"/>
			<point x="90" y="561" type="curve" smooth="yes"/>
			<point x="68" y="561"/>
			<point x="50" y="542"/>
			<point x="50" y="520" type="curve" smooth="yes"/>
			<point x="50" y="496"/>
			<point x="72" y="478"/>
			<point x="115" y="453" type="curve" smooth="yes"/>
			<point x="165" y="425" type="line"/>
		</contour>
		<contour>
			<point x="166" y="228" type="line"/>
			<point x="115" y="199" type="line" smooth="yes"/>
			<point x="72" y="175"/>
			<point x="50" y="157"/>
			<point x="50" y="132" type="curve" smooth="yes"/>
			<point x="50" y="110"/>
			<point x="68" y="92"/>
			<point x="90" y="92" type="curve" smooth="yes"/>
			<point x="114" y="92"/>
			<point x="133" y="115"/>
			<point x="157" y="157" type="curve" smooth="yes"/>
			<point x="185" y="208" type="line"/>
		</contour>
		<contour>
			<point x="382" y="209" type="line"/>
			<point x="411" y="157" type="line" smooth="yes"/>
			<point x="435" y="115"/>
			<point x="453" y="92"/>
			<point x="478" y="92" type="curve" smooth="yes"/>
			<point x="500" y="92"/>
			<point x="518" y="111"/>
			<point x="518" y="132" type="curve" smooth="yes"/>
			<point x="518" y="157"/>
			<point x="495" y="175"/>
			<point x="453" y="199" type="curve" smooth="yes"/>
			<point x="402" y="228" type="line"/>
		</contour>
	</outline>
</glyph>
<glyph name="yen" format="2">
	<unicode hex="00A5"/>
	<advance width="539"/>
	<outline>
		<contour>
			<point x="47" y="141" type="line"/>
			<point x="442" y="141" type="line"/>
			<point x="452" y="195" type="line"/>
			<point x="58" y="195" type="line"/>
		</contour>
		<contour>
			<point x="67" y="0" type="line"/>
			<point x="367" y="0" type="line"/>
			<point x="376" y="52" type="line"/>
			<point x="248" y="61" type="line"/>
			<point x="207" y="61" type="line"/>
			<point x="76" y="52" type="line"/>
		</contour>
		<contour>
			<point x="72" y="267" type="line"/>
			<point x="467" y="267" type="line"/>
			<point x="477" y="320" type="line"/>
			<point x="82" y="320" type="line"/>
		</contour>
		<contour>
			<point x="160" y="0" type="line"/>
			<point x="276" y="0" type="line"/>
			<point x="292" y="89"/>
			<point x="304" y="155"/>
			<point x="334" y="308" type="curve"/>
			<point x="220" y="308" type="line"/>
		</contour>
		<contour>
			<point x="174" y="577" type="line"/>
			<point x="203" y="577" type="line"/>
			<point x="314" y="587" type="line"/>
			<point x="324" y="639" type="line"/>
			<point x="73" y="639" type="line"/>
			<point x="63" y="587" type="line"/>
		</contour>
		<contour>
			<point x="225" y="250" type="line"/>
			<point x="311" y="250" type="line"/>
			<point x="563" y="639" type="line"/>
			<point x="498" y="639" type="line"/>
			<point x="333" y="374" type="line"/>
			<point x="306" y="322" type="line"/>
			<point x="308" y="322" type="line"/>
			<point x="229" y="639" type="line"/>
			<point x="108" y="639" type="line"/>
		</contour>
		<contour>
			<point x="483" y="577" type="line"/>
			<point x="507" y="577" type="line"/>
			<point x="586" y="587" type="line"/>
			<point x="596" y="639" type="line"/>
			<point x="408" y="639" type="line"/>
			<point x="398" y="587" type="line"/>
		</contour>
	</outline>
</glyph>
<glyph name="brokenbar" format="2">
	<unicode hex="00A6"/>
	<advance width="259"/>
	<outline>
		<contour>
			<point x="88" y="-242" type="line"/>
			<point x="168" y="-242" type="line"/>
			<point x="168" y="199" type="line"/>
			<point x="88" y="199" type="line"/>
		</contour>
		<contour>
			<point x="168" y="323" type="line"/>
			<point x="168" y="748" type="line"/>
			<point x="88" y="748" type="line"/>
			<point x="88" y="323" type="line"/>
		</contour>
	</outline>
</glyph>
<glyph name="copyright" format="2">
	<unicode hex="00A9"/>
	<advance width="783"/>
	<outline>
		<contour>
			<point x="375" y="-17" type="curve" smooth="yes"/>
			<point x="571" y="-17"/>
			<point x="753" y="130"/>
			<point x="753" y="370" type="curve" smooth="yes"/>
			<point x="753" y="563"/>
			<point x="620" y="680"/>
			<point x="435" y="680" type="curve" smooth="yes"/>
			<point x="240" y="680"/>
			<point x="58" y="533"/>
			<point x="58" y="293" type="curve" smooth="yes"/>
			<point x="58" y="100"/>
			<point x="190" y="-17"/>
		</contour>
		<contour>
			<point x="375" y="29" type="curve" smooth="yes"/>
			<point x="222" y="29"/>
			<point x="113" y="130"/>
			<point x="113" y="297" type="curve" smooth="yes"/>
			<point x="113" y="505"/>
			<point x="268" y="634"/>
			<point x="435" y="634" type="curve" smooth="yes"/>
			<point x="589" y="634"/>
			<point x="697" y="534"/>
			<point x="697" y="367" type="curve" smooth="yes"/>
			<point x="697" y="158"/>
			<point x="543" y="29"/>
		</contour>
		<contour>
			<point x="403" y="130" type="curve" smooth="yes"/>
			<point x="450" y="130"/>
			<point x="484" y="142"/>
			<point x="511" y="155" type="curve"/>
			<point x="527" y="254" type="line"/>
			<point x="480" y="254" type="line"/>
			<point x="447" y="158" type="line"/>
			<point x="496" y="192" type="line"/>
			<point x="472" y="181"/>
			<point x="449" y="173"/>
			<point x="419" y="173" type="curve" smooth="yes"/>
			<point x="354" y="173"/>
			<point x="309" y="221"/>
			<point x="309" y="311" type="curve" smooth="yes"/>
			<point x="309" y="407"/>
			<point x="358" y="496"/>
			<point x="452" y="496" type="curve" smooth="yes"/>
			<point x="488" y="496"/>
			<point x="514" y="487"/>
			<point x="533" y="470" type="curve"/>
			<point x="494" y="509" type="line"/>
			<point x="498" y="413" type="line"/>
			<point x="546" y="413" type="line"/>
			<point x="558" y="512" type="line"/>
			<point x="527" y="530"/>
			<point x="495" y="539"/>
			<point x="450" y="539" type="curve" smooth="yes"/>
			<point x="317" y="539"/>
			<point x="225" y="438"/>
			<point x="225" y="309" type="curve" smooth="yes"/>
			<point x="225" y="194"/>
			<point x="302" y="130"/>
		</contour>
	</outline>
</glyph>
<glyph name="logicalnot" format="2">
	<unicode hex="00AC"/>
	<advance width="545"/>
	<outline>
		<contour>
			<point x="39" y="326" type="line"/>
			<point x="447" y="326" type="line"/>
			<point x="422" y="357" type="line"/>
			<point x="422" y="152" type="line"/>
			<point x="498" y="152" type="line"/>
			<point x="498" y="399" type="line"/>
			<point x="39" y="399" type="line"/>
		</contour>
	</outline>
</glyph>
<glyph name="registered" format="2">
	<unicode hex="00AE"/>
	<advance width="475"/>
	<outline>
		<contour>
			<point x="179" y="418" type="line"/>
			<point x="276" y="418" type="line"/>
			<point x="280" y="438" type="line"/>
			<point x="238" y="441" type="line"/>
			<point x="223" y="441" type="line"/>
			<point x="182" y="438" type="line"/>
		</contour>
		<contour>
			<point x="202" y="418" type="line"/>
			<point x="252" y="418" type="line"/>
			<point x="291" y="618" type="line"/>
			<point x="242" y="618" type="line"/>
		</contour>
		<contour>
			<point x="254" y="594" type="line"/>
			<point x="259" y="594" type="line"/>
			<point x="262" y="618" type="line"/>
			<point x="218" y="618" type="line"/>
			<point x="214" y="597" type="line"/>
		</contour>
		<contour>
			<point x="271" y="349" type="curve" smooth="yes"/>
			<point x="189" y="349"/>
			<point x="129" y="403"/>
			<point x="129" y="493" type="curve" smooth="yes"/>
			<point x="129" y="606"/>
			<point x="211" y="676"/>
			<point x="303" y="676" type="curve" smooth="yes"/>
			<point x="384" y="676"/>
			<point x="443" y="622"/>
			<point x="443" y="533" type="curve" smooth="yes"/>
			<point x="443" y="419"/>
			<point x="361" y="349"/>
		</contour>
		<contour>
			<point x="269" y="312" type="curve" smooth="yes"/>
			<point x="382" y="312"/>
			<point x="486" y="398"/>
			<point x="486" y="535" type="curve" smooth="yes"/>
			<point x="486" y="645"/>
			<point x="408" y="713"/>
			<point x="304" y="713" type="curve" smooth="yes"/>
			<point x="190" y="713"/>
			<point x="86" y="628"/>
			<point x="86" y="491" type="curve" smooth="yes"/>
			<point x="86" y="380"/>
			<point x="165" y="312"/>
		</contour>
		<contour>
			<point x="349" y="414" type="curve" smooth="yes"/>
			<point x="361" y="414"/>
			<point x="370" y="415"/>
			<point x="381" y="418" type="curve"/>
			<point x="384" y="438" type="line"/>
			<point x="335" y="441" type="line"/>
			<point x="365" y="425" type="line"/>
			<point x="348" y="477" type="line" smooth="yes"/>
			<point x="340" y="502"/>
			<point x="328" y="514"/>
			<point x="297" y="515" type="curve"/>
			<point x="292" y="515" type="line"/>
			<point x="351" y="516"/>
			<point x="378" y="536"/>
			<point x="378" y="569" type="curve" smooth="yes"/>
			<point x="378" y="600"/>
			<point x="352" y="618"/>
			<point x="310" y="618" type="curve" smooth="yes"/>
			<point x="272" y="618" type="line"/>
			<point x="269" y="597" type="line"/>
			<point x="302" y="597" type="line" smooth="yes"/>
			<point x="321" y="597"/>
			<point x="331" y="588"/>
			<point x="331" y="566" type="curve" smooth="yes"/>
			<point x="331" y="542"/>
			<point x="317" y="526"/>
			<point x="286" y="526" type="curve" smooth="yes"/>
			<point x="255" y="525" type="line"/>
			<point x="253" y="506" type="line"/>
			<point x="276" y="506" type="line" smooth="yes"/>
			<point x="290" y="506"/>
			<point x="295" y="500"/>
			<point x="299" y="481" type="curve" smooth="yes"/>
			<point x="309" y="444" type="line" smooth="yes"/>
			<point x="314" y="422"/>
			<point x="325" y="414"/>
		</contour>
	</outline>
</glyph>
<glyph name="plusminus" format="2">
	<unicode hex="00B1"/>
	<advance width="545"/>
	<outline>
		<contour>
			<point x="229" y="124" type="line"/>
			<point x="305" y="124" type="line"/>
			<point x="305" y="548" type="line"/>
			<point x="229" y="548" type="line"/>
		</contour>
		<contour>
			<point x="497" y="301" type="line"/>
			<point x="497" y="374" type="line"/>
			<point x="37" y="374" type="line"/>
			<point x="37" y="301" type="line"/>
		</contour>
		<contour>
			<point x="497" y="0" type="line"/>
			<point x="497" y="72" type="line"/>
			<point x="37" y="72" type="line"/>
			<point x="37" y="0" type="line"/>
		</contour>
	</outline>
</glyph>
<glyph name="two.sups" format="2">
	<unicode hex="00B2"/>
	<advance width="378"/>
	<outline>
		<contour>
			<point x="94" y="414" type="line"/>
			<point x="375" y="414" type="line"/>
			<point x="391" y="490" type="line"/>
			<point x="169" y="490" type="line"/>
			<point x="172" y="488" type="line"/>
			<point x="363" y="617"/>
			<point x="421" y="659"/>
			<point x="420" y="727" type="curve" smooth="yes"/>
			<point x="420" y="787"/>
			<point x="377" y="827"/>
			<point x="299" y="827" type="curve" smooth="yes"/>
			<point x="221" y="827"/>
			<point x="164" y="796"/>
			<point x="145" y="716" type="curve"/>
			<point x="148" y="691"/>
			<point x="162" y="678"/>
			<point x="185" y="678" type="curve" smooth="yes"/>
			<point x="211" y="677"/>
			<point x="229" y="692"/>
			<point x="231" y="733" type="curve" smooth="yes"/>
			<point x="234" y="806" type="line"/>
			<point x="201" y="770" type="line"/>
			<point x="219" y="783"/>
			<point x="242" y="789"/>
			<point x="266" y="789" type="curve" smooth="yes"/>
			<point x="303" y="789"/>
			<point x="328" y="769"/>
			<point x="328" y="724" type="curve" smooth="yes"/>
			<point x="328" y="673"/>
			<point x="290" y="625"/>
			<point x="105" y="472" type="curve"/>
		</contour>
	</outline>
</glyph>
<glyph name="three.sups" format="2">
	<unicode hex="00B3"/>
	<advance width="378"/>
	<outline>
		<contour>
			<point x="223" y="413" type="curve" smooth="yes"/>
			<point x="326" y="413"/>
			<point x="396" y="458"/>
			<point x="396" y="532" type="curve" smooth="yes"/>
			<point x="396" y="594"/>
			<point x="353" y="623"/>
			<point x="271" y="630" type="curve"/>
			<point x="270" y="628" type="line"/>
			<point x="368" y="638"/>
			<point x="416" y="682"/>
			<point x="416" y="740" type="curve" smooth="yes"/>
			<point x="416" y="795"/>
			<point x="373" y="835"/>
			<point x="287" y="835" type="curve" smooth="yes"/>
			<point x="211" y="835"/>
			<point x="158" y="800"/>
			<point x="151" y="735" type="curve"/>
			<point x="157" y="722"/>
			<point x="170" y="712"/>
			<point x="187" y="712" type="curve" smooth="yes"/>
			<point x="209" y="712"/>
			<point x="226" y="725"/>
			<point x="230" y="755" type="curve" smooth="yes"/>
			<point x="240" y="816" type="line"/>
			<point x="207" y="788" type="line"/>
			<point x="224" y="795"/>
			<point x="243" y="799"/>
			<point x="260" y="799" type="curve" smooth="yes"/>
			<point x="298" y="799"/>
			<point x="325" y="780"/>
			<point x="325" y="734" type="curve" smooth="yes"/>
			<point x="325" y="677"/>
			<point x="286" y="646"/>
			<point x="213" y="646" type="curve"/>
			<point x="205" y="609" type="line"/>
			<point x="269" y="609"/>
			<point x="299" y="586"/>
			<point x="299" y="536" type="curve" smooth="yes"/>
			<point x="300" y="478"/>
			<point x="259" y="449"/>
			<point x="209" y="449" type="curve" smooth="yes"/>
			<point x="177" y="449"/>
			<point x="159" y="454"/>
			<point x="143" y="463" type="curve"/>
			<point x="180" y="434" type="line"/>
			<point x="177" y="497" type="line" smooth="yes"/>
			<point x="175" y="534"/>
			<point x="160" y="546"/>
			<point x="137" y="546" type="curve" smooth="yes"/>
			<point x="119" y="546"/>
			<point x="105" y="536"/>
			<point x="99" y="516" type="curve"/>
			<point x="101" y="449"/>
			<point x="145" y="413"/>
		</contour>
	</outline>
</glyph>
<glyph name="paragraph" format="2">
	<unicode hex="00B6"/>
	<advance width="624"/>
	<outline>
		<contour>
			<point x="547" y="664" type="line"/>
			<point x="535" y="599" type="line"/>
			<point x="546" y="599" type="line"/>
			<point x="669" y="609" type="line"/>
			<point x="678" y="664" type="line"/>
		</contour>
		<contour>
			<point x="347" y="-124" type="line"/>
			<point x="452" y="-124" type="line"/>
			<point x="469" y="-20"/>
			<point x="487" y="84"/>
			<point x="506" y="187" type="curve" smooth="yes"/>
			<point x="594" y="664" type="line"/>
			<point x="492" y="664" type="line"/>
		</contour>
		<contour>
			<point x="407" y="606" type="line"/>
			<point x="523" y="606" type="line"/>
			<point x="533" y="664" type="line"/>
			<point x="443" y="664" type="line" smooth="yes"/>
			<point x="203" y="664"/>
			<point x="72" y="539"/>
			<point x="72" y="364" type="curve" smooth="yes"/>
			<point x="72" y="222"/>
			<point x="178" y="151"/>
			<point x="319" y="132" type="curve"/>
		</contour>
	</outline>
</glyph>
<glyph name="one.sups" format="2">
	<unicode hex="00B9"/>
	<advance width="378"/>
	<outline>
		<contour>
			<point x="110" y="414" type="line"/>
			<point x="369" y="414" type="line"/>
			<point x="376" y="450" type="line"/>
			<point x="269" y="458" type="line"/>
			<point x="222" y="458" type="line"/>
			<point x="117" y="450" type="line"/>
		</contour>
		<contour>
			<point x="189" y="414" type="line"/>
			<point x="284" y="414" type="line"/>
			<point x="350" y="729" type="line"/>
			<point x="370" y="820" type="line"/>
			<point x="355" y="824" type="line"/>
			<point x="193" y="785" type="line"/>
			<point x="185" y="752" type="line"/>
			<point x="284" y="758" type="line"/>
			<point x="263" y="780" type="line"/>
		</contour>
	</outline>
</glyph>
<glyph name="AE" format="2">
	<unicode hex="00C6"/>
	<advance width="919"/>
	<outline>
		<contour>
			<point x="463" y="0" type="line"/>
			<point x="824" y="0" type="line"/>
			<point x="863" y="178" type="line"/>
			<point x="797" y="178" type="line"/>
			<point x="731" y="7" type="line"/>
			<point x="802" y="57" type="line"/>
			<point x="470" y="57" type="line"/>
		</contour>
		<contour>
			<point x="816" y="488" type="line"/>
			<point x="883" y="488" type="line"/>
			<point x="908" y="664" type="line"/>
			<point x="578" y="664" type="line"/>
			<point x="571" y="606" type="line"/>
			<point x="859" y="606" type="line"/>
			<point x="815" y="653" type="line"/>
		</contour>
		<contour>
			<point x="-36" y="0" type="line"/>
			<point x="192" y="0" type="line"/>
			<point x="203" y="53" type="line"/>
			<point x="102" y="63" type="line"/>
			<point x="75" y="63" type="line"/>
			<point x="-25" y="53" type="line"/>
		</contour>
		<contour>
			<point x="392" y="0" type="line"/>
			<point x="516" y="0" type="line"/>
			<point x="533" y="102"/>
			<point x="551" y="205"/>
			<point x="570" y="308" type="curve" smooth="yes"/>
			<point x="636" y="664" type="line"/>
			<point x="512" y="664" type="line"/>
			<point x="495" y="561"/>
			<point x="477" y="459"/>
			<point x="458" y="357" type="curve" smooth="yes"/>
		</contour>
		<contour>
			<point x="694" y="227" type="line"/>
			<point x="748" y="227" type="line"/>
			<point x="790" y="453" type="line"/>
			<point x="736" y="453" type="line"/>
			<point x="700" y="352" type="line"/>
			<point x="697" y="331" type="line"/>
		</contour>
		<contour>
			<point x="309" y="0" type="line"/>
			<point x="449" y="0" type="line"/>
			<point x="456" y="63" type="line"/>
			<point x="444" y="63" type="line"/>
			<point x="319" y="53" type="line"/>
		</contour>
		<contour>
			<point x="338" y="610" type="line"/>
			<point x="491" y="600" type="line"/>
			<point x="551" y="600" type="line"/>
			<point x="559" y="664" type="line"/>
			<point x="348" y="664" type="line"/>
		</contour>
		<contour>
			<point x="14" y="0" type="line"/>
			<point x="84" y="0" type="line"/>
			<point x="255" y="251" type="line"/>
			<point x="531" y="664" type="line"/>
			<point x="474" y="664" type="line"/>
		</contour>
		<contour>
			<point x="219" y="224" type="line"/>
			<point x="501" y="224" type="line"/>
			<point x="501" y="278" type="line"/>
			<point x="219" y="278" type="line"/>
		</contour>
		<contour>
			<point x="519" y="312" type="line"/>
			<point x="735" y="312" type="line"/>
			<point x="735" y="367" type="line"/>
			<point x="519" y="367" type="line"/>
		</contour>
	</outline>
	<anchor name="aboveUC" x="652" y="684"/>
</glyph>
<glyph name="Eth" format="2">
	<unicode hex="00D0"/>
	<advance width="706"/>
	<outline>
		<contour>
			<point x="399" y="313" type="line"/>
			<point x="408" y="367" type="line"/>
			<point x="52" y="367" type="line"/>
			<point x="43" y="313" type="line"/>
		</contour>
		<component base="D"/>
	</outline>
</glyph>
<glyph name="multiply" format="2">
	<unicode hex="00D7"/>
	<advance width="545"/>
	<outline>
		<contour>
			<point x="437" y="108" type="line"/>
			<point x="489" y="160" type="line"/>
			<point x="104" y="545" type="line"/>
			<point x="52" y="493" type="line"/>
		</contour>
		<contour>
			<point x="489" y="493" type="line"/>
			<point x="437" y="545" type="line"/>
			<point x="52" y="160" type="line"/>
			<point x="104" y="108" type="line"/>
		</contour>
	</outline>
</glyph>
<glyph name="Oslash" format="2">
	<unicode hex="00D8"/>
	<advance width="688"/>
	<outline>
		<contour>
			<point x="691" y="649" type="line"/>
			<point x="649" y="688" type="line"/>
			<point x="-5" y="15" type="line"/>
			<point x="37" y="-25" type="line"/>
		</contour>
		<contour>
			<point x="295" y="-17" type="curve" smooth="yes"/>
			<point x="513" y="-17"/>
			<point x="662" y="185"/>
			<point x="662" y="409" type="curve" smooth="yes"/>
			<point x="662" y="578"/>
			<point x="562" y="680"/>
			<point x="412" y="680" type="curve" smooth="yes"/>
			<point x="196" y="680"/>
			<point x="46" y="478"/>
			<point x="46" y="255" type="curve" smooth="yes"/>
			<point x="46" y="78"/>
			<point x="148" y="-17"/>
		</contour>
		<contour>
			<point x="305" y="41" type="curve" smooth="yes"/>
			<point x="211" y="41"/>
			<point x="165" y="102"/>
			<point x="165" y="240" type="curve" smooth="yes"/>
			<point x="165" y="444"/>
			<point x="270" y="623"/>
			<point x="403" y="623" type="curve" smooth="yes"/>
			<point x="499" y="623"/>
			<point x="543" y="564"/>
			<point x="543" y="426" type="curve" smooth="yes"/>
			<point x="543" y="223"/>
			<point x="439" y="41"/>
		</contour>
	</outline>
	<anchor name="aboveUC" x="413" y="684"/>
</glyph>
<glyph name="Thorn" format="2">
	<unicode hex="00DE"/>
	<advance width="588"/>
	<outline>
		<contour>
			<point x="174" y="148" type="line"/>
			<point x="281" y="148" type="line" smooth="yes"/>
			<point x="479" y="148"/>
			<point x="584" y="241"/>
			<point x="584" y="360" type="curve" smooth="yes"/>
			<point x="584" y="467"/>
			<point x="506" y="533"/>
			<point x="340" y="533" type="curve" smooth="yes"/>
			<point x="249" y="533" type="line"/>
			<point x="242" y="477" type="line"/>
			<point x="330" y="477" type="line" smooth="yes"/>
			<point x="418" y="477"/>
			<point x="461" y="437"/>
			<point x="461" y="361" type="curve" smooth="yes"/>
			<point x="461" y="265"/>
			<point x="401" y="201"/>
			<point x="286" y="201" type="curve" smooth="yes"/>
			<point x="180" y="201" type="line"/>
		</contour>
		<contour>
			<point x="-5" y="0" type="line"/>
			<point x="289" y="0" type="line"/>
			<point x="299" y="52" type="line"/>
			<point x="171" y="62" type="line"/>
			<point x="138" y="63" type="line"/>
			<point x="6" y="53" type="line"/>
		</contour>
		<contour>
			<point x="78" y="0" type="line"/>
			<point x="203" y="0" type="line"/>
			<point x="220" y="102"/>
			<point x="238" y="205"/>
			<point x="257" y="308" type="curve" smooth="yes"/>
			<point x="323" y="664" type="line"/>
			<point x="198" y="664" type="line"/>
			<point x="181" y="561"/>
			<point x="163" y="459"/>
			<point x="144" y="357" type="curve" smooth="yes"/>
		</contour>
		<contour>
			<point x="102" y="610" type="line"/>
			<point x="233" y="600" type="line"/>
			<point x="266" y="601" type="line"/>
			<point x="395" y="611" type="line"/>
			<point x="405" y="664" type="line"/>
			<point x="112" y="664" type="line"/>
		</contour>
	</outline>
</glyph>
<glyph name="ae" format="2">
	<unicode hex="00E6"/>
	<advance width="809"/>
	<outline>
		<contour>
			<point x="166" y="-13" type="curve" smooth="yes"/>
			<point x="241" y="-13"/>
			<point x="290" y="28"/>
			<point x="341" y="105" type="curve"/>
			<point x="372" y="105" type="line"/>
			<point x="377" y="183" type="line"/>
			<point x="302" y="98"/>
			<point x="269" y="81"/>
			<point x="233" y="81" type="curve" smooth="yes"/>
			<point x="191" y="81"/>
			<point x="174" y="110"/>
			<point x="174" y="176" type="curve" smooth="yes"/>
			<point x="174" y="244"/>
			<point x="198" y="321"/>
			<point x="239" y="375" type="curve" smooth="yes"/>
			<point x="271" y="422"/>
			<point x="310" y="455"/>
			<point x="359" y="455" type="curve" smooth="yes"/>
			<point x="395" y="455"/>
			<point x="427" y="441"/>
			<point x="459" y="405" type="curve"/>
			<point x="509" y="471" type="line"/>
			<point x="472" y="508"/>
			<point x="433" y="524"/>
			<point x="376" y="524" type="curve" smooth="yes"/>
			<point x="220" y="524"/>
			<point x="43" y="332"/>
			<point x="43" y="134" type="curve" smooth="yes"/>
			<point x="43" y="32"/>
			<point x="91" y="-13"/>
		</contour>
		<component base="e" xOffset="301"/>
	</outline>
	<anchor name="aboveLC" x="474" y="531"/>
	<anchor name="belowLC" x="356" y="-20"/>
</glyph>
<glyph name="idieresis" format="2">
	<unicode hex="00EF"/>
	<advance width="321"/>
	<outline>
		<contour>
			<point x="143" y="612" type="curve" smooth="yes"/>
			<point x="180" y="612"/>
			<point x="211" y="642"/>
			<point x="211" y="683" type="curve" smooth="yes"/>
			<point x="211" y="715"/>
			<point x="187" y="738"/>
			<point x="154" y="738" type="curve" smooth="yes"/>
			<point x="118" y="738"/>
			<point x="85" y="708"/>
			<point x="85" y="668" type="curve" smooth="yes"/>
			<point x="85" y="634"/>
			<point x="111" y="612"/>
		</contour>
		<contour>
			<point x="328" y="612" type="curve" smooth="yes"/>
			<point x="366" y="612"/>
			<point x="397" y="642"/>
			<point x="397" y="683" type="curve" smooth="yes"/>
			<point x="397" y="715"/>
			<point x="373" y="738"/>
			<point x="340" y="738" type="curve" smooth="yes"/>
			<point x="303" y="738"/>
			<point x="271" y="708"/>
			<point x="271" y="668" type="curve" smooth="yes"/>
			<point x="271" y="634"/>
			<point x="297" y="612"/>
		</contour>
		<component base="dotlessi"/>
	</outline>
</glyph>
<glyph name="eth" format="2">
	<unicode hex="00F0"/>
	<advance width="531"/>
	<outline>
		<contour>
			<point x="225" y="-13" type="curve" smooth="yes"/>
			<point x="377" y="-13"/>
			<point x="505" y="125"/>
			<point x="505" y="342" type="curve" smooth="yes"/>
			<point x="505" y="542"/>
			<point x="396" y="675"/>
			<point x="233" y="740" type="curve"/>
			<point x="206" y="700" type="line"/>
			<point x="340" y="627"/>
			<point x="395" y="530"/>
			<point x="409" y="365" type="curve"/>
			<point x="423" y="383" type="line"/>
			<point x="406" y="445"/>
			<point x="369" y="486"/>
			<point x="297" y="486" type="curve" smooth="yes"/>
			<point x="159" y="486"/>
			<point x="38" y="354"/>
			<point x="38" y="180" type="curve" smooth="yes"/>
			<point x="38" y="51"/>
			<point x="115" y="-13"/>
		</contour>
		<contour>
			<point x="235" y="38" type="curve" smooth="yes"/>
			<point x="186" y="38"/>
			<point x="157" y="75"/>
			<point x="157" y="169" type="curve" smooth="yes"/>
			<point x="157" y="312"/>
			<point x="224" y="434"/>
			<point x="310" y="434" type="curve" smooth="yes"/>
			<point x="359" y="434"/>
			<point x="387" y="403"/>
			<point x="387" y="318" type="curve" smooth="yes"/>
			<point x="387" y="167"/>
			<point x="321" y="38"/>
		</contour>
		<contour>
			<point x="207" y="534" type="line"/>
			<point x="504" y="684" type="line"/>
			<point x="484" y="726" type="line"/>
			<point x="186" y="571" type="line"/>
		</contour>
	</outline>
</glyph>
<glyph name="divide" format="2">
	<unicode hex="00F7"/>
	<advance width="545"/>
	<outline>
		<contour>
			<point x="271" y="67" type="curve" smooth="yes"/>
			<point x="309" y="67"/>
			<point x="339" y="94"/>
			<point x="339" y="134" type="curve" smooth="yes"/>
			<point x="339" y="173"/>
			<point x="309" y="201"/>
			<point x="271" y="201" type="curve" smooth="yes"/>
			<point x="232" y="201"/>
			<point x="202" y="173"/>
			<point x="202" y="134" type="curve" smooth="yes"/>
			<point x="202" y="94"/>
			<point x="232" y="67"/>
		</contour>
		<contour>
			<point x="271" y="449" type="curve" smooth="yes"/>
			<point x="309" y="449"/>
			<point x="339" y="478"/>
			<point x="339" y="517" type="curve" smooth="yes"/>
			<point x="339" y="557"/>
			<point x="309" y="584"/>
			<point x="271" y="584" type="curve" smooth="yes"/>
			<point x="232" y="584"/>
			<point x="202" y="557"/>
			<point x="202" y="517" type="curve" smooth="yes"/>
			<point x="202" y="478"/>
			<point x="232" y="449"/>
		</contour>
		<component base="minus"/>
	</outline>
</glyph>
<glyph name="oslash" format="2">
	<unicode hex="00F8"/>
	<advance width="538"/>
	<outline>
		<contour>
			<point x="542" y="483" type="line"/>
			<point x="508" y="517" type="line"/>
			<point x="-4" y="9" type="line"/>
			<point x="31" y="-24" type="line"/>
		</contour>
		<contour>
			<point x="226" y="-14" type="curve" smooth="yes"/>
			<point x="386" y="-14"/>
			<point x="508" y="142"/>
			<point x="508" y="315" type="curve" smooth="yes"/>
			<point x="508" y="439"/>
			<point x="431" y="504"/>
			<point x="322" y="504" type="curve" smooth="yes"/>
			<point x="161" y="504"/>
			<point x="38" y="350"/>
			<point x="38" y="175" type="curve" smooth="yes"/>
			<point x="38" y="51"/>
			<point x="118" y="-14"/>
		</contour>
		<contour>
			<point x="238" y="37" type="curve" smooth="yes"/>
			<point x="186" y="37"/>
			<point x="150" y="68"/>
			<point x="150" y="167" type="curve" smooth="yes"/>
			<point x="150" y="310"/>
			<point x="218" y="453"/>
			<point x="310" y="453" type="curve" smooth="yes"/>
			<point x="362" y="453"/>
			<point x="396" y="422"/>
			<point x="396" y="324" type="curve" smooth="yes"/>
			<point x="396" y="184"/>
			<point x="331" y="37"/>
		</contour>
	</outline>
	<anchor name="aboveLC" x="324" y="510"/>
</glyph>
<glyph name="thorn" format="2">
	<unicode hex="00FE"/>
	<advance width="555"/>
	<outline>
		<contour>
			<point x="-73" y="-230" type="line"/>
			<point x="202" y="-230" type="line"/>
			<point x="211" y="-186" type="line"/>
			<point x="87" y="-173" type="line"/>
			<point x="50" y="-173" type="line"/>
			<point x="-65" y="-186" type="line"/>
		</contour>
		<contour>
			<point x="-2" y="-230" type="line"/>
			<point x="112" y="-230" type="line"/>
			<point x="127" y="-145"/>
			<point x="142" y="-59"/>
			<point x="160" y="29" type="curve"/>
			<point x="169" y="39" type="line"/>
			<point x="235" y="358" type="line"/>
			<point x="232" y="367" type="line"/>
			<point x="308" y="721" type="line"/>
			<point x="284" y="731" type="line"/>
			<point x="94" y="683" type="line"/>
			<point x="87" y="642" type="line"/>
			<point x="215" y="628" type="line"/>
			<point x="179" y="656" type="line"/>
			<point x="168" y="589"/>
			<point x="155" y="526"/>
			<point x="139" y="450" type="curve" smooth="yes"/>
		</contour>
		<contour>
			<point x="209" y="-14" type="curve" smooth="yes"/>
			<point x="359" y="-14"/>
			<point x="533" y="180"/>
			<point x="533" y="367" type="curve" smooth="yes"/>
			<point x="533" y="465"/>
			<point x="487" y="504"/>
			<point x="428" y="504" type="curve" smooth="yes"/>
			<point x="355" y="504"/>
			<point x="270" y="443"/>
			<point x="217" y="349" type="curve"/>
			<point x="197" y="349" type="line"/>
			<point x="210" y="312" type="line"/>
			<point x="268" y="382"/>
			<point x="319" y="416"/>
			<point x="357" y="416" type="curve" smooth="yes"/>
			<point x="396" y="416"/>
			<point x="416" y="388"/>
			<point x="416" y="324" type="curve" smooth="yes"/>
			<point x="416" y="254"/>
			<point x="390" y="177"/>
			<point x="354" y="128" type="curve" smooth="yes"/>
			<point x="322" y="83"/>
			<point x="285" y="56"/>
			<point x="241" y="56" type="curve" smooth="yes"/>
			<point x="205" y="56"/>
			<point x="171" y="74"/>
			<point x="141" y="109" type="curve"/>
			<point x="107" y="28" type="line"/>
			<point x="137" y="-1"/>
			<point x="166" y="-14"/>
		</contour>
	</outline>
	<anchor name="aboveLC" x="247" y="733"/>
	<anchor name="belowLC" x="333" y="-20"/>
</glyph>
<glyph name="aogonek" format="2">
	<unicode hex="0105"/>
	<advance width="569"/>
	<outline>
		<contour>
			<point x="140" y="-14" type="curve" smooth="yes"/>
			<point x="211" y="-14"/>
			<point x="284" y="49"/>
			<point x="342" y="134" type="curve"/>
			<point x="362" y="134" type="line"/>
			<point x="352" y="178" type="line"/>
			<point x="285" y="101"/>
			<point x="244" y="75"/>
			<point x="207" y="75" type="curve" smooth="yes"/>
			<point x="171" y="75"/>
			<point x="150" y="103"/>
			<point x="150" y="166" type="curve" smooth="yes"/>
			<point x="150" y="242"/>
			<point x="181" y="328"/>
			<point x="226" y="377" type="curve" smooth="yes"/>
			<point x="258" y="413"/>
			<point x="294" y="434"/>
			<point x="329" y="434" type="curve" smooth="yes"/>
			<point x="361" y="434"/>
			<point x="391" y="419"/>
			<point x="418" y="394" type="curve"/>
			<point x="465" y="438" type="line"/>
			<point x="435" y="479"/>
			<point x="407" y="504"/>
			<point x="361" y="504" type="curve" smooth="yes"/>
			<point x="217" y="504"/>
			<point x="32" y="302"/>
			<point x="32" y="119" type="curve" smooth="yes"/>
			<point x="32" y="23"/>
			<point x="81" y="-14"/>
		</contour>
		<contour>
			<point x="414" y="-234" type="curve" smooth="yes"/>
			<point x="466" y="-234"/>
			<point x="506" y="-207"/>
			<point x="531" y="-183" type="curve"/>
			<point x="514" y="-154" type="line"/>
			<point x="495" y="-166"/>
			<point x="473" y="-176"/>
			<point x="450" y="-176" type="curve" smooth="yes"/>
			<point x="421" y="-176"/>
			<point x="400" y="-158"/>
			<point x="400" y="-122" type="curve" smooth="yes"/>
			<point x="400" y="-76"/>
			<point x="430" y="-32"/>
			<point x="481" y="13" type="curve" smooth="yes"/>
			<point x="514" y="42"/>
			<point x="543" y="76"/>
			<point x="565" y="115" type="curve"/>
			<point x="533" y="137" type="line"/>
			<point x="499" y="90"/>
			<point x="475" y="67"/>
			<point x="452" y="67" type="curve" smooth="yes"/>
			<point x="438" y="67"/>
			<point x="429" y="76"/>
			<point x="429" y="92" type="curve" smooth="yes"/>
			<point x="429" y="105"/>
			<point x="433" y="124"/>
			<point x="439" y="150" type="curve" smooth="yes"/>
			<point x="520" y="506" type="line"/>
			<point x="488" y="513" type="line"/>
			<point x="406" y="452" type="line"/>
			<point x="391" y="449" type="line"/>
			<point x="322" y="137" type="line"/>
			<point x="326" y="132" type="line" smooth="yes"/>
			<point x="321" y="111"/>
			<point x="318" y="90"/>
			<point x="318" y="65" type="curve" smooth="yes"/>
			<point x="318" y="11"/>
			<point x="348" y="-13"/>
			<point x="394" y="-13" type="curve" smooth="yes"/>
			<point x="406" y="-13"/>
			<point x="416" y="-11"/>
			<point x="444" y="-2" type="curve"/>
			<point x="415" y="24" type="line"/>
			<point x="415" y="-14" type="line"/>
			<point x="369" y="-50"/>
			<point x="320" y="-95"/>
			<point x="320" y="-153" type="curve" smooth="yes"/>
			<point x="320" y="-201"/>
			<point x="353" y="-234"/>
		</contour>
	</outline>
	<anchor name="aboveLC" x="366" y="510"/>
	<anchor name="belowLC" x="263" y="-20"/>
</glyph>
<glyph name="dcroat" format="2">
	<unicode hex="0111"/>
	<advance width="573"/>
	<outline>
		<contour>
			<point x="141" y="-14" type="curve" smooth="yes"/>
			<point x="212" y="-14"/>
			<point x="286" y="48"/>
			<point x="342" y="134" type="curve"/>
			<point x="363" y="134" type="line"/>
			<point x="353" y="178" type="line"/>
			<point x="287" y="101"/>
			<point x="248" y="75"/>
			<point x="211" y="75" type="curve" smooth="yes"/>
			<point x="174" y="75"/>
			<point x="150" y="100"/>
			<point x="150" y="166" type="curve" smooth="yes"/>
			<point x="150" y="234"/>
			<point x="178" y="305"/>
			<point x="223" y="356" type="curve" smooth="yes"/>
			<point x="249" y="387"/>
			<point x="286" y="410"/>
			<point x="325" y="410" type="curve" smooth="yes"/>
			<point x="358" y="410"/>
			<point x="383" y="398"/>
			<point x="409" y="371" type="curve"/>
			<point x="460" y="428" type="line"/>
			<point x="428" y="461"/>
			<point x="400" y="478"/>
			<point x="356" y="478" type="curve" smooth="yes"/>
			<point x="209" y="478"/>
			<point x="33" y="296"/>
			<point x="33" y="123" type="curve" smooth="yes"/>
			<point x="33" y="23"/>
			<point x="82" y="-14"/>
		</contour>
		<contour>
			<point x="265" y="533" type="line"/>
			<point x="616" y="533" type="line"/>
			<point x="624" y="573" type="line"/>
			<point x="273" y="573" type="line"/>
		</contour>
		<contour>
			<point x="397" y="-14" type="curve" smooth="yes"/>
			<point x="469" y="-14"/>
			<point x="530" y="45"/>
			<point x="569" y="115" type="curve"/>
			<point x="536" y="137" type="line"/>
			<point x="504" y="89"/>
			<point x="478" y="67"/>
			<point x="456" y="67" type="curve" smooth="yes"/>
			<point x="442" y="67"/>
			<point x="433" y="76"/>
			<point x="433" y="92" type="curve" smooth="yes"/>
			<point x="433" y="104"/>
			<point x="437" y="122"/>
			<point x="442" y="150" type="curve" smooth="yes"/>
			<point x="561" y="721" type="line"/>
			<point x="537" y="731" type="line"/>
			<point x="346" y="683" type="line"/>
			<point x="339" y="642" type="line"/>
			<point x="468" y="628" type="line"/>
			<point x="440" y="660" type="line"/>
			<point x="396" y="449" type="line"/>
			<point x="386" y="430" type="line"/>
			<point x="325" y="140" type="line"/>
			<point x="328" y="127" type="line" smooth="yes"/>
			<point x="322" y="98"/>
			<point x="321" y="81"/>
			<point x="321" y="62" type="curve" smooth="yes"/>
			<point x="321" y="14"/>
			<point x="350" y="-14"/>
		</contour>
	</outline>
</glyph>
<glyph name="eogonek" format="2">
	<unicode hex="0119"/>
	<advance width="461"/>
	<outline>
		<contour>
			<point x="249" y="-234" type="curve" smooth="yes"/>
			<point x="301" y="-234"/>
			<point x="340" y="-207"/>
			<point x="365" y="-183" type="curve"/>
			<point x="348" y="-154" type="line"/>
			<point x="330" y="-166"/>
			<point x="308" y="-176"/>
			<point x="285" y="-176" type="curve" smooth="yes"/>
			<point x="255" y="-176"/>
			<point x="235" y="-157"/>
			<point x="235" y="-122" type="curve" smooth="yes"/>
			<point x="235" y="-73"/>
			<point x="270" y="-25"/>
			<point x="326" y="20" type="curve" smooth="yes"/>
			<point x="368" y="53"/>
			<point x="397" y="87"/>
			<point x="421" y="126" type="curve"/>
			<point x="389" y="150" type="line"/>
			<point x="356" y="110"/>
			<point x="315" y="73"/>
			<point x="254" y="73" type="curve" smooth="yes"/>
			<point x="191" y="73"/>
			<point x="149" y="113"/>
			<point x="149" y="204" type="curve" smooth="yes"/>
			<point x="149" y="333"/>
			<point x="242" y="452"/>
			<point x="308" y="452" type="curve" smooth="yes"/>
			<point x="336" y="452"/>
			<point x="354" y="433"/>
			<point x="354" y="400" type="curve" smooth="yes"/>
			<point x="354" y="339"/>
			<point x="292" y="260"/>
			<point x="103" y="214" type="curve"/>
			<point x="105" y="175" type="line"/>
			<point x="356" y="232"/>
			<point x="450" y="318"/>
			<point x="450" y="402" type="curve" smooth="yes"/>
			<point x="450" y="465"/>
			<point x="405" y="504"/>
			<point x="325" y="504" type="curve" smooth="yes"/>
			<point x="168" y="504"/>
			<point x="38" y="349"/>
			<point x="38" y="177" type="curve" smooth="yes"/>
			<point x="38" y="53"/>
			<point x="107" y="-13"/>
			<point x="211" y="-13" type="curve" smooth="yes"/>
			<point x="229" y="-13"/>
			<point x="244" y="-10"/>
			<point x="251" y="-8" type="curve"/>
			<point x="251" y="-12" type="line"/>
			<point x="199" y="-53"/>
			<point x="154" y="-96"/>
			<point x="154" y="-153" type="curve" smooth="yes"/>
			<point x="154" y="-201"/>
			<point x="188" y="-234"/>
		</contour>
	</outline>
	<anchor name="aboveLC" x="327" y="510"/>
	<anchor name="belowLC" x="210" y="-20"/>
</glyph>
<glyph name="hbar" format="2">
	<unicode hex="0127"/>
	<advance width="591"/>
	<outline>
		<contour>
			<point x="404" y="-14" type="curve" smooth="yes"/>
			<point x="483" y="-14"/>
			<point x="544" y="49"/>
			<point x="583" y="114" type="curve"/>
			<point x="551" y="135" type="line"/>
			<point x="517" y="89"/>
			<point x="491" y="67"/>
			<point x="470" y="67" type="curve" smooth="yes"/>
			<point x="457" y="67"/>
			<point x="449" y="76"/>
			<point x="449" y="90" type="curve" smooth="yes"/>
			<point x="449" y="103"/>
			<point x="455" y="123"/>
			<point x="461" y="148" type="curve" smooth="yes"/>
			<point x="499" y="301" type="line" smooth="yes"/>
			<point x="507" y="333"/>
			<point x="513" y="367"/>
			<point x="513" y="397" type="curve" smooth="yes"/>
			<point x="513" y="451"/>
			<point x="483" y="480"/>
			<point x="431" y="480" type="curve" smooth="yes"/>
			<point x="358" y="480"/>
			<point x="283" y="424"/>
			<point x="216" y="345" type="curve"/>
			<point x="192" y="345" type="line"/>
			<point x="201" y="297" type="line"/>
			<point x="269" y="361"/>
			<point x="317" y="391"/>
			<point x="355" y="391" type="curve" smooth="yes"/>
			<point x="378" y="391"/>
			<point x="391" y="379"/>
			<point x="391" y="351" type="curve" smooth="yes"/>
			<point x="391" y="331"/>
			<point x="385" y="303"/>
			<point x="377" y="270" type="curve" smooth="yes"/>
			<point x="345" y="141" type="line" smooth="yes"/>
			<point x="336" y="107"/>
			<point x="329" y="79"/>
			<point x="329" y="50" type="curve" smooth="yes"/>
			<point x="329" y="12"/>
			<point x="354" y="-14"/>
		</contour>
		<contour>
			<point x="57" y="-9" type="line"/>
			<point x="154" y="0" type="line"/>
			<point x="167" y="72"/>
			<point x="179" y="139"/>
			<point x="196" y="215" type="curve" smooth="yes"/>
			<point x="221" y="335" type="line"/>
			<point x="219" y="346" type="line"/>
			<point x="299" y="721" type="line"/>
			<point x="276" y="731" type="line"/>
			<point x="87" y="683" type="line"/>
			<point x="80" y="644" type="line"/>
			<point x="210" y="630" type="line"/>
			<point x="171" y="661" type="line"/>
			<point x="159" y="591"/>
			<point x="146" y="524"/>
			<point x="131" y="454" type="curve" smooth="yes"/>
			<point x="37" y="1" type="line"/>
		</contour>
		<contour>
			<point x="61" y="529" type="line"/>
			<point x="418" y="529" type="line"/>
			<point x="427" y="577" type="line"/>
			<point x="70" y="577" type="line"/>
		</contour>
	</outline>
</glyph>
<glyph name="iogonek" format="2">
	<unicode hex="012F"/>
	<advance width="321"/>
	<outline>
		<contour>
			<point x="164" y="-234" type="curve" smooth="yes"/>
			<point x="217" y="-234"/>
			<point x="256" y="-207"/>
			<point x="281" y="-183" type="curve"/>
			<point x="264" y="-154" type="line"/>
			<point x="245" y="-166"/>
			<point x="223" y="-176"/>
			<point x="200" y="-176" type="curve" smooth="yes"/>
			<point x="171" y="-176"/>
			<point x="150" y="-158"/>
			<point x="150" y="-124" type="curve" smooth="yes"/>
			<point x="150" y="-75"/>
			<point x="184" y="-31"/>
			<point x="235" y="16" type="curve" smooth="yes"/>
			<point x="266" y="45"/>
			<point x="292" y="78"/>
			<point x="315" y="115" type="curve"/>
			<point x="281" y="137" type="line"/>
			<point x="246" y="87"/>
			<point x="223" y="67"/>
			<point x="202" y="67" type="curve" smooth="yes"/>
			<point x="189" y="67"/>
			<point x="179" y="76"/>
			<point x="179" y="92" type="curve" smooth="yes"/>
			<point x="179" y="105"/>
			<point x="184" y="126"/>
			<point x="190" y="154" type="curve" smooth="yes"/>
			<point x="262" y="492" type="line"/>
			<point x="238" y="502" type="line"/>
			<point x="46" y="448" type="line"/>
			<point x="38" y="407" type="line"/>
			<point x="160" y="399" type="line"/>
			<point x="134" y="434" type="line"/>
			<point x="75" y="155" type="line" smooth="yes"/>
			<point x="67" y="116"/>
			<point x="61" y="84"/>
			<point x="61" y="60" type="curve" smooth="yes"/>
			<point x="61" y="14"/>
			<point x="92" y="-11"/>
			<point x="135" y="-11" type="curve" smooth="yes"/>
			<point x="150" y="-11"/>
			<point x="162" y="-8"/>
			<point x="167" y="-6" type="curve"/>
			<point x="167" y="-14" type="line"/>
			<point x="116" y="-54"/>
			<point x="70" y="-97"/>
			<point x="70" y="-153" type="curve" smooth="yes"/>
			<point x="70" y="-201"/>
			<point x="103" y="-234"/>
		</contour>
		<contour>
			<point x="235" y="608" type="curve" smooth="yes"/>
			<point x="276" y="608"/>
			<point x="310" y="643"/>
			<point x="310" y="684" type="curve" smooth="yes"/>
			<point x="310" y="721"/>
			<point x="283" y="747"/>
			<point x="245" y="747" type="curve" smooth="yes"/>
			<point x="204" y="747"/>
			<point x="171" y="712"/>
			<point x="171" y="671" type="curve" smooth="yes"/>
			<point x="171" y="633"/>
			<point x="199" y="608"/>
		</contour>
	</outline>
</glyph>
<glyph name="dotlessi" format="2">
	<unicode hex="0131"/>
	<advance width="321"/>
	<outline>
		<contour>
			<point x="60" y="57" type="curve" smooth="yes"/>
			<point x="60" y="12"/>
			<point x="89" y="-14"/>
			<point x="137" y="-14" type="curve" smooth="yes"/>
			<point x="215" y="-14"/>
			<point x="271" y="45"/>
			<point x="314" y="115" type="curve"/>
			<point x="281" y="137" type="line"/>
			<point x="245" y="87"/>
			<point x="223" y="67"/>
			<point x="201" y="67" type="curve" smooth="yes"/>
			<point x="188" y="67"/>
			<point x="179" y="76"/>
			<point x="179" y="92" type="curve" smooth="yes"/>
			<point x="179" y="105"/>
			<point x="184" y="126"/>
			<point x="189" y="153" type="curve" smooth="yes"/>
			<point x="262" y="492" type="line"/>
			<point x="236" y="503" type="line"/>
			<point x="46" y="448" type="line"/>
			<point x="39" y="407" type="line"/>
			<point x="156" y="399" type="line"/>
			<point x="133" y="427" type="line"/>
			<point x="73" y="149" type="line" smooth="yes"/>
			<point x="66" y="113"/>
			<point x="60" y="82"/>
		</contour>
	</outline>
	<anchor name="aboveLC" x="205" y="510"/>
	<anchor name="belowLC" x="132" y="-20"/>
	<anchor name="ogonek" x="177" y="0"/>
</glyph>
<glyph name="kgreenlandic" format="2">
	<unicode hex="0138"/>
	<advance width="533"/>
	<outline>
		<contour>
			<point x="67" y="-9" type="line"/>
			<point x="164" y="0" type="line"/>
			<point x="178" y="74"/>
			<point x="192" y="147"/>
			<point x="208" y="221" type="curve" smooth="yes"/>
			<point x="240" y="367" type="line"/>
			<point x="265" y="491" type="line"/>
			<point x="238" y="503" type="line"/>
			<point x="50" y="448" type="line"/>
			<point x="43" y="407" type="line"/>
			<point x="170" y="398" type="line"/>
			<point x="137" y="426" type="line"/>
			<point x="46" y="1" type="line"/>
		</contour>
		<contour>
			<point x="431" y="-14" type="curve" smooth="yes"/>
			<point x="461" y="-14"/>
			<point x="490" y="-8"/>
			<point x="516" y="0" type="curve"/>
			<point x="522" y="36" type="line"/>
			<point x="485" y="40" type="line" smooth="yes"/>
			<point x="456" y="43"/>
			<point x="440" y="53"/>
			<point x="418" y="100" type="curve" smooth="yes"/>
			<point x="394" y="149" type="line" smooth="yes"/>
			<point x="366" y="207"/>
			<point x="328" y="236"/>
			<point x="258" y="245" type="curve" smooth="yes"/>
			<point x="218" y="249" type="line"/>
			<point x="216" y="247" type="line"/>
			<point x="455" y="366" type="line" smooth="yes"/>
			<point x="510" y="391"/>
			<point x="536" y="407"/>
			<point x="536" y="441" type="curve" smooth="yes"/>
			<point x="536" y="471"/>
			<point x="513" y="493"/>
			<point x="484" y="498" type="curve"/>
			<point x="197" y="253" type="line"/>
			<point x="198" y="230" type="line"/>
			<point x="212" y="226" type="line" smooth="yes"/>
			<point x="246" y="217"/>
			<point x="259" y="199"/>
			<point x="280" y="146" type="curve" smooth="yes"/>
			<point x="305" y="81" type="line" smooth="yes"/>
			<point x="333" y="4"/>
			<point x="371" y="-14"/>
		</contour>
	</outline>
</glyph>
<glyph name="Lslash" format="2">
	<unicode hex="0141"/>
	<advance width="578"/>
	<outline>
		<contour>
			<point x="439" y="476" type="line"/>
			<point x="213" y="358" type="line"/>
			<point x="203" y="297" type="line"/>
			<point x="426" y="407" type="line"/>
		</contour>
		<contour>
			<point x="198" y="361" type="line"/>
			<point x="35" y="281" type="line"/>
			<point x="22" y="213" type="line"/>
			<point x="188" y="299" type="line"/>
		</contour>
		<component base="L"/>
	</outline>
</glyph>
<glyph name="lslash" format="2">
	<unicode hex="0142"/>
	<advance width="309"/>
	<outline>
		<contour>
			<point x="186" y="419" type="line"/>
			<point x="22" y="342" type="line"/>
			<point x="9" y="278" type="line"/>
			<point x="178" y="364" type="line"/>
		</contour>
		<contour>
			<point x="335" y="484" type="line"/>
			<point x="164" y="396" type="line"/>
			<point x="155" y="341" type="line"/>
			<point x="322" y="420" type="line"/>
		</contour>
		<component base="l"/>
	</outline>
</glyph>
<glyph name="eng" format="2">
	<unicode hex="014B"/>
	<advance width="619"/>
	<outline>
		<contour>
			<point x="70" y="-9" type="line"/>
			<point x="167" y="0" type="line"/>
			<point x="181" y="74"/>
			<point x="195" y="147"/>
			<point x="210" y="221" type="curve" smooth="yes"/>
			<point x="239" y="353" type="line"/>
			<point x="237" y="360" type="line"/>
			<point x="259" y="491" type="line"/>
			<point x="235" y="503" type="line"/>
			<point x="53" y="448" type="line"/>
			<point x="45" y="407" type="line"/>
			<point x="172" y="398" type="line"/>
			<point x="139" y="426" type="line"/>
			<point x="49" y="1" type="line"/>
		</contour>
		<contour>
			<point x="213" y="-240" type="line"/>
			<point x="273" y="-231"/>
			<point x="322" y="-207"/>
			<point x="358" y="-170" type="curve" smooth="yes"/>
			<point x="406" y="-124"/>
			<point x="440" y="-60"/>
			<point x="462" y="45" type="curve" smooth="yes"/>
			<point x="520" y="325" type="line" smooth="yes"/>
			<point x="527" y="357"/>
			<point x="533" y="390"/>
			<point x="533" y="420" type="curve" smooth="yes"/>
			<point x="533" y="474"/>
			<point x="503" y="504"/>
			<point x="451" y="504" type="curve" smooth="yes"/>
			<point x="377" y="504"/>
			<point x="301" y="449"/>
			<point x="235" y="370" type="curve"/>
			<point x="221" y="370" type="line"/>
			<point x="223" y="323" type="line"/>
			<point x="289" y="386"/>
			<point x="337" y="415"/>
			<point x="375" y="415" type="curve" smooth="yes"/>
			<point x="398" y="415"/>
			<point x="411" y="403"/>
			<point x="411" y="376" type="curve" smooth="yes"/>
			<point x="411" y="356"/>
			<point x="406" y="327"/>
			<point x="399" y="295" type="curve" smooth="yes"/>
			<point x="350" y="45" type="line" smooth="yes"/>
			<point x="329" y="-64"/>
			<point x="309" y="-112"/>
			<point x="283" y="-147" type="curve" smooth="yes"/>
			<point x="262" y="-174"/>
			<point x="236" y="-191"/>
			<point x="201" y="-204" type="curve"/>
		</contour>
	</outline>
</glyph>
<glyph name="OE" format="2">
	<unicode hex="0152"/>
	<advance width="905"/>
	<outline>
		<contour>
			<point x="432" y="1" type="curve"/>
			<point x="436" y="59" type="line"/>
			<point x="405" y="49"/>
			<point x="369" y="42"/>
			<point x="337" y="42" type="curve" smooth="yes"/>
			<point x="239" y="42"/>
			<point x="173" y="110"/>
			<point x="173" y="247" type="curve" smooth="yes"/>
			<point x="173" y="451"/>
			<point x="283" y="622"/>
			<point x="439" y="622" type="curve" smooth="yes"/>
			<point x="483" y="622"/>
			<point x="518" y="613"/>
			<point x="547" y="602" type="curve"/>
			<point x="555" y="662" type="line"/>
			<point x="518" y="673"/>
			<point x="478" y="680"/>
			<point x="433" y="680" type="curve" smooth="yes"/>
			<point x="206" y="680"/>
			<point x="46" y="477"/>
			<point x="46" y="257" type="curve" smooth="yes"/>
			<point x="46" y="75"/>
			<point x="158" y="-16"/>
			<point x="316" y="-16" type="curve" smooth="yes"/>
			<point x="364" y="-16"/>
			<point x="398" y="-8"/>
		</contour>
		<contour>
			<point x="378" y="0" type="line"/>
			<point x="503" y="0" type="line"/>
			<point x="520" y="102"/>
			<point x="538" y="205"/>
			<point x="557" y="308" type="curve" smooth="yes"/>
			<point x="623" y="664" type="line"/>
			<point x="499" y="664" type="line"/>
			<point x="482" y="561"/>
			<point x="464" y="459"/>
			<point x="445" y="357" type="curve" smooth="yes"/>
		</contour>
		<contour>
			<point x="448" y="0" type="line"/>
			<point x="809" y="0" type="line"/>
			<point x="848" y="178" type="line"/>
			<point x="782" y="178" type="line"/>
			<point x="715" y="7" type="line"/>
			<point x="788" y="57" type="line"/>
			<point x="455" y="57" type="line"/>
		</contour>
		<contour>
			<point x="501" y="312" type="line"/>
			<point x="715" y="312" type="line"/>
			<point x="722" y="367" type="line"/>
			<point x="508" y="367" type="line"/>
		</contour>
		<contour>
			<point x="556" y="606" type="line"/>
			<point x="844" y="606" type="line"/>
			<point x="799" y="653" type="line"/>
			<point x="802" y="488" type="line"/>
			<point x="868" y="488" type="line"/>
			<point x="893" y="664" type="line"/>
			<point x="563" y="664" type="line"/>
		</contour>
		<contour>
			<point x="682" y="225" type="line"/>
			<point x="735" y="225" type="line"/>
			<point x="777" y="453" type="line"/>
			<point x="724" y="453" type="line"/>
			<point x="686" y="352" type="line"/>
			<point x="683" y="331" type="line"/>
		</contour>
	</outline>
	<anchor name="aboveUC" x="566" y="684"/>
</glyph>
<glyph name="Uogonek" format="2">
	<unicode hex="0172"/>
	<advance width="714"/>
	<outline>
		<contour>
			<point x="102" y="182" type="curve" smooth="yes"/>
			<point x="102" y="56"/>
			<point x="182" y="-13"/>
			<point x="320" y="-13" type="curve" smooth="yes"/>
			<point x="354" y="-13"/>
			<point x="382" y="-8"/>
			<point x="403" y="-1" type="curve"/>
			<point x="403" y="-11" type="line"/>
			<point x="348" y="-52"/>
			<point x="304" y="-98"/>
			<point x="304" y="-153" type="curve" smooth="yes"/>
			<point x="304" y="-201"/>
			<point x="337" y="-234"/>
			<point x="399" y="-234" type="curve" smooth="yes"/>
			<point x="451" y="-234"/>
			<point x="490" y="-207"/>
			<point x="515" y="-183" type="curve"/>
			<point x="498" y="-154" type="line"/>
			<point x="480" y="-166"/>
			<point x="457" y="-176"/>
			<point x="433" y="-176" type="curve" smooth="yes"/>
			<point x="405" y="-176"/>
			<point x="384" y="-158"/>
			<point x="384" y="-123" type="curve" smooth="yes"/>
			<point x="384" y="-74"/>
			<point x="424" y="-20"/>
			<point x="488" y="32" type="curve" smooth="yes"/>
			<point x="547" y="79"/>
			<point x="589" y="149"/>
			<point x="611" y="269" type="curve" smooth="yes"/>
			<point x="684" y="664" type="line"/>
			<point x="621" y="664" type="line"/>
			<point x="549" y="278" type="line" smooth="yes"/>
			<point x="520" y="120"/>
			<point x="463" y="61"/>
			<point x="354" y="61" type="curve" smooth="yes"/>
			<point x="271" y="61"/>
			<point x="227" y="110"/>
			<point x="227" y="184" type="curve" smooth="yes"/>
			<point x="227" y="224"/>
			<point x="232" y="253"/>
			<point x="239" y="288" type="curve" smooth="yes"/>
			<point x="308" y="664" type="line"/>
			<point x="180" y="664" type="line"/>
			<point x="164" y="562"/>
			<point x="145" y="461"/>
			<point x="127" y="360" type="curve" smooth="yes"/>
			<point x="114" y="287" type="line" smooth="yes"/>
			<point x="107" y="249"/>
			<point x="102" y="214"/>
		</contour>
		<contour>
			<point x="86" y="610" type="line"/>
			<point x="216" y="600" type="line"/>
			<point x="249" y="600" type="line"/>
			<point x="381" y="610" type="line"/>
			<point x="391" y="664" type="line"/>
			<point x="96" y="664" type="line"/>
		</contour>
		<contour>
			<point x="515" y="610" type="line"/>
			<point x="626" y="602" type="line"/>
			<point x="654" y="602" type="line"/>
			<point x="756" y="610" type="line"/>
			<point x="766" y="664" type="line"/>
			<point x="525" y="664" type="line"/>
		</contour>
	</outline>
	<anchor name="aboveUC" x="455" y="684"/>
	<anchor name="belowLC" x="322" y="-20"/>
</glyph>
<glyph name="uogonek" format="2">
	<unicode hex="0173"/>
	<advance width="606"/>
	<outline>
		<contour>
			<point x="155" y="-14" type="curve" smooth="yes"/>
			<point x="232" y="-14"/>
			<point x="300" y="40"/>
			<point x="375" y="129" type="curve"/>
			<point x="393" y="129" type="line"/>
			<point x="386" y="171" type="line"/>
			<point x="312" y="104"/>
			<point x="272" y="75"/>
			<point x="229" y="75" type="curve" smooth="yes"/>
			<point x="204" y="75"/>
			<point x="189" y="89"/>
			<point x="189" y="117" type="curve" smooth="yes"/>
			<point x="189" y="139"/>
			<point x="195" y="166"/>
			<point x="203" y="199" type="curve" smooth="yes"/>
			<point x="271" y="491" type="line"/>
			<point x="243" y="503" type="line"/>
			<point x="54" y="449" type="line"/>
			<point x="47" y="408" type="line"/>
			<point x="163" y="401" type="line"/>
			<point x="141" y="430" type="line"/>
			<point x="84" y="180" type="line" smooth="yes"/>
			<point x="76" y="145"/>
			<point x="67" y="104"/>
			<point x="67" y="71" type="curve" smooth="yes"/>
			<point x="67" y="18"/>
			<point x="101" y="-14"/>
		</contour>
		<contour>
			<point x="450" y="-234" type="curve" smooth="yes"/>
			<point x="503" y="-234"/>
			<point x="542" y="-207"/>
			<point x="567" y="-183" type="curve"/>
			<point x="550" y="-154" type="line"/>
			<point x="532" y="-166"/>
			<point x="509" y="-176"/>
			<point x="486" y="-176" type="curve" smooth="yes"/>
			<point x="458" y="-176"/>
			<point x="437" y="-158"/>
			<point x="437" y="-122" type="curve" smooth="yes"/>
			<point x="437" y="-74"/>
			<point x="469" y="-30"/>
			<point x="515" y="12" type="curve" smooth="yes"/>
			<point x="550" y="43"/>
			<point x="577" y="76"/>
			<point x="601" y="113" type="curve"/>
			<point x="568" y="135" type="line"/>
			<point x="532" y="89"/>
			<point x="511" y="67"/>
			<point x="488" y="67" type="curve" smooth="yes"/>
			<point x="474" y="67"/>
			<point x="466" y="76"/>
			<point x="466" y="91" type="curve" smooth="yes"/>
			<point x="466" y="104"/>
			<point x="470" y="126"/>
			<point x="476" y="152" type="curve" smooth="yes"/>
			<point x="549" y="491" type="line"/>
			<point x="526" y="503" type="line"/>
			<point x="428" y="478" type="line"/>
			<point x="417" y="419"/>
			<point x="406" y="362"/>
			<point x="394" y="304" type="curve" smooth="yes"/>
			<point x="359" y="141" type="line"/>
			<point x="360" y="129" type="line"/>
			<point x="354" y="102"/>
			<point x="351" y="82"/>
			<point x="351" y="65" type="curve" smooth="yes"/>
			<point x="351" y="12"/>
			<point x="380" y="-12"/>
			<point x="427" y="-12" type="curve" smooth="yes"/>
			<point x="443" y="-12"/>
			<point x="452" y="-10"/>
			<point x="479" y="-3" type="curve"/>
			<point x="451" y="23" type="line"/>
			<point x="451" y="-14" type="line"/>
			<point x="405" y="-51"/>
			<point x="356" y="-95"/>
			<point x="356" y="-153" type="curve" smooth="yes"/>
			<point x="356" y="-201"/>
			<point x="389" y="-234"/>
		</contour>
	</outline>
	<anchor name="aboveLC" x="353" y="510"/>
	<anchor name="belowLC" x="290" y="-20"/>
</glyph>
<glyph name="longs" format="2">
	<unicode hex="017F"/>
	<advance width="337"/>
	<outline>
		<contour>
			<point x="-53" y="-241" type="curve" smooth="yes"/>
			<point x="-3" y="-241"/>
			<point x="45" y="-216"/>
			<point x="84" y="-175" type="curve" smooth="yes"/>
			<point x="130" y="-127"/>
			<point x="159" y="-59"/>
			<point x="178" y="55" type="curve" smooth="yes"/>
			<point x="203" y="199"/>
			<point x="225" y="353"/>
			<point x="248" y="497" type="curve" smooth="yes"/>
			<point x="273" y="649"/>
			<point x="308" y="685"/>
			<point x="357" y="714" type="curve"/>
			<point x="352" y="718" type="line"/>
			<point x="344" y="718" type="line"/>
			<point x="332" y="714" type="line"/>
			<point x="361" y="669" type="line" smooth="yes"/>
			<point x="386" y="633"/>
			<point x="407" y="616"/>
			<point x="438" y="616" type="curve" smooth="yes"/>
			<point x="464" y="616"/>
			<point x="486" y="637"/>
			<point x="491" y="666" type="curve"/>
			<point x="481" y="704"/>
			<point x="431" y="740"/>
			<point x="362" y="740" type="curve" smooth="yes"/>
			<point x="266" y="740"/>
			<point x="162" y="677"/>
			<point x="132" y="469" type="curve" smooth="yes"/>
			<point x="111" y="324"/>
			<point x="90" y="183"/>
			<point x="68" y="40" type="curve" smooth="yes"/>
			<point x="53" y="-50"/>
			<point x="39" y="-104"/>
			<point x="20" y="-144" type="curve" smooth="yes"/>
			<point x="6" y="-172"/>
			<point x="-9" y="-189"/>
			<point x="-24" y="-206" type="curve"/>
			<point x="-19" y="-206" type="line"/>
			<point x="-22" y="-206" type="line"/>
			<point x="-11" y="-206" type="line"/>
			<point x="-36" y="-174" type="line" smooth="yes"/>
			<point x="-62" y="-141"/>
			<point x="-83" y="-123"/>
			<point x="-116" y="-123" type="curve" smooth="yes"/>
			<point x="-146" y="-123"/>
			<point x="-165" y="-143"/>
			<point x="-170" y="-170" type="curve"/>
			<point x="-157" y="-212"/>
			<point x="-115" y="-241"/>
		</contour>
	</outline>
</glyph>
<glyph name="Schwa" format="2">
	<unicode hex="018F"/>
	<advance width="683"/>
	<outline>
		<contour>
			<point x="274" y="-16" type="curve" smooth="yes"/>
			<point x="490" y="-16"/>
			<point x="642" y="183"/>
			<point x="642" y="429" type="curve" smooth="yes"/>
			<point x="642" y="581"/>
			<point x="550" y="680"/>
			<point x="389" y="680" type="curve" smooth="yes"/>
			<point x="276" y="680"/>
			<point x="201" y="627"/>
			<point x="160" y="580" type="curve"/>
			<point x="199" y="535" type="line"/>
			<point x="239" y="568"/>
			<point x="290" y="596"/>
			<point x="357" y="596" type="curve" smooth="yes"/>
			<point x="450" y="596"/>
			<point x="508" y="543"/>
			<point x="508" y="426" type="curve" smooth="yes"/>
			<point x="508" y="222"/>
			<point x="405" y="50"/>
			<point x="289" y="50" type="curve" smooth="yes"/>
			<point x="220" y="50"/>
			<point x="169" y="96"/>
			<point x="169" y="198" type="curve" smooth="yes"/>
			<point x="169" y="247"/>
			<point x="176" y="285"/>
			<point x="185" y="308" type="curve"/>
			<point x="556" y="308" type="line"/>
			<point x="556" y="369" type="line"/>
			<point x="77" y="369" type="line"/>
			<point x="65" y="335"/>
			<point x="50" y="282"/>
			<point x="50" y="220" type="curve" smooth="yes"/>
			<point x="50" y="65"/>
			<point x="138" y="-16"/>
		</contour>
	</outline>
	<anchor name="aboveUC" x="367" y="684"/>
	<anchor name="belowLC" x="276" y="-20"/>
</glyph>
<glyph name="Uhorn" format="2">
	<unicode hex="01AF"/>
	<advance width="750"/>
	<outline>
		<contour>
			<point x="126" y="184" type="curve" smooth="yes"/>
			<point x="126" y="64"/>
			<point x="207" y="-16"/>
			<point x="349" y="-16" type="curve" smooth="yes"/>
			<point x="523" y="-16"/>
			<point x="610" y="91"/>
			<point x="641" y="268" type="curve" smooth="yes"/>
			<point x="712" y="664" type="line"/>
			<point x="641" y="664" type="line"/>
			<point x="570" y="269" type="line" smooth="yes"/>
			<point x="545" y="129"/>
			<point x="485" y="55"/>
			<point x="384" y="55" type="curve" smooth="yes"/>
			<point x="286" y="55"/>
			<point x="256" y="115"/>
			<point x="256" y="179" type="curve" smooth="yes"/>
			<point x="256" y="219"/>
			<point x="263" y="254"/>
			<point x="271" y="301" type="curve" smooth="yes"/>
			<point x="336" y="664" type="line"/>
			<point x="205" y="664" type="line"/>
			<point x="186" y="563"/>
			<point x="168" y="464"/>
			<point x="150" y="363" type="curve" smooth="yes"/>
			<point x="139" y="303" type="line" smooth="yes"/>
			<point x="131" y="259"/>
			<point x="126" y="222"/>
		</contour>
		<contour>
			<point x="696" y="599" type="line"/>
			<point x="793" y="609"/>
			<point x="833" y="662"/>
			<point x="833" y="748" type="curve" smooth="yes"/>
			<point x="833" y="779"/>
			<point x="827" y="803"/>
			<point x="818" y="817" type="curve"/>
			<point x="811" y="821"/>
			<point x="801" y="825"/>
			<point x="783" y="825" type="curve" smooth="yes"/>
			<point x="747" y="825"/>
			<point x="722" y="804"/>
			<point x="722" y="772" type="curve" smooth="yes"/>
			<point x="722" y="734"/>
			<point x="749" y="723"/>
			<point x="749" y="697" type="curve" smooth="yes"/>
			<point x="749" y="678"/>
			<point x="734" y="664"/>
			<point x="696" y="664" type="curve"/>
		</contour>
		<contour>
			<point x="103" y="598" type="line"/>
			<point x="233" y="598" type="line"/>
			<point x="285" y="598" type="line"/>
			<point x="413" y="598" type="line"/>
			<point x="424" y="664" type="line"/>
			<point x="115" y="664" type="line"/>
		</contour>
		<contour>
			<point x="536" y="598" type="line"/>
			<point x="647" y="598" type="line"/>
			<point x="658" y="598" type="line"/>
			<point x="658" y="664" type="line"/>
			<point x="547" y="664" type="line"/>
		</contour>
	</outline>
	<anchor name="aboveUC" x="478" y="684"/>
	<anchor name="belowLC" x="352" y="-20"/>
</glyph>
<glyph name="dotlessj" format="2">
	<unicode hex="0237"/>
	<advance width="285"/>
	<outline>
		<contour>
			<point x="-69" y="-240" type="line"/>
			<point x="-11" y="-231"/>
			<point x="37" y="-206"/>
			<point x="73" y="-170" type="curve" smooth="yes"/>
			<point x="120" y="-124"/>
			<point x="155" y="-60"/>
			<point x="176" y="45" type="curve" smooth="yes"/>
			<point x="263" y="491" type="line"/>
			<point x="237" y="503" type="line"/>
			<point x="49" y="448" type="line"/>
			<point x="43" y="407" type="line"/>
			<point x="169" y="398" type="line"/>
			<point x="137" y="427" type="line"/>
			<point x="65" y="45" type="line" smooth="yes"/>
			<point x="45" y="-64"/>
			<point x="23" y="-112"/>
			<point x="-3" y="-147" type="curve" smooth="yes"/>
			<point x="-24" y="-174"/>
			<point x="-47" y="-191"/>
			<point x="-80" y="-204" type="curve"/>
		</contour>
	</outline>
	<anchor name="aboveLC" x="208" y="510"/>
	<anchor name="belowLC" x="19" y="-250"/>
</glyph>
<glyph name="schwa" format="2">
	<unicode hex="0259"/>
	<advance width="472"/>
	<outline>
		<contour>
			<point x="151" y="-13" type="curve" smooth="yes"/>
			<point x="309" y="-13"/>
			<point x="443" y="142"/>
			<point x="443" y="316" type="curve" smooth="yes"/>
			<point x="443" y="437"/>
			<point x="380" y="503"/>
			<point x="279" y="503" type="curve" smooth="yes"/>
			<point x="181" y="503"/>
			<point x="108" y="437"/>
			<point x="66" y="365" type="curve"/>
			<point x="97" y="341" type="line"/>
			<point x="132" y="383"/>
			<point x="176" y="421"/>
			<point x="240" y="421" type="curve" smooth="yes"/>
			<point x="299" y="421"/>
			<point x="333" y="383"/>
			<point x="333" y="293" type="curve" smooth="yes"/>
			<point x="333" y="160"/>
			<point x="239" y="38"/>
			<point x="174" y="38" type="curve" smooth="yes"/>
			<point x="142" y="38"/>
			<point x="124" y="58"/>
			<point x="124" y="94" type="curve" smooth="yes"/>
			<point x="124" y="159"/>
			<point x="187" y="235"/>
			<point x="378" y="285" type="curve"/>
			<point x="377" y="323" type="line"/>
			<point x="123" y="263"/>
			<point x="28" y="179"/>
			<point x="28" y="92" type="curve" smooth="yes"/>
			<point x="28" y="28"/>
			<point x="71" y="-13"/>
		</contour>
	</outline>
	<anchor name="aboveLC" x="320" y="510"/>
	<anchor name="belowLC" x="214" y="-20"/>
</glyph>
<glyph name="gscript" format="2">
	<unicode hex="0261"/>
	<advance width="587"/>
	<outline>
		<contour>
			<point x="179" y="-235" type="curve" smooth="yes"/>
			<point x="279" y="-235"/>
			<point x="349" y="-208"/>
			<point x="390" y="-161" type="curve" smooth="yes"/>
			<point x="431" y="-116"/>
			<point x="467" y="-39"/>
			<point x="488" y="182" type="curve"/>
			<point x="531" y="372" type="line"/>
			<point x="569" y="540" type="line"/>
			<point x="505" y="540" type="line"/>
			<point x="456" y="468" type="line"/>
			<point x="424" y="468" type="line"/>
			<point x="349" y="146" type="line"/>
			<point x="363" y="146" type="line"/>
			<point x="342" y="-24"/>
			<point x="326" y="-88"/>
			<point x="290" y="-129" type="curve" smooth="yes"/>
			<point x="254" y="-170"/>
			<point x="219" y="-186"/>
			<point x="145" y="-186" type="curve" smooth="yes"/>
			<point x="118" y="-186"/>
			<point x="94" y="-182"/>
			<point x="78" y="-178" type="curve"/>
			<point x="142" y="-212" type="line"/>
			<point x="132" y="-136" type="line" smooth="yes"/>
			<point x="125" y="-85"/>
			<point x="102" y="-66"/>
			<point x="69" y="-66" type="curve" smooth="yes"/>
			<point x="33" y="-66"/>
			<point x="14" y="-87"/>
			<point x="7" y="-118" type="curve"/>
			<point x="20" y="-185"/>
			<point x="61" y="-235"/>
		</contour>
		<contour>
			<point x="167" y="-6" type="curve" smooth="yes"/>
			<point x="243" y="-6"/>
			<point x="292" y="42"/>
			<point x="337" y="112" type="curve"/>
			<point x="377" y="112" type="line"/>
			<point x="381" y="190" type="line"/>
			<point x="306" y="105"/>
			<point x="269" y="88"/>
			<point x="232" y="88" type="curve" smooth="yes"/>
			<point x="192" y="88"/>
			<point x="175" y="117"/>
			<point x="175" y="184" type="curve" smooth="yes"/>
			<point x="175" y="251"/>
			<point x="198" y="321"/>
			<point x="239" y="375" type="curve" smooth="yes"/>
			<point x="271" y="422"/>
			<point x="317" y="455"/>
			<point x="365" y="455" type="curve" smooth="yes"/>
			<point x="402" y="455"/>
			<point x="430" y="443"/>
			<point x="462" y="407" type="curve"/>
			<point x="500" y="462" type="line"/>
			<point x="462" y="505"/>
			<point x="439" y="524"/>
			<point x="383" y="524" type="curve" smooth="yes"/>
			<point x="226" y="524"/>
			<point x="44" y="333"/>
			<point x="44" y="135" type="curve" smooth="yes"/>
			<point x="44" y="33"/>
			<point x="93" y="-6"/>
		</contour>
	</outline>
	<anchor name="aboveLC" x="376" y="531"/>
	<anchor name="belowLC" x="141" y="-243"/>
</glyph>
<glyph name="h.sups" format="2">
	<unicode hex="02B0"/>
	<advance width="416"/>
	<outline>
		<contour>
			<point x="117" y="408" type="line"/>
			<point x="190" y="414" type="line"/>
			<point x="238" y="649" type="line"/>
			<point x="236" y="656" type="line"/>
			<point x="286" y="885" type="line"/>
			<point x="269" y="892" type="line"/>
			<point x="135" y="858" type="line"/>
			<point x="130" y="829" type="line"/>
			<point x="219" y="820" type="line"/>
			<point x="191" y="840" type="line"/>
			<point x="102" y="415" type="line"/>
		</contour>
		<contour>
			<point x="357" y="404" type="curve" smooth="yes"/>
			<point x="414" y="404"/>
			<point x="456" y="447"/>
			<point x="482" y="490" type="curve"/>
			<point x="459" y="505" type="line"/>
			<point x="437" y="476"/>
			<point x="421" y="463"/>
			<point x="407" y="463" type="curve" smooth="yes"/>
			<point x="389" y="463"/>
			<point x="391" y="479"/>
			<point x="400" y="514" type="curve" smooth="yes"/>
			<point x="429" y="628" type="line" smooth="yes"/>
			<point x="434" y="649"/>
			<point x="438" y="670"/>
			<point x="438" y="690" type="curve" smooth="yes"/>
			<point x="438" y="727"/>
			<point x="417" y="748"/>
			<point x="382" y="748" type="curve" smooth="yes"/>
			<point x="332" y="748"/>
			<point x="279" y="713"/>
			<point x="235" y="660" type="curve"/>
			<point x="216" y="660" type="line"/>
			<point x="225" y="628" type="line"/>
			<point x="267" y="665"/>
			<point x="299" y="682"/>
			<point x="323" y="682" type="curve" smooth="yes"/>
			<point x="338" y="682"/>
			<point x="347" y="674"/>
			<point x="347" y="657" type="curve" smooth="yes"/>
			<point x="347" y="645"/>
			<point x="343" y="629"/>
			<point x="338" y="608" type="curve" smooth="yes"/>
			<point x="315" y="513" type="line" smooth="yes"/>
			<point x="309" y="491"/>
			<point x="303" y="471"/>
			<point x="303" y="450" type="curve" smooth="yes"/>
			<point x="303" y="422"/>
			<point x="320" y="404"/>
		</contour>
	</outline>
</glyph>
<glyph name="j.sups" format="2">
	<unicode hex="02B2"/>
	<advance width="212"/>
	<outline>
		<contour>
			<point x="237" y="808" type="curve" smooth="yes"/>
			<point x="267" y="808"/>
			<point x="291" y="833"/>
			<point x="291" y="863" type="curve" smooth="yes"/>
			<point x="291" y="890"/>
			<point x="272" y="909"/>
			<point x="244" y="909" type="curve" smooth="yes"/>
			<point x="214" y="909"/>
			<point x="190" y="884"/>
			<point x="190" y="854" type="curve" smooth="yes"/>
			<point x="190" y="826"/>
			<point x="210" y="808"/>
		</contour>
		<contour>
			<point x="29" y="257" type="line"/>
			<point x="73" y="264"/>
			<point x="107" y="281"/>
			<point x="135" y="309" type="curve" smooth="yes"/>
			<point x="166" y="339"/>
			<point x="188" y="381"/>
			<point x="202" y="450" type="curve" smooth="yes"/>
			<point x="259" y="739" type="line"/>
			<point x="237" y="747" type="line"/>
			<point x="106" y="708" type="line"/>
			<point x="102" y="679" type="line"/>
			<point x="190" y="673" type="line"/>
			<point x="164" y="693" type="line"/>
			<point x="117" y="443" type="line" smooth="yes"/>
			<point x="105" y="378"/>
			<point x="93" y="345"/>
			<point x="76" y="323" type="curve" smooth="yes"/>
			<point x="62" y="305"/>
			<point x="46" y="292"/>
			<point x="21" y="283" type="curve"/>
		</contour>
	</outline>
</glyph>
<glyph name="r.sups" format="2">
	<unicode hex="02B3"/>
	<advance width="319"/>
	<outline>
		<contour>
			<point x="221" y="556" type="line"/>
			<point x="253" y="622"/>
			<point x="278" y="664"/>
			<point x="313" y="696" type="curve"/>
			<point x="326" y="698" type="line"/>
			<point x="291" y="704" type="line"/>
			<point x="317" y="673"/>
			<point x="332" y="661"/>
			<point x="354" y="661" type="curve" smooth="yes"/>
			<point x="383" y="661"/>
			<point x="398" y="684"/>
			<point x="399" y="711" type="curve"/>
			<point x="392" y="733"/>
			<point x="373" y="747"/>
			<point x="346" y="747" type="curve" smooth="yes"/>
			<point x="298" y="747"/>
			<point x="258" y="690"/>
			<point x="228" y="611" type="curve"/>
			<point x="208" y="611" type="line"/>
		</contour>
		<contour>
			<point x="108" y="415" type="line"/>
			<point x="123" y="408" type="line"/>
			<point x="196" y="414" type="line"/>
			<point x="239" y="620" type="line"/>
			<point x="232" y="624" type="line"/>
			<point x="252" y="739" type="line"/>
			<point x="236" y="747" type="line"/>
			<point x="111" y="708" type="line"/>
			<point x="106" y="679" type="line"/>
			<point x="194" y="673" type="line"/>
			<point x="168" y="692" type="line"/>
		</contour>
	</outline>
</glyph>
<glyph name="w.sups" format="2">
	<unicode hex="02B7"/>
	<advance width="551"/>
	<outline>
		<contour>
			<point x="187" y="412" type="curve"/>
			<point x="251" y="413" type="line"/>
			<point x="289" y="469"/>
			<point x="323" y="531"/>
			<point x="357" y="601" type="curve"/>
			<point x="364" y="627" type="line"/>
			<point x="363" y="627" type="line"/>
			<point x="368" y="562"/>
			<point x="377" y="457"/>
			<point x="383" y="411" type="curve"/>
			<point x="437" y="413" type="line"/>
			<point x="499" y="479"/>
			<point x="559" y="559"/>
			<point x="587" y="612" type="curve" smooth="yes"/>
			<point x="612" y="657"/>
			<point x="620" y="683"/>
			<point x="620" y="705" type="curve" smooth="yes"/>
			<point x="620" y="723"/>
			<point x="617" y="733"/>
			<point x="613" y="740" type="curve"/>
			<point x="606" y="745"/>
			<point x="597" y="749"/>
			<point x="583" y="749" type="curve" smooth="yes"/>
			<point x="553" y="749"/>
			<point x="531" y="729"/>
			<point x="531" y="694" type="curve" smooth="yes"/>
			<point x="531" y="677"/>
			<point x="536" y="662"/>
			<point x="559" y="595" type="curve"/>
			<point x="568" y="660" type="line"/>
			<point x="563" y="649"/>
			<point x="558" y="639"/>
			<point x="553" y="629" type="curve" smooth="yes"/>
			<point x="522" y="574"/>
			<point x="499" y="536"/>
			<point x="465" y="491" type="curve"/>
			<point x="455" y="471" type="line"/>
			<point x="457" y="471" type="line"/>
			<point x="449" y="562"/>
			<point x="441" y="652"/>
			<point x="433" y="734" type="curve"/>
			<point x="377" y="734" type="line"/>
			<point x="344" y="655"/>
			<point x="309" y="578"/>
			<point x="265" y="499" type="curve"/>
			<point x="257" y="479" type="line"/>
			<point x="259" y="479" type="line"/>
			<point x="256" y="550"/>
			<point x="251" y="637"/>
			<point x="245" y="686" type="curve" smooth="yes"/>
			<point x="239" y="729"/>
			<point x="224" y="748"/>
			<point x="188" y="748" type="curve" smooth="yes"/>
			<point x="150" y="748"/>
			<point x="120" y="722"/>
			<point x="88" y="671" type="curve"/>
			<point x="106" y="653" type="line"/>
			<point x="122" y="672"/>
			<point x="132" y="681"/>
			<point x="143" y="681" type="curve" smooth="yes"/>
			<point x="152" y="681"/>
			<point x="158" y="677"/>
			<point x="161" y="656" type="curve" smooth="yes"/>
			<point x="171" y="598"/>
			<point x="180" y="492"/>
		</contour>
	</outline>
</glyph>
<glyph name="y.sups" format="2">
	<unicode hex="02B8"/>
	<advance width="420"/>
	<outline>
		<contour>
			<point x="29" y="299" type="curve"/>
			<point x="35" y="270"/>
			<point x="54" y="249"/>
			<point x="108" y="249" type="curve" smooth="yes"/>
			<point x="171" y="249"/>
			<point x="210" y="281"/>
			<point x="239" y="313" type="curve" smooth="yes"/>
			<point x="266" y="343"/>
			<point x="291" y="372"/>
			<point x="319" y="412" type="curve" smooth="yes"/>
			<point x="350" y="454"/>
			<point x="383" y="506"/>
			<point x="407" y="543" type="curve" smooth="yes"/>
			<point x="429" y="578"/>
			<point x="449" y="612"/>
			<point x="466" y="647" type="curve" smooth="yes"/>
			<point x="481" y="674"/>
			<point x="493" y="699"/>
			<point x="494" y="721" type="curve" smooth="yes"/>
			<point x="494" y="744"/>
			<point x="477" y="758"/>
			<point x="451" y="758" type="curve" smooth="yes"/>
			<point x="419" y="758"/>
			<point x="403" y="739"/>
			<point x="389" y="676" type="curve" smooth="yes"/>
			<point x="370" y="595"/>
			<point x="347" y="521"/>
			<point x="313" y="433" type="curve"/>
			<point x="291" y="410"/>
			<point x="264" y="383"/>
			<point x="239" y="356" type="curve" smooth="yes"/>
			<point x="215" y="330"/>
			<point x="185" y="300"/>
			<point x="161" y="279" type="curve"/>
			<point x="181" y="287" type="line"/>
			<point x="124" y="287" type="line"/>
			<point x="150" y="279" type="line"/>
			<point x="131" y="322"/>
			<point x="114" y="342"/>
			<point x="81" y="342" type="curve" smooth="yes"/>
			<point x="49" y="342"/>
			<point x="34" y="320"/>
		</contour>
		<contour>
			<point x="300" y="440" type="line"/>
			<point x="295" y="518"/>
			<point x="290" y="612"/>
			<point x="283" y="679" type="curve" smooth="yes"/>
			<point x="278" y="734"/>
			<point x="257" y="757"/>
			<point x="213" y="757" type="curve" smooth="yes"/>
			<point x="166" y="757"/>
			<point x="136" y="731"/>
			<point x="100" y="678" type="curve"/>
			<point x="124" y="654" type="line"/>
			<point x="138" y="672"/>
			<point x="149" y="684"/>
			<point x="160" y="684" type="curve" smooth="yes"/>
			<point x="171" y="684"/>
			<point x="178" y="677"/>
			<point x="185" y="637" type="curve" smooth="yes"/>
			<point x="197" y="568"/>
			<point x="217" y="448"/>
			<point x="227" y="324" type="curve"/>
			<point x="333" y="440" type="line"/>
		</contour>
	</outline>
</glyph>
<glyph name="ringhalfleftmod" format="2">
	<unicode hex="02BF"/>
	<advance width="211"/>
	<outline>
		<contour>
			<point x="232" y="516" type="curve"/>
			<point x="241" y="566" type="line"/>
			<point x="200" y="569"/>
			<point x="180" y="595"/>
			<point x="180" y="627" type="curve" smooth="yes"/>
			<point x="180" y="670"/>
			<point x="207" y="701"/>
			<point x="265" y="704" type="curve"/>
			<point x="273" y="753" type="line"/>
			<point x="163" y="751"/>
			<point x="116" y="695"/>
			<point x="116" y="623" type="curve" smooth="yes"/>
			<point x="116" y="562"/>
			<point x="161" y="519"/>
		</contour>
	</outline>
</glyph>
<glyph name="l.sups" format="2">
	<unicode hex="02E1"/>
	<advance width="224"/>
	<outline>
		<contour>
			<point x="170" y="404" type="curve" smooth="yes"/>
			<point x="224" y="404"/>
			<point x="263" y="443"/>
			<point x="292" y="491" type="curve"/>
			<point x="269" y="506" type="line"/>
			<point x="246" y="476"/>
			<point x="231" y="463"/>
			<point x="218" y="463" type="curve" smooth="yes"/>
			<point x="202" y="463"/>
			<point x="200" y="475"/>
			<point x="208" y="512" type="curve" smooth="yes"/>
			<point x="287" y="885" type="line"/>
			<point x="268" y="890" type="line"/>
			<point x="134" y="858" type="line"/>
			<point x="129" y="829" type="line"/>
			<point x="218" y="820" type="line"/>
			<point x="191" y="840" type="line"/>
			<point x="125" y="524" type="line" smooth="yes"/>
			<point x="119" y="494"/>
			<point x="114" y="473"/>
			<point x="114" y="455" type="curve" smooth="yes"/>
			<point x="114" y="423"/>
			<point x="133" y="404"/>
		</contour>
	</outline>
</glyph>
<glyph name="s.sups" format="2">
	<unicode hex="02E2"/>
	<advance width="299"/>
	<outline>
		<contour>
			<point x="188" y="418" type="line"/>
			<point x="177" y="463" type="line" smooth="yes"/>
			<point x="170" y="492"/>
			<point x="155" y="506"/>
			<point x="131" y="506" type="curve" smooth="yes"/>
			<point x="111" y="506"/>
			<point x="99" y="494"/>
			<point x="94" y="473" type="curve"/>
			<point x="104" y="427"/>
			<point x="137" y="404"/>
			<point x="200" y="404" type="curve" smooth="yes"/>
			<point x="282" y="404"/>
			<point x="335" y="448"/>
			<point x="335" y="506" type="curve" smooth="yes"/>
			<point x="335" y="547"/>
			<point x="311" y="572"/>
			<point x="272" y="601" type="curve" smooth="yes"/>
			<point x="236" y="627"/>
			<point x="218" y="644"/>
			<point x="218" y="672" type="curve" smooth="yes"/>
			<point x="218" y="697"/>
			<point x="233" y="720"/>
			<point x="266" y="722" type="curve" smooth="yes"/>
			<point x="279" y="722"/>
			<point x="291" y="721"/>
			<point x="302" y="720" type="curve"/>
			<point x="269" y="731" type="line"/>
			<point x="281" y="692" type="line" smooth="yes"/>
			<point x="290" y="664"/>
			<point x="308" y="651"/>
			<point x="327" y="651" type="curve" smooth="yes"/>
			<point x="347" y="651"/>
			<point x="358" y="665"/>
			<point x="361" y="684" type="curve"/>
			<point x="352" y="722"/>
			<point x="321" y="748"/>
			<point x="260" y="748" type="curve" smooth="yes"/>
			<point x="186" y="748"/>
			<point x="138" y="702"/>
			<point x="138" y="643" type="curve" smooth="yes"/>
			<point x="138" y="600"/>
			<point x="169" y="573"/>
			<point x="205" y="545" type="curve" smooth="yes"/>
			<point x="239" y="519"/>
			<point x="254" y="503"/>
			<point x="254" y="479" type="curve" smooth="yes"/>
			<point x="254" y="451"/>
			<point x="232" y="432"/>
			<point x="198" y="430" type="curve" smooth="yes"/>
			<point x="183" y="431"/>
			<point x="167" y="432"/>
			<point x="150" y="433" type="curve"/>
		</contour>
	</outline>
</glyph>
<glyph name="x.sups" format="2">
	<unicode hex="02E3"/>
	<advance width="408"/>
	<outline>
		<contour>
			<point x="273" y="474" type="line" smooth="yes"/>
			<point x="288" y="428"/>
			<point x="308" y="411"/>
			<point x="343" y="411" type="curve" smooth="yes"/>
			<point x="385" y="411"/>
			<point x="422" y="446"/>
			<point x="454" y="498" type="curve"/>
			<point x="431" y="513" type="line"/>
			<point x="409" y="485"/>
			<point x="394" y="471"/>
			<point x="379" y="471" type="curve" smooth="yes"/>
			<point x="363" y="471"/>
			<point x="353" y="478"/>
			<point x="345" y="505" type="curve" smooth="yes"/>
			<point x="306" y="620" type="line"/>
			<point x="303" y="621" type="line"/>
			<point x="281" y="693" type="line" smooth="yes"/>
			<point x="267" y="736"/>
			<point x="251" y="755"/>
			<point x="215" y="755" type="curve" smooth="yes"/>
			<point x="180" y="755"/>
			<point x="148" y="730"/>
			<point x="116" y="679" type="curve"/>
			<point x="133" y="661" type="line"/>
			<point x="153" y="685"/>
			<point x="169" y="692"/>
			<point x="179" y="692" type="curve" smooth="yes"/>
			<point x="193" y="692"/>
			<point x="199" y="684"/>
			<point x="208" y="659" type="curve" smooth="yes"/>
			<point x="246" y="545" type="line"/>
			<point x="249" y="544" type="line"/>
		</contour>
		<contour>
			<point x="68" y="464" type="curve"/>
			<point x="72" y="428"/>
			<point x="98" y="412"/>
			<point x="130" y="412" type="curve" smooth="yes"/>
			<point x="158" y="412"/>
			<point x="174" y="425"/>
			<point x="193" y="449" type="curve" smooth="yes"/>
			<point x="219" y="482"/>
			<point x="246" y="525"/>
			<point x="281" y="587" type="curve"/>
			<point x="271" y="607" type="line"/>
			<point x="243" y="566"/>
			<point x="202" y="507"/>
			<point x="171" y="472" type="curve" smooth="yes"/>
			<point x="164" y="463"/>
			<point x="156" y="456"/>
			<point x="148" y="449" type="curve"/>
			<point x="140" y="445" type="line"/>
			<point x="164" y="439" type="line"/>
			<point x="155" y="459" type="line" smooth="yes"/>
			<point x="143" y="489"/>
			<point x="132" y="502"/>
			<point x="109" y="502" type="curve" smooth="yes"/>
			<point x="90" y="502"/>
			<point x="73" y="488"/>
		</contour>
		<contour>
			<point x="289" y="566" type="line"/>
			<point x="316" y="606"/>
			<point x="354" y="662"/>
			<point x="384" y="696" type="curve" smooth="yes"/>
			<point x="392" y="704"/>
			<point x="400" y="712"/>
			<point x="408" y="719" type="curve"/>
			<point x="417" y="722" type="line"/>
			<point x="387" y="726" type="line"/>
			<point x="399" y="703" type="line" smooth="yes"/>
			<point x="409" y="679"/>
			<point x="421" y="667"/>
			<point x="442" y="667" type="curve" smooth="yes"/>
			<point x="465" y="667"/>
			<point x="480" y="685"/>
			<point x="482" y="712" type="curve"/>
			<point x="477" y="739"/>
			<point x="456" y="755"/>
			<point x="427" y="755" type="curve" smooth="yes"/>
			<point x="399" y="755"/>
			<point x="381" y="743"/>
			<point x="362" y="719" type="curve" smooth="yes"/>
			<point x="342" y="693"/>
			<point x="313" y="649"/>
			<point x="279" y="585" type="curve"/>
		</contour>
	</outline>
</glyph>
<glyph name="gravecmb" format="2">
	<unicode hex="0300"/>
	<outline>
		<contour>
			<point x="136" y="562" type="line"/>
			<point x="118" y="615"/>
			<point x="103" y="663"/>
			<point x="84" y="716" type="curve" smooth="yes"/>
			<point x="69" y="761"/>
			<point x="50" y="776"/>
			<point x="20" y="776" type="curve" smooth="yes"/>
			<point x="-7" y="776"/>
			<point x="-30" y="757"/>
			<point x="-30" y="729" type="curve" smooth="yes"/>
			<point x="-30" y="705"/>
			<point x="-17" y="688"/>
			<point x="4" y="662" type="curve" smooth="yes"/>
			<point x="37" y="619"/>
			<point x="68" y="584"/>
			<point x="100" y="543" type="curve"/>
		</contour>
	</outline>
	<anchor name="_aboveLC" x="109" y="510"/>
	<anchor name="aboveLC" x="169" y="776"/>
</glyph>
<glyph name="acutecmb" format="2">
	<unicode hex="0301"/>
	<outline>
		<contour>
			<point x="42" y="563" type="curve"/>
			<point x="76" y="542" type="line"/>
			<point x="112" y="582"/>
			<point x="148" y="621"/>
			<point x="183" y="662" type="curve" smooth="yes"/>
			<point x="208" y="689"/>
			<point x="219" y="708"/>
			<point x="219" y="731" type="curve" smooth="yes"/>
			<point x="219" y="759"/>
			<point x="196" y="776"/>
			<point x="169" y="776" type="curve" smooth="yes"/>
			<point x="142" y="776"/>
			<point x="122" y="759"/>
			<point x="104" y="716" type="curve" smooth="yes"/>
			<point x="84" y="665"/>
			<point x="63" y="614"/>
		</contour>
	</outline>
	<anchor name="_aboveLC" x="51" y="510"/>
	<anchor name="aboveLC" x="108" y="776"/>
</glyph>
<glyph name="circumflexcmb" format="2">
	<unicode hex="0302"/>
	<outline>
		<contour>
			<point x="251" y="554" type="line"/>
			<point x="285" y="580" type="line"/>
			<point x="182" y="757" type="line"/>
			<point x="131" y="757" type="line"/>
			<point x="-29" y="583" type="line"/>
			<point x="-2" y="553" type="line"/>
			<point x="180" y="698" type="line"/>
			<point x="115" y="698" type="line"/>
		</contour>
	</outline>
	<anchor name="_aboveLC" x="109" y="510"/>
	<anchor name="aboveLC" x="161" y="757"/>
</glyph>
<glyph name="tildecmb" format="2">
	<unicode hex="0303"/>
	<outline>
		<contour>
			<point x="-94" y="591" type="curve"/>
			<point x="-56" y="579" type="line"/>
			<point x="-35" y="624"/>
			<point x="-15" y="646"/>
			<point x="11" y="646" type="curve" smooth="yes"/>
			<point x="35" y="646"/>
			<point x="50" y="625"/>
			<point x="67" y="608" type="curve" smooth="yes"/>
			<point x="85" y="592"/>
			<point x="105" y="578"/>
			<point x="135" y="578" type="curve" smooth="yes"/>
			<point x="189" y="578"/>
			<point x="230" y="624"/>
			<point x="257" y="715" type="curve"/>
			<point x="219" y="728" type="line"/>
			<point x="198" y="683"/>
			<point x="178" y="660"/>
			<point x="152" y="660" type="curve" smooth="yes"/>
			<point x="128" y="660"/>
			<point x="114" y="681"/>
			<point x="95" y="698" type="curve" smooth="yes"/>
			<point x="79" y="714"/>
			<point x="60" y="729"/>
			<point x="29" y="729" type="curve" smooth="yes"/>
			<point x="-25" y="729"/>
			<point x="-67" y="683"/>
		</contour>
	</outline>
	<anchor name="_aboveLC" x="51" y="510"/>
	<anchor name="aboveLC" x="98" y="727"/>
</glyph>
<glyph name="macroncmb" format="2">
	<unicode hex="0304"/>
	<outline>
		<contour>
			<point x="-47" y="614" type="line"/>
			<point x="196" y="614" type="line"/>
			<point x="210" y="684" type="line"/>
			<point x="-33" y="684" type="line"/>
		</contour>
	</outline>
	<anchor name="_aboveLC" x="51" y="510"/>
	<anchor name="aboveLC" x="88" y="684"/>
</glyph>
<glyph name="brevecmb" format="2">
	<unicode hex="0306"/>
	<outline>
		<contour>
			<point x="65" y="575" type="curve" smooth="yes"/>
			<point x="169" y="575"/>
			<point x="220" y="656"/>
			<point x="241" y="727" type="curve"/>
			<point x="199" y="739" type="line"/>
			<point x="173" y="687"/>
			<point x="133" y="652"/>
			<point x="72" y="652" type="curve" smooth="yes"/>
			<point x="13" y="652"/>
			<point x="-19" y="690"/>
			<point x="-36" y="739" type="curve"/>
			<point x="-78" y="725" type="line"/>
			<point x="-73" y="647"/>
			<point x="-33" y="575"/>
		</contour>
	</outline>
	<anchor name="_aboveLC" x="51" y="510"/>
	<anchor name="aboveLC" x="100" y="739"/>
</glyph>
<glyph name="dotaccentcmb" format="2">
	<unicode hex="0307"/>
	<outline>
		<contour>
			<point x="138" y="609" type="curve" smooth="yes"/>
			<point x="179" y="609"/>
			<point x="211" y="644"/>
			<point x="211" y="685" type="curve" smooth="yes"/>
			<point x="211" y="722"/>
			<point x="186" y="747"/>
			<point x="150" y="747" type="curve" smooth="yes"/>
			<point x="109" y="747"/>
			<point x="77" y="712"/>
			<point x="77" y="671" type="curve" smooth="yes"/>
			<point x="77" y="633"/>
			<point x="103" y="609"/>
		</contour>
	</outline>
	<anchor name="_aboveLC" x="109" y="510"/>
	<anchor name="aboveLC" x="158" y="747"/>
</glyph>
<glyph name="dieresiscmb" format="2">
	<unicode hex="0308"/>
	<outline>
		<contour>
			<point x="-25" y="612" type="curve" smooth="yes"/>
			<point x="13" y="612"/>
			<point x="44" y="642"/>
			<point x="44" y="683" type="curve" smooth="yes"/>
			<point x="44" y="715"/>
			<point x="19" y="738"/>
			<point x="-13" y="738" type="curve" smooth="yes"/>
			<point x="-51" y="738"/>
			<point x="-82" y="708"/>
			<point x="-82" y="668" type="curve" smooth="yes"/>
			<point x="-82" y="634"/>
			<point x="-57" y="612"/>
		</contour>
		<contour>
			<point x="184" y="612" type="curve" smooth="yes"/>
			<point x="222" y="612"/>
			<point x="253" y="642"/>
			<point x="253" y="683" type="curve" smooth="yes"/>
			<point x="253" y="715"/>
			<point x="229" y="738"/>
			<point x="195" y="738" type="curve" smooth="yes"/>
			<point x="159" y="738"/>
			<point x="127" y="708"/>
			<point x="127" y="668" type="curve" smooth="yes"/>
			<point x="127" y="634"/>
			<point x="153" y="612"/>
		</contour>
	</outline>
	<anchor name="_aboveLC" x="51" y="510"/>
	<anchor name="aboveLC" x="100" y="738"/>
</glyph>
<glyph name="hoicmb" format="2">
	<unicode hex="0309"/>
	<outline>
		<contour>
			<point x="53" y="559" type="line"/>
			<point x="126" y="569"/>
			<point x="171" y="606"/>
			<point x="171" y="669" type="curve" smooth="yes"/>
			<point x="171" y="729"/>
			<point x="128" y="765"/>
			<point x="38" y="773" type="curve"/>
			<point x="20" y="692" type="line"/>
			<point x="82" y="684"/>
			<point x="105" y="672"/>
			<point x="105" y="647" type="curve" smooth="yes"/>
			<point x="105" y="623"/>
			<point x="88" y="607"/>
			<point x="44" y="599" type="curve"/>
		</contour>
	</outline>
	<anchor name="_aboveLC" x="51" y="510"/>
	<anchor name="aboveLC" x="107" y="773"/>
</glyph>
<glyph name="ringcmb" format="2">
	<unicode hex="030A"/>
	<outline>
		<contour>
			<point x="133" y="571" type="curve" smooth="yes"/>
			<point x="205" y="571"/>
			<point x="258" y="622"/>
			<point x="258" y="692" type="curve" smooth="yes"/>
			<point x="258" y="751"/>
			<point x="217" y="789"/>
			<point x="156" y="789" type="curve" smooth="yes"/>
			<point x="84" y="789"/>
			<point x="31" y="738"/>
			<point x="31" y="667" type="curve" smooth="yes"/>
			<point x="31" y="608"/>
			<point x="72" y="571"/>
		</contour>
		<contour>
			<point x="139" y="620" type="curve" smooth="yes"/>
			<point x="105" y="620"/>
			<point x="86" y="640"/>
			<point x="86" y="672" type="curve" smooth="yes"/>
			<point x="86" y="711"/>
			<point x="112" y="739"/>
			<point x="150" y="739" type="curve" smooth="yes"/>
			<point x="184" y="739"/>
			<point x="203" y="719"/>
			<point x="203" y="687" type="curve" smooth="yes"/>
			<point x="203" y="648"/>
			<point x="177" y="620"/>
		</contour>
	</outline>
	<anchor name="_aboveLC" x="113" y="531"/>
	<anchor name="aboveLC" x="167" y="789"/>
</glyph>
<glyph name="hungarumlautcmb" format="2">
	<unicode hex="030B"/>
	<outline>
		<contour>
			<point x="6" y="585" type="line"/>
			<point x="40" y="560" type="line"/>
			<point x="150" y="669" type="line" smooth="yes"/>
			<point x="179" y="697"/>
			<point x="190" y="717"/>
			<point x="190" y="738" type="curve" smooth="yes"/>
			<point x="190" y="761"/>
			<point x="173" y="776"/>
			<point x="149" y="776" type="curve" smooth="yes"/>
			<point x="126" y="776"/>
			<point x="107" y="761"/>
			<point x="83" y="718" type="curve" smooth="yes"/>
		</contour>
		<contour>
			<point x="165" y="585" type="line"/>
			<point x="199" y="560" type="line"/>
			<point x="309" y="669" type="line" smooth="yes"/>
			<point x="338" y="697"/>
			<point x="349" y="717"/>
			<point x="349" y="738" type="curve" smooth="yes"/>
			<point x="349" y="761"/>
			<point x="332" y="776"/>
			<point x="308" y="776" type="curve" smooth="yes"/>
			<point x="286" y="776"/>
			<point x="266" y="761"/>
			<point x="242" y="718" type="curve" smooth="yes"/>
		</contour>
	</outline>
	<anchor name="_aboveLC" x="109" y="510"/>
	<anchor name="aboveLC" x="160" y="776"/>
</glyph>
<glyph name="caroncmb" format="2">
	<unicode hex="030C"/>
	<outline>
		<contour>
			<point x="37" y="766" type="line"/>
			<point x="1" y="743" type="line"/>
			<point x="94" y="561" type="line"/>
			<point x="148" y="561" type="line"/>
			<point x="308" y="738" type="line"/>
			<point x="279" y="767" type="line"/>
			<point x="100" y="625" type="line"/>
			<point x="158" y="625" type="line"/>
		</contour>
	</outline>
	<anchor name="_aboveLC" x="109" y="510"/>
	<anchor name="aboveLC" x="163" y="767"/>
</glyph>
<glyph name="horncmb" format="2">
	<unicode hex="031B"/>
	<outline>
		<contour>
			<point x="104" y="490" type="line"/>
			<point x="207" y="499"/>
			<point x="286" y="569"/>
			<point x="286" y="670" type="curve" smooth="yes"/>
			<point x="286" y="688"/>
			<point x="284" y="701"/>
			<point x="279" y="715" type="curve"/>
			<point x="269" y="723"/>
			<point x="257" y="726"/>
			<point x="242" y="726" type="curve" smooth="yes"/>
			<point x="209" y="726"/>
			<point x="185" y="703"/>
			<point x="185" y="673" type="curve" smooth="yes"/>
			<point x="185" y="644"/>
			<point x="205" y="627"/>
			<point x="205" y="599" type="curve" smooth="yes"/>
			<point x="205" y="560"/>
			<point x="168" y="535"/>
			<point x="104" y="526" type="curve"/>
		</contour>
	</outline>
	<anchor name="_hornLC" x="104" y="490"/>
</glyph>
<glyph name="commabelowcmb" format="2">
	<unicode hex="0326"/>
	<outline>
		<contour>
			<point x="-21" y="-117" type="curve" smooth="yes"/>
			<point x="-21" y="-100"/>
			<point x="-24" y="-88"/>
			<point x="-29" y="-75" type="curve"/>
			<point x="-39" y="-67"/>
			<point x="-52" y="-61"/>
			<point x="-70" y="-61" type="curve" smooth="yes"/>
			<point x="-113" y="-61"/>
			<point x="-136" y="-90"/>
			<point x="-136" y="-123" type="curve" smooth="yes"/>
			<point x="-136" y="-153"/>
			<point x="-116" y="-179"/>
			<point x="-73" y="-193" type="curve"/>
			<point x="-77" y="-163" type="line"/>
			<point x="-95" y="-195"/>
			<point x="-115" y="-213"/>
			<point x="-164" y="-233" type="curve"/>
			<point x="-149" y="-269" type="line"/>
			<point x="-66" y="-245"/>
			<point x="-21" y="-197"/>
		</contour>
	</outline>
	<anchor name="_belowLC" x="-61" y="-20"/>
	<anchor name="belowLC" x="-113" y="-261"/>
</glyph>
<glyph name="cedillacmb" format="2">
	<unicode hex="0327"/>
	<outline>
		<contour>
			<point x="-55" y="-88" type="line"/>
			<point x="-7" y="-98"/>
			<point x="17" y="-113"/>
			<point x="17" y="-145" type="curve" smooth="yes"/>
			<point x="17" y="-173"/>
			<point x="-5" y="-190"/>
			<point x="-38" y="-190" type="curve" smooth="yes"/>
			<point x="-62" y="-190"/>
			<point x="-81" y="-184"/>
			<point x="-98" y="-175" type="curve"/>
			<point x="-115" y="-211" type="line"/>
			<point x="-97" y="-222"/>
			<point x="-64" y="-232"/>
			<point x="-27" y="-232" type="curve" smooth="yes"/>
			<point x="47" y="-232"/>
			<point x="89" y="-195"/>
			<point x="89" y="-148" type="curve" smooth="yes"/>
			<point x="89" y="-99"/>
			<point x="51" y="-77"/>
			<point x="-22" y="-58" type="curve"/>
			<point x="-13" y="-83" type="line"/>
			<point x="25" y="0" type="line"/>
			<point x="-13" y="0" type="line"/>
		</contour>
	</outline>
	<anchor name="_baseLC" x="0" y="0"/>
</glyph>
<glyph name="ogonekcmb" format="2">
	<unicode hex="0328"/>
	<outline>
		<contour>
			<point x="-173" y="-151" type="curve" smooth="yes"/>
			<point x="-173" y="-202"/>
			<point x="-139" y="-234"/>
			<point x="-78" y="-234" type="curve" smooth="yes"/>
			<point x="-26" y="-234"/>
			<point x="13" y="-207"/>
			<point x="38" y="-183" type="curve"/>
			<point x="21" y="-154" type="line"/>
			<point x="3" y="-166"/>
			<point x="-20" y="-175"/>
			<point x="-44" y="-175" type="curve" smooth="yes"/>
			<point x="-73" y="-175"/>
			<point x="-93" y="-158"/>
			<point x="-93" y="-123" type="curve" smooth="yes"/>
			<point x="-93" y="-77"/>
			<point x="-62" y="-35"/>
			<point x="-16" y="11" type="curve"/>
			<point x="-57" y="11" type="line"/>
			<point x="-57" y="1" type="line"/>
			<point x="-120" y="-43"/>
			<point x="-173" y="-89"/>
		</contour>
	</outline>
	<anchor name="_ogonek" x="-57" y="0"/>
</glyph>
<glyph name="verticallinebelowcmb" format="2">
	<unicode hex="0329"/>
	<outline>
		<contour>
			<point x="-158" y="-268" type="line"/>
			<point x="-58" y="-268" type="line"/>
			<point x="-29" y="-68" type="line"/>
			<point x="-111" y="-68" type="line"/>
		</contour>
	</outline>
	<anchor name="_belowLC" x="-61" y="-20"/>
	<anchor name="belowLC" x="-114" y="-268"/>
</glyph>
<glyph name="Gamma" format="2">
	<unicode hex="0393"/>
	<advance width="545"/>
	<outline>
		<contour>
			<point x="487" y="473" type="line"/>
			<point x="553" y="473" type="line"/>
			<point x="582" y="664" type="line"/>
			<point x="253" y="664" type="line"/>
			<point x="246" y="606" type="line"/>
			<point x="532" y="606" type="line"/>
			<point x="485" y="653" type="line"/>
		</contour>
		<contour>
			<point x="-5" y="0" type="line"/>
			<point x="301" y="0" type="line"/>
			<point x="311" y="53" type="line"/>
			<point x="179" y="63" type="line"/>
			<point x="141" y="63" type="line"/>
			<point x="6" y="53" type="line"/>
		</contour>
		<contour>
			<point x="78" y="0" type="line"/>
			<point x="203" y="0" type="line"/>
			<point x="220" y="102"/>
			<point x="238" y="205"/>
			<point x="257" y="308" type="curve" smooth="yes"/>
			<point x="323" y="664" type="line"/>
			<point x="198" y="664" type="line"/>
			<point x="181" y="561"/>
			<point x="163" y="459"/>
			<point x="144" y="357" type="curve" smooth="yes"/>
		</contour>
		<contour>
			<point x="102" y="610" type="line"/>
			<point x="230" y="600" type="line"/>
			<point x="244" y="600" type="line"/>
			<point x="252" y="664" type="line"/>
			<point x="112" y="664" type="line"/>
		</contour>
	</outline>
</glyph>
<glyph name="Delta" format="2">
	<unicode hex="0394"/>
	<unicode hex="2206"/>
	<advance width="612"/>
	<outline>
		<contour>
			<point x="-10" y="0" type="line"/>
			<point x="534" y="0" type="line"/>
			<point x="548" y="73" type="line"/>
			<point x="431" y="664" type="line"/>
			<point x="333" y="664" type="line"/>
			<point x="4" y="73" type="line"/>
		</contour>
		<contour>
			<point x="57" y="57" type="line"/>
			<point x="336" y="578" type="line"/>
			<point x="328" y="580" type="line"/>
			<point x="426" y="54" type="line"/>
			<point x="448" y="82" type="line"/>
			<point x="40" y="82" type="line"/>
		</contour>
	</outline>
</glyph>
